<mxfile host="app.diagrams.net" agent="Mozilla/5.0 (Windows NT 10.0; Win64; x64; rv:141.0) Gecko/20100101 Firefox/141.0" version="28.0.4">
  <diagram name="Page-1" id="mpbxbH0T4lxNFaJaOLAD">
    <mxGraphModel dx="2195" dy="1783" grid="1" gridSize="10" guides="1" tooltips="1" connect="1" arrows="1" fold="1" page="1" pageScale="1" pageWidth="850" pageHeight="1100" math="0" shadow="0">
      <root>
        <mxCell id="0" />
        <mxCell id="1" parent="0" />
        <mxCell id="8J9FziU4pGV4N6TT8qJt-1" value="Pharmacokinetics - how body deals with a drug" style="rounded=0;whiteSpace=wrap;html=1;" vertex="1" parent="1">
          <mxGeometry x="340" y="280" width="170" height="60" as="geometry" />
        </mxCell>
        <mxCell id="8J9FziU4pGV4N6TT8qJt-3" style="edgeStyle=none;curved=1;rounded=0;orthogonalLoop=1;jettySize=auto;html=1;fontSize=12;startSize=8;endSize=8;" edge="1" parent="1" source="8J9FziU4pGV4N6TT8qJt-2" target="8J9FziU4pGV4N6TT8qJt-1">
          <mxGeometry relative="1" as="geometry" />
        </mxCell>
        <mxCell id="8J9FziU4pGV4N6TT8qJt-2" value="Primary determined by membrane" style="rounded=0;whiteSpace=wrap;html=1;" vertex="1" parent="1">
          <mxGeometry x="280" y="410" width="120" height="60" as="geometry" />
        </mxCell>
        <mxCell id="8J9FziU4pGV4N6TT8qJt-5" style="edgeStyle=none;curved=1;rounded=0;orthogonalLoop=1;jettySize=auto;html=1;entryX=1;entryY=0.5;entryDx=0;entryDy=0;fontSize=12;startSize=8;endSize=8;" edge="1" parent="1" source="8J9FziU4pGV4N6TT8qJt-4" target="8J9FziU4pGV4N6TT8qJt-2">
          <mxGeometry relative="1" as="geometry" />
        </mxCell>
        <mxCell id="8J9FziU4pGV4N6TT8qJt-4" value="lipophilic important" style="rounded=0;whiteSpace=wrap;html=1;" vertex="1" parent="1">
          <mxGeometry x="460" y="540" width="120" height="60" as="geometry" />
        </mxCell>
        <mxCell id="8J9FziU4pGV4N6TT8qJt-7" style="edgeStyle=none;curved=1;rounded=0;orthogonalLoop=1;jettySize=auto;html=1;fontSize=12;startSize=8;endSize=8;" edge="1" parent="1" source="8J9FziU4pGV4N6TT8qJt-6" target="8J9FziU4pGV4N6TT8qJt-4">
          <mxGeometry relative="1" as="geometry" />
        </mxCell>
        <mxCell id="8J9FziU4pGV4N6TT8qJt-6" value="Partition coefficient" style="rounded=0;whiteSpace=wrap;html=1;" vertex="1" parent="1">
          <mxGeometry x="270" y="540" width="120" height="60" as="geometry" />
        </mxCell>
        <mxCell id="8J9FziU4pGV4N6TT8qJt-9" style="edgeStyle=none;curved=1;rounded=0;orthogonalLoop=1;jettySize=auto;html=1;fontSize=12;startSize=8;endSize=8;" edge="1" parent="1" source="8J9FziU4pGV4N6TT8qJt-8" target="8J9FziU4pGV4N6TT8qJt-2">
          <mxGeometry relative="1" as="geometry" />
        </mxCell>
        <mxCell id="8J9FziU4pGV4N6TT8qJt-8" value="conc gradient" style="rounded=0;whiteSpace=wrap;html=1;" vertex="1" parent="1">
          <mxGeometry x="80" y="410" width="120" height="60" as="geometry" />
        </mxCell>
        <mxCell id="8J9FziU4pGV4N6TT8qJt-10" value="most drugs are weak acids or bases" style="rounded=0;whiteSpace=wrap;html=1;" vertex="1" parent="1">
          <mxGeometry x="550" y="420" width="120" height="60" as="geometry" />
        </mxCell>
        <mxCell id="8J9FziU4pGV4N6TT8qJt-11" style="edgeStyle=none;curved=1;rounded=0;orthogonalLoop=1;jettySize=auto;html=1;entryX=0.65;entryY=0.078;entryDx=0;entryDy=0;entryPerimeter=0;fontSize=12;startSize=8;endSize=8;" edge="1" parent="1" source="8J9FziU4pGV4N6TT8qJt-10" target="8J9FziU4pGV4N6TT8qJt-4">
          <mxGeometry relative="1" as="geometry" />
        </mxCell>
        <mxCell id="8J9FziU4pGV4N6TT8qJt-12" value="to avoid" style="edgeLabel;html=1;align=center;verticalAlign=middle;resizable=0;points=[];fontSize=12;" vertex="1" connectable="0" parent="8J9FziU4pGV4N6TT8qJt-11">
          <mxGeometry x="-0.0815" y="4" relative="1" as="geometry">
            <mxPoint as="offset" />
          </mxGeometry>
        </mxCell>
        <mxCell id="8J9FziU4pGV4N6TT8qJt-14" style="edgeStyle=none;curved=1;rounded=0;orthogonalLoop=1;jettySize=auto;html=1;entryX=0.5;entryY=0;entryDx=0;entryDy=0;fontSize=12;startSize=8;endSize=8;" edge="1" parent="1" source="8J9FziU4pGV4N6TT8qJt-13" target="8J9FziU4pGV4N6TT8qJt-10">
          <mxGeometry relative="1" as="geometry" />
        </mxCell>
        <mxCell id="8J9FziU4pGV4N6TT8qJt-15" value="pH and pKa determine state" style="edgeLabel;html=1;align=center;verticalAlign=middle;resizable=0;points=[];fontSize=12;" vertex="1" connectable="0" parent="8J9FziU4pGV4N6TT8qJt-14">
          <mxGeometry x="-0.0944" y="4" relative="1" as="geometry">
            <mxPoint as="offset" />
          </mxGeometry>
        </mxCell>
        <mxCell id="8J9FziU4pGV4N6TT8qJt-13" value="acid dis curve important to determin" style="rounded=0;whiteSpace=wrap;html=1;" vertex="1" parent="1">
          <mxGeometry x="550" y="300" width="120" height="60" as="geometry" />
        </mxCell>
        <mxCell id="8J9FziU4pGV4N6TT8qJt-18" style="edgeStyle=none;curved=1;rounded=0;orthogonalLoop=1;jettySize=auto;html=1;entryX=0.5;entryY=0;entryDx=0;entryDy=0;fontSize=12;startSize=8;endSize=8;" edge="1" parent="1" source="8J9FziU4pGV4N6TT8qJt-17" target="8J9FziU4pGV4N6TT8qJt-13">
          <mxGeometry relative="1" as="geometry" />
        </mxCell>
        <mxCell id="8J9FziU4pGV4N6TT8qJt-17" value="" style="shape=image;verticalLabelPosition=bottom;labelBackgroundColor=default;verticalAlign=top;aspect=fixed;imageAspect=0;image=data:image/jpeg,/9j/4AAQSkZJRgABAQEAAAAAAAD/4QBCRXhpZgAATU0AKgAAAAgAAYdpAAQAAAABAAAAGgAAAAAAAkAAAAMAAAABAQQAAEABAAEAAAABAAAAAAAAAAAAAP/bAEMACwkJBwkJBwkJCQkLCQkJCQkJCwkLCwwLCwsMDRAMEQ4NDgwSGRIlGh0lHRkfHCkpFiU3NTYaKjI+LSkwGTshE//bAEMBBwgICwkLFQsLFSwdGR0sLCwsLCwsLCwsLCwsLCwsLCwsLCwsLCwsLCwsLCwsLCwsLCwsLCwsLCwsLCwsLCwsLP/AABEIAK8B2gMBIgACEQEDEQH/xAAfAAABBQEBAQEBAQAAAAAAAAAAAQIDBAUGBwgJCgv/xAC1EAACAQMDAgQDBQUEBAAAAX0BAgMABBEFEiExQQYTUWEHInEUMoGRoQgjQrHBFVLR8CQzYnKCCQoWFxgZGiUmJygpKjQ1Njc4OTpDREVGR0hJSlNUVVZXWFlaY2RlZmdoaWpzdHV2d3h5eoOEhYaHiImKkpOUlZaXmJmaoqOkpaanqKmqsrO0tba3uLm6wsPExcbHyMnK0tPU1dbX2Nna4eLj5OXm5+jp6vHy8/T19vf4+fr/xAAfAQADAQEBAQEBAQEBAAAAAAAAAQIDBAUGBwgJCgv/xAC1EQACAQIEBAMEBwUEBAABAncAAQIDEQQFITEGEkFRB2FxEyIygQgUQpGhscEJIzNS8BVictEKFiQ04SXxFxgZGiYnKCkqNTY3ODk6Q0RFRkdISUpTVFVWV1hZWmNkZWZnaGlqc3R1dnd4eXqCg4SFhoeIiYqSk5SVlpeYmZqio6Slpqeoqaqys7S1tre4ubrCw8TFxsfIycrS09TV1tfY2dri4+Tl5ufo6ery8/T19vf4+fr/2gAMAwEAAhEDEQA/APXKKKKACisy/wBb0+xcQZee7PC21su+TP8AtY4FVBeeLbn5oNNtbWM/d+2SlpMe6pj+VAG9RWFjxt/e0j8pqMeNv7+kflNQBu0VhY8bf39I/KajHjb+/pH5TUAbtFYWPG39/SPymox42/v6R+U1AG7RWFjxt/f0j8pqMeNv7+kflNQBu0VhY8bf39I/KajHjb+/pH5TUAbtFYWPG39/SPymox42/v6R+U1AG7RWFjxt/f0j8pqMeNv7+kflNQBu0VhY8bf39I/KajHjb+/pH5TUAbtFYWPG39/SPymox42/v6R+U1AG7RWFjxt/f0j8pqMeNv7+kflNQBu0VhY8bf39I/KajHjb+/pH5TUAbtFYWPG39/SPymox42/v6R+U1AG7RWFjxt/f0j8pqMeNv7+kflNQBu0VhY8bf39I/KajHjb+/pH5TUAbtFYWPG39/SPymox42/v6R+U1AG7RWFjxt/f0j8pqMeNv7+kflNQBu0VhY8bf39I/KajHjb+/pH5TUAbtFYWPG39/SPymox42/v6R+U1AG7RWFjxt/f0j8pqMeNv7+kflNQBu0VhY8bf39I/KajHjb+/pH5TUAbtFYWPG39/SPymox42/v6R+U1AG7RWFjxt/f0j8pqMeNv7+kflNQBu0VhY8bf39I/KajHjb+/pH5TUAbtFYWPG39/SPymox42/v6R+U1AG7RWFjxt/f0j8pqMeNv7+kflNQBu0VhY8bf39I/Kak8/xnDy9np1yo6iGRo3x7bzigDeorGtvEFo8otr6GawujwEuhhGP+zJ0/lWzQAUUUUAFYmqX93JcR6RphAvJl33E38NrCf4j7nt/9eta5nS2t7i4f7kMTyt7hQTisnw7buLWTUZ+bvU5GuZGPURknYo9u/wCPtQBc07SrLTUxEu+Z+ZriT5pZGPUlj29qv0UUAFFFFABRRRQAUUUUAFFFFABRRRQAUUUUAFFFFABRRRQAUUUUAFFFFABRRRQAUUUUAFFFFABRRRQAUUUUAFFFFABRRRQAUUUUAFFFFABRRRQAUUUUAFFFFABRRRQAUUUUAFFFFABRRRQBXvLKzvoWguolkQ5xkfMp9VbqDWLazXWiXcOm3srS6fctt0+5k+9G3aGQ/wAv87eiqlqtimo2NzbMPnKl4W7pKvKkf570AXaKzdDvHvtNtpZP9dHut589fMiO0k/Xg/jWlQBj+JXKaLqOP4liT8GkUGtO1QR21pGOiQRIPoEArK8Uf8gW+/3oP/Rq1rw/6mD/AK5p/wCgigB9FFFABRRRQAUUUUAFFFFABRRRQAUUUUAFFFFABRRRQAUUUUAFFFFABRRRQAUUUUAFFFFABRRRQAUUUUAFFFFABRRRQAUUUUAFFFFABRRRQAVw/wAULi6tfDHm2080Ev8AaNou+CR432lZMjchBxXcVwXxX/5FX/uJWf8A6DJUy2Gi7o3hbRbnStEvJpNWa4nsLK5lb+19TAaWSJXY7RNjr7V2FZnh7/kA+Hf+wTp3/pOladaS3aIjshHZEV3dgqIpZmY4CqBkkmvOfCXi+TVPFGvW00rfZtRYyaYjscRi2G0IoPTcvzH3HvXQeM7y4XTrfSLNsX+v3CabBjqsTkedIcdgvB/3q4Dxfo//AAiWr+H9U0tNkCpb7MDA+02gVW34/vjBPrk19bkeBoV6M6Vb46qah/27rf5v/wBJZlVk1t01PZqjneSKGeSOIyyRxSOkSnDSMqkhAT69KZZXcF/aWd7Acw3UEU8Z/wBl1DYPuO9T18m4uErSW3Q2TvqcvYeIfE11eWtvc+Er20glkCS3Ml0jrCp/iKiMfzrpZY0mimhfdsljeN9jMjbXBU7WQhgfcGn0VtiKtOq06dNQXZNv82xRTW7OD8U+G9K0zw9rd/ZTatHdWtqZYHOram4V9yjO15iv6VpfD2a4uPCWizXE0s0r/bN0kztI7YuZQMs5Jqfxz/yKXib/AK8m/wDQ1qp8N/8AkTtC/wC3z/0qlrmXX5fqN9PmddRRRQMKKKKAMLQPkuPEkA+5FqkhUem8ZP8AKt2sLQ/+P/xV/wBhL+hrdoAxfFH/ACBb7/eg/wDRq1rw/wCpg/65p/6CKyPFH/IFvv8Aeg/9GrWvD/qYP+uaf+gigB9FFFABRRRQAUUjPGgy7qozjLEAZ9Mmmefb/wDPaL/vtf8AGgCSikV43GUdWGcZUgjPpkUzz7fkedFkHB+deD+dAElFME0BIUSxlj0AdST9Bmn0AFFFFABRRRQAUUUUAFFFFABRRTDLApKtLGGHUF1BGfUE0APopgmgYhVljLHoA6kn6AGlaSNMb3Rc9NzAZx6ZoAdRTBNAxCrLGWPQB1JP0ANPoAKKKKACiiigAooooAKKKR3SNWd2VEUEszkKqgdyTxQAtFUrHVtI1NrtNPvbe6No6x3Bt3EixuwJA3L8vY9DV2gAooooAKKKKACiiigArgviv/yKv/cSs/8A0GSu9rgviv8A8ir/ANxKz/8AQZKmWw0dV4e/5APh3/sE6d/6TpWnWZ4e/wCQD4d/7BOnf+k6VW8Va3FoWjXt3vUXLo0FkpI3PcSDCkD/AGfvH6V1UqE8RWVGmruTsjOLtFNnOLq9rc+LdR1Oe21O4tNGibStNNjY3N1F9pJP2mUtCpAI+716GneLb/T9e0S8s007XRcx7bmzZ9IvlCzR54LFMAEZB+vtXT+HNNj0nRdMs1IZxCs1xIDnzLib95I+7vyePbFa1ezUzChRxMZ0oN+zsovmtpHra3XVv1ZMYtq76nnvwv1j7Tpt1pErZl06TzYATybaYkkD/dbP/fQr0KvGJpovBvj6Z0bbYSTBplXotpeAOykD+4Tkf7o9a9mR0kRHRlZHUOjKQVZWGQQRxg1rxHhoxxEcXSXuVkpL1e6/X5k0XZOD6C0UUV8ybnOeOf8AkUvE3/Xk3/oa1U+G/wDyJ2hf9vn/AKVS1b8c/wDIpeJv+vJv/Q1qp8N/+RO0L/t8/wDSqWiPX5fqJ9PmddRRRQMKKKKAMLQ/+P8A8Vf9hL+hrdrC0P8A4/8AxV/2Ev6Gt2gDF8Uf8gW+/wB6D/0ata8P+pg/65p/6CKyPFH/ACBb7/eg/wDRq1rw/wCpg/65p/6CKAH0UVka/e69YWU9xpNha3UkME88purholRYl3YVFUlieeNy9OvNJuw1qa9FeWeG/HHi3WbHU0t7aG/1yW7C2UCRrDaWNqI1LT3D5Hy5OFBfJPTpVG98X/E7wpqFsfEcFtcWVwxIWOOFY3QfeWCeAAhhno2fpzmmI9aurKwvovIvbW3uYd27y7mJJUDYI3BXBGeTXhQ0LR/+Fl/2L9nX+zf7Sz9nydmz7P8AafL65254x6V7lp9/aanY2WoWj77a7hSaIkYO1h0Yeo6H6V47JLDD8XHlmkjjjS/y7yuqIo+wY5ZiBQtJpA9YM9ltbOwsYvJsrW3tod27y7aJIkLEAbisYAzwPyrzb4qaHokGiw6nbWNrb3q6jFG8tvEkTSpKsjMJNgAPIByf616H/a+h/wDQT0//AMC4P/iq4X4pX+m3PhlI7e9tJpP7StG2QzxSPtCS5O1GJqZDiXvh1omiQ+HNF1EWFq2oXAmne6kiR5wwmkRdjsCRgccY/Wu5rl/h/wD8if4c/wCuE3/pRJXUVpLciOwUVS1LVdJ0eBLnU7uK1geUQpJMSFaQqWCjAPOAfyrJ/wCE58C/9B2x/wC+n/8Aiako6Oiuc/4TnwL/ANB2x/76f/4mrNl4r8J6jcw2djq1pPdTFhFFGW3vtUucZHoCaANqiiuO8beIPFOgWM97p1hYtaRtDG91cTO8itLhQVtlCjAPGS5+lJuw9zsaK83sPEvjrXNE0xNBt4LjUTAz6rqd0sUVrBK0jbYIU4UvtwW4IGRnk8ZmmePvFei62ujeMoU2PIkbziKOKSASHCygwfu2j9cD8eMGuthdLnrdeXfFy20eLS9PuBaWy6nc6goFwkaLO8SQtvDuoyR9wc+1eo9eRXjHxHvrS/8AF2iaXdTeXp+mxwtfPhmCCZhPMdqAnOwLjiperSGtmztvA3hnStH0TSbyWzt/7Unt1vLi6lRWmjMylgiu3KgKcHGO/rWb4jtYfH01tpulQRNZWFyWvNfdMxx4yGtrFuC5PG7B28Dn0safNJ4+SWc3H2XwvBM1sNPt3K3l80eOL10+7GRjCA89zXbwQW9rDDb20UcMEKCOKKJQiIg6BVXiqeruyVorGJofhDwvoCwtY2MZuo1I+2XAEt0SRgkO3TP+yBW/RRSuMKKKKACio5ri1tlD3E8MKFtoaaRI1LEZwC5AzVf+1dF/6CVh/wCBUH/xVAFPw/rL63bX9w9usBtdUvtOCq5feLZ9gckgdfStiuJ8EahpkOn62s19Zxs3iPWnUSXEKko0wwwy3Q9q6yPUtKldI4r+ykkc7USO4hZmPoFVs0dvkHctVk69o+lavYXMeoW4mWK3uWiDM4COU++ApAyMDHHFa1QXn/Hpe/8AXtP/AOgGplsyo7o8y+Df/Hl4k/6+rP8A9FyV6pXlfwb/AOPLxJ/19Wf/AKLkrrPEHiaey1HTfD+jwRXOu6j8yCct9ms4eSZrjZ8x4BOB6fQNpLczjsdRRXIajZfEaztZb2w1+3v7qFDK2nzaXbxQTbRkpC8Z80H0y5z6ipvB3jC08VWs2YhbalabReW2SRhuBJETztPT2PHoWncrY6miuY8X+K08NW1mkEK3OqajL5FhbuxCZyFMkpHO0EgY757dQzULXxxa6XNfW2uJPqdtA1zJaNY2osZii72hjwvnD/ZJkOcds8K+lx26HVUVwHhTxh4p8UrJJb2Ohxx2k8EV8st1dpOEfkyRIImXnDYy/Ufie/qrWJCuC+K//Iq/9xKz/wDQZK72sTxP4eg8TaZ/Zk1zJbp9oiuPMiRXbMYYbcNx3qXqUix4e/5APh3/ALBOnf8ApOlQX/hbwzqlw11qFj9onbA3SXF1gAADCosgUfgBVG18PeJrOG0tofF90Le1jihijOl6YcRRKEVNxTd0GM5rqK6KeIq0ZudGTi/JtP8AAhR0sylp2labpUbQ2ETxRNt+Rp7iVV25wEEzsB17Yq3IiyJJG+dsiMjbWZThhg4ZSCPwNOoqJ1J1Jc822+73Gklsc7J4J8GSu8kulrJI53O8lzeO7H1ZmlJrU03SNL0iN4tPhaGJypMZmnlQYz91ZnYDr2x+lXqK3qY3E1YclSpJrs22vuEoxWqQUUUyVZHimSOQxSPG6xyhVYxsQQHCtwcdea5Cjn/HP/IpeJv+vJv/AENaqfDf/kTtC/7fP/SqWlvvC/iLUrS5sL3xddy2tynlzxjTNNTemQcbkQMPwNbPh/RovD+k2WkxTvPHa+dtlkVVZvMlaXkLxxnFC6ifQ1KKKKBhRRRQBhaH/wAf/ir/ALCX9DW7WFof/H/4q/7CX9DW7QBi+KP+QLff70H/AKNWteH/AFMH/XNP/QRWR4o/5At9/vQf+jVrXh/1MH/XNP8A0EUAPqrqX/IO1T/ryuv/AEU1Wqq6l/yDtU/68rr/ANFNUy+FlR3R518HQP7K144GTqEQJxzgQjjNdD8R7OC78Jaw0igvZ+ReQN3V0kVSR9QWH41xfwn1vTLCLVtPvp0tmurmKa0luCI4JXVNrxCRsLvHynGec+1dJ471eHUdPHhjRJI7/VtXkhjMVo6yiC3R1keSZkJVRwByehJ7VU9diYabk3wteV/CVoHztjvL1Is/3PM3cfiTXEz29rd/FqS3uoIZ7eW+xJDcRrJE4FjkBkcEH8q9V0WwsfDGh6Zp81zBGlrEElmldYkkncmSRgXI6knHt9K8fGsaT/ws/wDtX7VCNO/tIr9q3jydv2f7P5m/ptz36Y5p71F/XYX2Gex/8Iz4R/6F/RP/AAXWn/xuuI+J2jaBYeG0nsdK021n/tG1TzbW0t4ZNhSQld0ag46d69IguLW6TzbaeGePON8EiSJnAONyEivOPivqulPoVvYRXltLdyalDIYYpUeREiSQMzKpJAyQOf6VEtionSfD/wD5E/w5/wBcJv8A0okrqK4r4darpM3hjRLJL22+2W6zwS2xlQTq/nSOP3ZO7kcjj+XHa1pLdkR2KOproTwINZXTmtvNBQamIDD5uDjb5/y7sZrH8n4Zf88vCX/fOl1sapo+ka1BHbapaR3UEconRJC4CyBWUMChB6E/nWN/wgPgL/oB23/fy4/+OVJQvk/DL/nl4S/750urVjF4FW6hOmJ4dF6N3kmxFgLj7p3bPJ+fpnOKqf8ACA+Av+gHbf8Afy4/+OVasPCHhDTLuC+sdKgguoC5ilR5iyblKHAZyOhI6UAbtcb8TP8AkTtX/wCulj/6Ux12Vcb8TP8AkTtX/wCulj/6Ux1Mtio7lvwAAPB/hzAAzbyk4GOTPJzXIfGKzgNpoGoBQJ0uJrNmHVo3TzQD9CDj6mtn4d6/o7eHNM06e7htr2ySVXhunWFpImld0li8zGVIOMjuPzzvFW3xzrWi6BpDifT9Ome61m+hO+3hLYXy1kHylsAgAHq3+ycXNXkRF2Wp3miSyNoehzTnDtpdjJKWPcwIzEk15b4IhTxN418T65cRiS1jW72q43KRdk28aHP+wGFdp408Q6Vonh7U7WC6thfSWrafZ2scqGZDIvlbvLB3AIDnp2HrWL8JjpMGi3AW8tTqN7fSPLb+bGLhUiUIg8sndj7zDjv7UfFJv+tQ2il/Whh2ck3w38Yy2UzP/wAI9q5Uo7ElUiZiEkJP8URJVvY57ivZgQQCCCCAQRyCD3Brhvidb6HceHZzfXEEN9akXGmb3UTSS5CtHGh+Yhh1x6A/w1j/AA78dWMljDomtXccFzZqI7K4upAkc8A4WNpHON69Bk8jHccqOqt2G9Hfueo0U1HjlRJI3V43AZHRgysD3BHFMF1ZmY24uIDcAZMIkTzQOvKZ3fpQBLRRRQBT1HS9K1aFLfUrOC6hSQTJHOu5VkAKhgPXBI/Gsv8A4QrwP/0AdO/79f8A166CigDzrwd4X8K31jrEl3pFlM8Wv6vbRtJHkrDFLhEHPQdq6q28J+EbO4gurXRrGK4gcSQyxx4ZHHRlPrTfDOk3mj2mpQXTQs9zrGpX8ZhZmURXEm9QxZRz61u0dvkHcKgvP+PS9/69p/8A0A1PVDV72wsNPvpry5hgj+zXGDNIqbiIzwoY8n2FTLZlR3R518G/+PLxJ/19Wf8A6Lkqn4aunu/inr8twT5gbVYIQ3VRAVhVR9FWnfCDUNOgi160nuoIrmaezkhimkRGlUK6HywxGcEjOPUetHivTNR8KeLbTxjZQSTabNcCa+EQyYXkXyp0fHQOCSpPc+3Oj+JPyIXwtHr1eM+H0bTvirqlpbDbDNcaosiLwvlSRG5AwOwOPyr01PFPhV7AamNXsRaGPzCzTIHHH3DGTv3dsYz7Vy3gvRbu51rX/GV/byW/9pyzrpUE6lZVtpHB851PIyAoH49iMyviv6jesTJ+KtreW+oeF9eWN3tLR1hmKgkRyJMJ13em7kD6V6U+paa2lSap9oiOntZtd+duHlmEpuzmuP8AiPr0+lQaRZNazPpmpTldWmiUFmtI2TfbRM/yh3BPPtx6rgw+Kvg4qqg0i+SEOJPs8kLvahx/Ebfz2iz/AMApLWLQ9mmXfhJpd3b2etarNG0cGoywR2YYY8yOAyFpAPTLYH0Nen1zeheMvCWuSrZaZdBbhU/d200TQMUQf8sgRtOB2B7egrpKpko5WW6+J3my+TpXhwQ728vzL26Z9meNxCAZ/Cmfavip/wBAvwz/AOBl3/8AE11tFIZyX2r4qf8AQL8M/wDgZd//ABNH2r4qf9Avwz/4GXf/AMTXW0UAcl9q+Kn/AEC/DP8A4GXf/wATR9q+Kn/QL8M/+Bl3/wDE11tFAHJfavip/wBAvwz/AOBl3/8AE0favip/0C/DP/gZd/8AxNdbRQByX2r4qf8AQL8M/wDgZd//ABNH2r4qf9Avwz/4GXf/AMTXW0UAcl9q+Kn/AEC/DP8A4GXf/wATR9q+Kn/QL8M/+Bl3/wDE11tFAHLQXPxMM8AudM8Oi3MsYnMV5deYItw3FNy4zjpXU0UUAFFFFAGFof8Ax/8Air/sJf0NbtYWh/8AH/4q/wCwl/Q1u0AYvij/AJAt9/vQf+jVrXh/1MH/AFzT/wBBFZHij/kC33+9B/6NWteH/Uwf9c0/9BFAD6q6lxp2qE/8+V1/6KarVZmraQurwm3k1DUrWB45Ipo7CaOITI/BDs0bN7cEdaUldWGtHc89+E1rZXuia/b3lvb3MJ1GItFcxpLGf3AGSjgj9K9Ls9N0nTlZdPsLO0VvvC0t4oQ3fny1Fc/o3gfSdAlaTS9R1mBZHjeeH7TC0M/lnIEiND9Rxg89a6qqbJRFPb2tygjuYIZ4wwYJPGkihhxkBwRmoP7K0b/oHWH/AICwf/E1copDIoLe1tkMdtBDBGWLFII0jUseCcIAM1CdL0cszHTrEsxLMxtoSWJ5JJ21booAqppulRSJLHYWSSocpIlvCrqfVWC5q1RRQAUUUUAFFFFABXG/Ez/kTtX/AOutj/6Ux12Vc/rnhWy8Qh49Q1DVvsrOkn2S3uIo7YMgAB2+UWPryx5/RNXGnYzPBumaPqXg/wAMDULCyvAlvKE+128U+39/JwvmKa663trS0iWC0t4LeFfux28aRRjtwqACsfQ/DVp4fRIbHUNVe0TzNlpdTxS26lzklR5QYc88Njn3rdqm9bolaKxVfTdJkd5ZLCyeRzud3t4Wdj6sxXNLHp+lwyLLDY2ccqZ2yR28SOuRg4ZVzVmikMgns7C5ZXubW2mZAVVp4Y5CoPOAXBqI6Vox4Om2BHvawf8AxNXKKAIJoFFnPbwSC0X7PJFFJCqqLfKFQ6Dhfl6j6V5Rr0Wk2ng//iUQSXk2l3VtKfEiwx2/mXRugHkimY+a5JJUldw/2vlr1HVrE6npeqacJTCb20uLYSryUMiFQ2B+tcVceGPGl74RPhu4l0aI2sdtDbPAZ3+1Jbyq6eazIAnA5wrEkds8rr9wzv4mLRQserRox+pANPqvYrfJawLe/Z/tIRRILXeYVIAG1TJ8x+uB9KsVT3JWwUUUUhhRRRQAVFPa2d0EFzbwThCWQTxJIFJ4yu8GpaKAKg0zR1ZGXT7EMjBkYW0IKsDkEEL1q0yq6srKGVgVZWAIIPBBBpaKAM6LQfDkM/2mHR9Ljuc7vOjs7dZQeuQ4TNaNFFAHm+p+JtKuvGyaJrjrbaPpSeZEl0AILvUiqPHJcFuNignZnjIz3GOuOleCbpfN/s/QJkYbvMFvZOpHruC4pda8MeG/EAX+1LCOWVBtjnQtFOgznAkjIbHsciudj+FXgdJN7JqEi5/1cl1hPzjVW/8AHqFtYb3uQXemeErvxB4cg8NWtkuo6fqMOoalc6WqrBa2UQYmKdof3e6Q4VR169B19Cqnp2maXpNutpptpDa26nOyFcbm/vOx+Yn3JNXKPIXmYviDxLo/hqG1n1L7RsupWhi+zxeYd6ruORkVDb+KIrma3hXQ/E0fnyRxiWfSZ44U3kDfI5OAo6k1yPxg/wCQb4e/7CMv/oqvS4f9VD/1zT/0EULa4PsZl94h0fTWK3zXUI3lFd7O68t2H9yQJtP4GksvEejaiwWya6n+dUZo7O6KIWOBvfZtH4mqfjVVPh3UCQDtktWX2PnIMiovAoUeH4CAAWubkt7ndjJ/IVxqpP2/stLWv/Wp9EsFhXlbxtpc3Ny2urbXv8P4HQ3V1FaRiSRLh1JIP2eCadhgE5KwqTj8Kxl8Y+F2cRLdTNIW2BFtLouWzjaFEec10Fea2KJ/wsC4G0YF5fOB/tGFzmnXqThKKjbV2JynBYbF06zrKV6cXLRpXt01TPRbe4S5jEqJOikkYuIZIX477JQGx+FS0UV1ngys37uxVnv7K2urCzmk2z3zSrbrj7xiXe2T/KrVeUeJtQv7jVhrFvuFnYXgsbKUH5TNbYlYj6kn8PpXp1heRX9nZ3sX+ruYUlA/ukjlT7g5B+lctDEKrKUe35HuZllEsFh6Ne9+da+Ut7fd+KZZrmpfGFrCsskuheKUiiV3kkbSJwiogJLFicYHWulrP1z/AJAuv/8AYL1D/wBEPXTJ2Vzwlq7EWha9pniKya/04zG3Wd7c+fH5bb0VWPGTxyK1a8/+Ev8AyK83/YVu/wD0XDXoFU1YmLuFFFFIZhaH/wAf/ir/ALCX9DW7WFof/H/4q/7CX9DW7QBi+KP+QLff70H/AKNWteH/AFMH/XNP/QRWR4o/5At9/vQf+jVrXh/1MH/XNP8A0EUAPooooAKKKKACiiigAooooAKKKKACiiigAooooAKKKKACiiigAooooAKKKKACiiigAooooAKKKKACiiigAooooAKKKKACiiigAooooAKKKKAPMfjB/wAg3w9/2EZf/RVelw/6mH/rmn/oIrzT4wf8g3w9/wBhGX/0VXpcP+ph/wCuaf8AoIprZ+v6Ce69DA8af8i5qX+9a/8Ao9KyPCOrxWeiwQNY6rMRNcNvtLGaaI7nzgOgx9a1/Gn/ACLmpf71r/6PSovA3/Iv23/Xxdf+h15zTeLdn9n9T6+hKEchbqRuva97fZL3/CQQf9AvXv8AwWXP+FcXpUwuPHckwSWMST3jBJ42jlXMDcOjcg16bXm1j/yUG5/6+r3/ANENRiFJVKd3fUvJZ0ZUsX7OFv3cut/0PSayfEOoPp+l3MkOTdXBWzs1X7zXE3yLt+nJ/CtauUv47vW9fS3tLlbeHQI0neZoVnX7dN91djEDKjkc8GumvJqPLHd6f18jwMsowqV+er8EPed9tNk7XersvmTXXhyM+F/7HRQ1xDAJ42H8V4uZCQf9o5H0NZfw/wBSL295pUp+e2c3EAPXy3OHXHsef+BV0H9n+J/+hhj/APBXB/8AHK4W6juvCvim1uppRLFcP58sqRCFZIpyVmAjUkDByQM9hXHUfsqsaijZbPb5dT6fApZhhsRgpVVOcvfjbmvzLfeK3/zPU6z9c/5Auv8A/YL1D/0Q9aAKsAykFWAII5BB5yKz9c/5Auv/APYL1D/0Q9ejP4WfER3Rx/wl/wCRXm/7Ct3/AOi4a9Arz/4S/wDIrzf9hW7/APRcNegVpLczjsFFFFSUYWh/8f8A4q/7CX9DW7WFof8Ax/8Air/sJf0NbtAGL4o/5At9/vQf+jVrXh/1MH/XNP8A0EVkeKP+QLffWD/0ata8P+pg/wCuaf8AoIoAfRRRQAUUUUAFFFFABRRRQAUUUUAFFFFABRRRQAUUUUAFFFFABRRRQAUUUUAFFFFABRRRQAUUUUAFFFFABRRRQAUUUUAFFFFABRRRQAUUUUAeY/GD/kG+Hv8AsIy/+iq9Lh/1MP8A1zT/ANBFeZ/GDH9m+Hv+wjL/AOiq7S18UeEpjaW8OuaXJPL5MMUaXUJd5Gwqoqg5yTwKcdn6/oJ7r0KHiuXUL7T7nTLHTNQlkkmjDy+UFhCRuHyrE5Occcf/AF4/CT6jptjHpt9pWoRuLhzHKIg0W2Vh98g5GOc8V11FcyoWqe1vrse0s0SwX1H2a5b817u99r/0ivdXX2VFf7PdT5bbstYvMfoTkjI4rzy1tvEMPiZ9cfRb8wPc3EhjVUMoilVkGOcZAI716XRRVo+0kpX2JwGZ/UYThGmpc6cXdvZ+hlXWq3MVp51rpWozzyeYsUJhCFXUDBl3Nwpz79KyvCrahbRXEGoabfxXt5eT3c9y8amGRn5yzhsjGMYx/PjqqKr2bc1NvYyjjYQw86Eaa953vd3028rfLUK4jxpa32qizgstLvpZrSaQtP5QERjZQCqMTk5IB6dq7eiitSVaHI3oTl2NeAxEcRGN2tr3/Q5rw1eawlpZ6dqmmX0U0C+THctGDC0SD5fMbOQQOOn861dc/wCQLr//AGC9Q/8ARD1oVy2seKfCMuk63DHrulvLJp19FGi3cJZnaF1CgA5yTTUXGHLe5nicRHEVnVUFG7u0tr/MyPhL/wAivN/2Fbv/ANFw16BXn/wl/wCRXm/7Ct3/AOi4a9AreW5wx2CiiipKMLQ/+P8A8Vf9hL+hrdrC0P8A4/8AxV/2Ev6Gt2gDN12BrjSNSjUZbyTIo94yJP6VPplwt1p+nzqc77eLP+8o2sPzBq2QCCCMgggg9CDXO6ZIdIv59HnOLe4ka40yRvukMctDk9x2/wDr0AdFRRRQAUUUUAFFFFABRRRQAUUUUAFFFFABRRRQAUUUUAFFFFABRRRQAUUUUAFFFFABRRRQAUUUUAFFFFABRRRQAUUUUAFFFFABRRRQAUUUUAMkihlAEsccgByBIqsAfbdTBaWSkMttbhlIIIiQEEdwQKmooAKKKKACiiigAooooAKKKKACoPsdj/z62/8A36j/AMKnooAakcUQ2xoiLnOEUKM+uBTqKKACgkKCxIAAJJPQAc5orE128kKx6TZndfah+7wv/LGA/fkbHTjP6+lADfDeZYdUviOL7UJ5U90U7Qf51u1BZ2sVla21rF9yCNUB9SOrH69anoAKp6jp1rqVuYJwQVO+GVOJIpB0ZT/OrlFAHOpqWqaPiDWIZJrZfli1C3UsCvQeco5z/nnrWtb6ppV0oaC8t3z28xVb8VbB/SrhAIIIBB4IPIIrNn0LQrhi0ljBuPUxgxn/AMhkUAX/ADrf/nrF/wB9r/jR50H/AD1j/wC+1/xrI/4Rfw7/AM+h/wC/03/xVH/CL+Hf+fQ/9/pv/iqANfzoP+esf/fa/wCNHnQf89Y/++1/xrI/4Rfw7/z6H/v9N/8AFUf8Iv4d/wCfQ/8Af6b/AOKoA1/Og/56x/8Afa/40edB/wA9Y/8Avtf8ayP+EX8O/wDPof8Av9N/8VR/wi/h3/n0P/f6b/4qgDX86D/nrH/32v8AjR50H/PWP/vtf8ayP+EX8O/8+h/7/Tf/ABVH/CL+Hf8An0P/AH+m/wDiqANfzoP+esf/AH2v+NHnQf8APWP/AL7X/Gsj/hF/Dv8Az6H/AL/Tf/FUf8Iv4d/59D/3+m/+KoA1/Og/56x/99r/AI0edB/z1j/77X/Gsj/hF/Dv/Pof+/03/wAVR/wi/h3/AJ9D/wB/pv8A4qgDX86D/nrH/wB9r/jR50H/AD1j/wC+1/xrI/4Rfw7/AM+h/wC/03/xVH/CL+Hf+fQ/9/pv/iqANfzoP+esf/fa/wCNHnQf89Y/++1/xrI/4Rfw7/z6H/v9N/8AFUf8Iv4d/wCfQ/8Af6b/AOKoA1/Og/56x/8Afa/40edB/wA9Y/8Avtf8ayP+EX8O/wDPof8Av9N/8VR/wi/h3/n0P/f6b/4qgDX86D/nrH/32v8AjR50H/PWP/vtf8ayP+EX8O/8+h/7/Tf/ABVH/CL+Hf8An0P/AH+m/wDiqANfzoP+esf/AH2v+NHnQf8APWP/AL7X/Gsj/hF/Dv8Az6H/AL/Tf/FUf8Iv4d/59D/3+m/+KoA1/Og/56x/99r/AI0edB/z1j/77X/Gsj/hF/Dv/Pof+/03/wAVR/wi/h3/AJ9D/wB/pv8A4qgDX86D/nrH/wB9r/jR50H/AD1j/wC+1/xrI/4Rfw7/AM+h/wC/03/xVH/CL+Hf+fQ/9/pv/iqANfzoP+esf/fa/wCNHnQf89Y/++1/xrI/4Rfw7/z6H/v9N/8AFUf8Iv4d/wCfQ/8Af6b/AOKoA1/Og/56x/8Afa/40edB/wA9Y/8Avtf8ayP+EX8O/wDPof8Av9N/8VR/wi/h3/n0P/f6b/4qgDX86D/nrH/32v8AjR50H/PWP/vtf8ayP+EX8O/8+h/7/Tf/ABVH/CL+Hf8An0P/AH+m/wDiqANfzoP+esf/AH2v+NHnQf8APWP/AL7X/Gsj/hF/Dv8Az6H/AL/Tf/FUf8Iv4d/59D/3+m/+KoA1/Og/56x/99r/AI0edB/z1j/77X/Gsj/hF/Dv/Pof+/03/wAVR/wi/h3/AJ9D/wB/pv8A4qgDX86D/nrH/wB9r/jR50H/AD1j/wC+1/xrI/4Rfw7/AM+h/wC/03/xVH/CL+Hf+fQ/9/pv/iqANfzoP+esf/fa/wCNHnQf89Y/++1/xrI/4Rfw7/z6H/v9N/8AFUf8Iv4d/wCfQ/8Af6b/AOKoA1/Og/56x/8Afa/40edB/wA9Y/8Avtf8ayP+EX8O/wDPof8Av9N/8VR/wi/h3/n0P/f6b/4qgDX86D/nrH/32v8AjR50H/PWP/vtf8ayP+EX8O/8+h/7/Tf/ABVH/CL+Hf8An0P/AH+m/wDiqANfzoP+esf/AH2v+NHnQf8APWP/AL7X/Gsj/hF/Dv8Az6H/AL/Tf/FUf8Iv4d/59D/3+m/+KoA1/Og/56x/99r/AI0edB/z1j/77X/Gsj/hF/Dv/Pof+/03/wAVR/wi/h3/AJ9D/wB/pv8A4qgDX86D/nrH/wB9r/jR50H/AD1j/wC+1/xrI/4Rfw7/AM+h/wC/03/xVH/CL+Hf+fQ/9/pv/iqANfzoP+esf/fa/wCNRS32nwKWmu7dAP70qA/lnNZv/CL+Hf8An0P/AH+m/wDiqli8O+H4iGWxiYjkeYXk/RyRQBVm16W8ZrfQ7d7mU/Kbl1KW0X+0S3X/AD1q5pekrYmW4nlNxqFxzcXDf+gJnoP8+w0UjjiUJGiIg6KihVH0A4p1ABRRRQB//9k=;" vertex="1" parent="1">
          <mxGeometry x="450" y="86.86" width="320" height="118.14" as="geometry" />
        </mxCell>
        <mxCell id="8J9FziU4pGV4N6TT8qJt-20" style="edgeStyle=none;curved=1;rounded=0;orthogonalLoop=1;jettySize=auto;html=1;entryX=1;entryY=0.5;entryDx=0;entryDy=0;fontSize=12;startSize=8;endSize=8;" edge="1" parent="1" source="8J9FziU4pGV4N6TT8qJt-19" target="8J9FziU4pGV4N6TT8qJt-10">
          <mxGeometry relative="1" as="geometry" />
        </mxCell>
        <mxCell id="8J9FziU4pGV4N6TT8qJt-19" value="nuetral allows for diffusion accross membrane" style="rounded=0;whiteSpace=wrap;html=1;" vertex="1" parent="1">
          <mxGeometry x="790" y="350" width="120" height="60" as="geometry" />
        </mxCell>
        <mxCell id="8J9FziU4pGV4N6TT8qJt-21" value="- or + ion allows for different forms to be active in different parts of body" style="rounded=0;whiteSpace=wrap;html=1;" vertex="1" parent="1">
          <mxGeometry x="780" y="490" width="120" height="60" as="geometry" />
        </mxCell>
        <mxCell id="8J9FziU4pGV4N6TT8qJt-22" style="edgeStyle=none;curved=1;rounded=0;orthogonalLoop=1;jettySize=auto;html=1;entryX=0.997;entryY=0.633;entryDx=0;entryDy=0;entryPerimeter=0;fontSize=12;startSize=8;endSize=8;" edge="1" parent="1" source="8J9FziU4pGV4N6TT8qJt-21" target="8J9FziU4pGV4N6TT8qJt-10">
          <mxGeometry relative="1" as="geometry" />
        </mxCell>
        <mxCell id="8J9FziU4pGV4N6TT8qJt-24" style="edgeStyle=none;curved=1;rounded=0;orthogonalLoop=1;jettySize=auto;html=1;fontSize=12;startSize=8;endSize=8;" edge="1" parent="1" source="8J9FziU4pGV4N6TT8qJt-23" target="8J9FziU4pGV4N6TT8qJt-21">
          <mxGeometry relative="1" as="geometry" />
        </mxCell>
        <mxCell id="8J9FziU4pGV4N6TT8qJt-25" value="&lt;div&gt;weak base and acid activate&amp;nbsp;&lt;/div&gt;&lt;div&gt;at different sites&lt;/div&gt;" style="edgeLabel;html=1;align=center;verticalAlign=middle;resizable=0;points=[];fontSize=12;" vertex="1" connectable="0" parent="8J9FziU4pGV4N6TT8qJt-24">
          <mxGeometry x="0.1619" relative="1" as="geometry">
            <mxPoint as="offset" />
          </mxGeometry>
        </mxCell>
        <mxCell id="8J9FziU4pGV4N6TT8qJt-23" value="different parts of body have different ph" style="rounded=0;whiteSpace=wrap;html=1;" vertex="1" parent="1">
          <mxGeometry x="780" y="620" width="120" height="60" as="geometry" />
        </mxCell>
        <mxCell id="8J9FziU4pGV4N6TT8qJt-27" style="edgeStyle=none;curved=1;rounded=0;orthogonalLoop=1;jettySize=auto;html=1;fontSize=12;startSize=8;endSize=8;" edge="1" parent="1" source="8J9FziU4pGV4N6TT8qJt-26" target="8J9FziU4pGV4N6TT8qJt-13">
          <mxGeometry relative="1" as="geometry" />
        </mxCell>
        <mxCell id="8J9FziU4pGV4N6TT8qJt-26" value="" style="shape=image;verticalLabelPosition=bottom;labelBackgroundColor=default;verticalAlign=top;aspect=fixed;imageAspect=0;image=data:image/png,iVBORw0KGgoAAAANSUhEUgAAAO0AAAAfCAYAAAALF0qdAAASDElEQVR4Xu3cA5AkzxIG8Lq/bdu2bdu2bdu2bZvxt23bts333q8icqO3r2d3Znfu7W7EVMTG3c50V2dl5ffll1l91+8//xupNVoeaHmgz3igXwu0fWavWoa2PJA90AJtKxBaHuhjHmiBto9tWMvclgdaoG3FQMsDfcwDLdD2sQ1rmdvyQAu0rRhoeaCPeaAF2j62YU7o+vXr18esbpnbTA80BNoImL4UOMVj6P93sDfip7j2559/Tj/88EMaY4wx0kADDdS212F7cQ/iy//3upoZgK25GvdAQ6A1fSOB2Lg59d0RNlx//fXpjTfeSHvssUe+8ffff08nnnhiev/99/PviyyySFp55ZWbanOjxPXpp5+mQw89NP3zzz9p+OGHT/vss08adthhay50iy22SJdcckl67bXX0rjjjpvOPvvs9Pzzz6e///47zTHHHGmDDTbI99YL1F9++SXtu+++6c8//0yDDDJI2n333dOYY46Z53j44YfTrbfemj8bYYQRmuqn+nay71/VGR46+74rHqgLtPFggeRnqaWWSkMMMURXnte0ez788MM011xzpfXWWy8ddthhOeA+++yz/JkAn3feedOiiy6aNtxwwxzgL730Uv6JgPfZ+OOPn2aaaaY0+OCDt7PL3E888URafPHF03DDDdefzc8880z6/PPP02KLLZaBEAACUPctv/zybVny3XffTfvtt1965513MvgeffTRNOOMM1b64csvv0yzzjprXsOll16a55h77rnTCy+8kJZeeuk022yzpR122CF//sorr+TP/d3z/Yw99thplllmabc333zzTdptt93SRx99lO6666504403puWWWy4/3zoWWGCBdMopp6T111+/aXvTnYkQ72233ZaJBUkZEX/I+PHHH08LLbRQGm200XqcZMSJ/ZQcRh555P6IlK1iotl4aQi0W2+9dQ4mwT/OOOPUzfbd2cSqe23i8ccfnw4++OB09913p5lnnjlf9sknn6R55pkng+Lqq69OAw88cP78r7/+SksssUR64IEHMggFuMwnQID23HPPTVNOOWXbo4499ticEe+9994055xz9mfC/PPPn1599dX07LPP5mwY45577knbbLNNBmeZCK655poMjIceeig/s2qcc845abvttku33357mm+++fIlAPzxxx8nARIBbD1rr712uu6663LWts5///03r2fyySdPZ5xxRlvAx3Ps2fTTT5/vWWGFFXLAGwCMgNjV00TMHiQ33XTTZcK89tpr29yE9JZccsn07bffpgcffDBNNdVUzQ6rhuc77rjj0i677JLVCtvKwxqoGeQ4xRRTNDx/rRsaAu2WW26ZwfDkk0+mCSecsMdA+9tvv6Vlllkmb+B9992XpV0RtNNOO20OzgAtaciBAp/9APXHH3+kW265JR100EEZIIAy2GCD5TUdddRR6cADD0xAOPvss+e5i3IUaCkOTDrRRBNlAPi5//7704477pizrblkwcgSyG6zzTarBC0CYY8MYm0AFBkeaCkIQRvzWc+6666bSeiCCy7IBEpd8MXee++ds7Wsap3A7D42ISAlBSUQ48ILL0ybbrppJr8giqZFV4MT8VWAVnayVwbfKHOs7+KLL04rrbRSG4HVWyY0aEpdlyvFdtppp6wMqK6yFKb0ZOIeBe1WW22VrrrqqgxawRrMX+U4geXHQgSPIC4P3wkqgVr+dwuuL2eruJ/UIxUB96yzzsqAcj8pQk5iaqAlXWPTZVrB/9xzz6UhhxyyzZQFF1wwy0xZc4IJJsifAy0wy7SeUx6k9+uvv56BwA9HH310DnpS9M0338xAByJqYIYZZsi3Ay1wRKYt+oztbABaYHRfNKEi05KGZdA+8sgjeb7YC/4m1d5+++309NNPp7HGGqvN9FqglYGR0DrrrJNOOOGEds2v4rrLARn7VW6QVUU7Uvr111+z3xEppQCI9if2IuZHTvZP5qJOqAfyngpBpDJb8Znuc41n8I/5olxopJ6Ma9llrqGGGiovRU9AjIbtxX3jr5133jlnWvFVbnoCsj2yF0UlVxcjdHBRQ5mW9Lviiis6Ba0MoIFCQlowg8k5ICsCHciOOOKIHPwCrjjItv33378yiG644Ya0xhpr5IbNKqus0uasRkAbmyTrhGPrBa2MJNOG4vjggw8yYDEqwMkG5ieJhhlmmLysyy67LG2yySaVoPU94GuoIQrzR3AEaD0jyCkybYA2VA+ikIUQkB91Xww+NhcyK2bar776Kn9O5lMeEazlmPn+++8zucYogpZdlEHVva5TLiAsctI1Rx55ZCYWdSD1wWZgNk8ZtPypUQYcyiFAj71T11900UU5fnTchx566KwmqB2E1QhoY12aho899liiQMQwnyAcyWDPPfdsR4RsQyKuAdpy8uoToBU0p59+eu5WjjrqqLmu4mS63mZY5Pbbb5/9IwhWXHHFnLGAWWYlUdVvfl999dXTqquuWinBSZKTTz45vfjii20MFplWTRvyuJxp1bwkLdbEpkBHdnEuMgqnhzy+6aabcn1cVgHLLrtseuutt9oybWw4+SZgzDvooIO2gcy8RdBGDR73yTyyHZZHeIAeAVcLtBpwsqwMD7TWg9H5FOhlqWKTrAhahBhrBcSFF144lxpIAJDKI8iAbeUhu/le6cRvVRmZnVSEfRULmmUIxd+/+OKLLPHttSFO1N5AQOqTyZTL+eefn0YcccR287Ob6pp66qnzfKS1etf+UITFI7POslvYjVyA0JzmVmogBKXSZJNN1tYkM19kWntL4cQc/vRssSUWelQed5ZpZR9yk1wDAh1AwcGZnI+xXn755TTSSCOlm2++OTOszVhzzTXzdQAl4ABfVorFFx3uM/dxBqlb7CJGI6oIWtfLTIIAg/ouJNp7772X60EdVYEfKkDw7bXXXmm88cZrlz0i01mPzMLeuM+9shu5ftppp/UXMAFagRqNqNhkn/EbUuPjqEPNWQu05Cy7p5lmmkwQgK9m51t1q6ArZsOnnnoqk6jmjkwbawE4gXrnnXdm/+iol0fId1m5apjLnodML18DtPYVIWj6qfWQNMK2bnuIMPQmZGAlhX2hXiaeeOJsW7GLH34j7UcZZZQMZj5AQBSd5/FFqJwqm6vIxTr4go2adeKQP/kWgZx66qm5ybfRRhvlKdW0FICs7jgPcRZ9zga/9zrQRqBb8Jlnnpl0mNUfOqURGP7kAN+RHeo2LEUOkjg2xvjpp59yXSlw1S9V8kaQIQA1nsxiM+O6zkDreowf3VYsj0RkvvPOO68t6AK0srZNK2daQWFNIY87Y3HfV4HW55GlsDsSKIOmo0xLCcjQURc6MkJk1IEaOuS+59QCrUCTJWVm60ICZZLsbrPHvOykkI455ph2gU0ek6HWLqNGpgVcZCvwlUNx/FPla8lA7WkoTXT+SXKZsTwQojJKHRzrkhWVB5QJ0IoFexuKyP7zH/vELkleBK2+h5dhiplWjFm3l2V6JWjDMbvuumveFB0ztUWRdUKebb755jkT6W4CX2RVc8jOMgjwb7zxxpVYwHrOLG0mxwZoXWwzOpLHGlGAK8jZRo4iEZJW9rYZGLvYiCpLWc9xtilLdAW05UYUm2QhGVtwluvCjkArQ5Oske0F4pVXXpm8oMHGO+64I/tQcFaBNkhDgxGpmKtqvR2REj9WKaK4x3fWzB7ZSl1aJGPxotFk7WR7gFYjyvkxKY3YzDHJJJO0MwXJy37IC4lHUxPYlU6TTjppf6b/+OOPWWn4PkZ01ykFoBUT4kRDLGxF8J4vvnSLDcpIzHu+04ni4HOf9Xj3uEoeFw3FpBZC6gg2IxaNSS1Y4a75pHZ1DSeSIuSSJgn5ivVluAi44jNsoA0lUTFYvMkToO2oe+w8koQtdo9lZ6ABFkFLamkK6R7HkU8547s+usdFedxRcNdqRJF+1k9qCZjy6KwRBbiRUSNzyFL8oxHohYsyaD0vBn9SQGQzYFR1OV2jx6B+Lo94pmx9+OGH16xpgVavo6ygxIJShNJA4kXQOvKR9WRj9SEwxVkywK611lq5LlbDWjNb7K/4qQVagFY+iL84EhR7koUEIFmosXXzi6pDnDgDtw62GtRinNOWQev7XnHks+2226bLL7+8Xfe4uIm6g5hHnUpGFGWVFxZ8h/0txkbZFEzLSSSOYOI8LwzUqjmwqVf51HMcK2AjozfSPQ67AdkRjuMloFV3dXbk00zQWi+mBjL1WaOgLR75xL2aJ/oLpH8AOuRdvFwR18rOACnYZYXiyyJxDf+S3eR31bAnAjrKnOI17gUsPrP/5WaVOKGwyFl1eLERBXzm9haYjKqLrLsrrpCdPsUBBxyQMzgAepYTBSCvBdoq+4uxppeipuWP4ptrUZdTJWwxoqZ15FMEbcwX3eMel8dAq0Mnw3CoEedjFgqQ2BpDRhYijQWGgl1gYDY1r0DiZEAhS/1oHhQzYTFw/N2GkVheDdQ4Uet0VNO6B7tyYMjj6M6qg9R+mgmrrbZabiKV5XHVOW35yKcykksfVtW0JB35J4soCaqGTIvlXRskSNYL9jjyUQf7DvEBJXlsvbJnZJNaoKV0KCC1rcAMhVPPmuq9BmgRoxMFxz2O6WRMMlMXnA80Ju27RpTucZzTeoaThmg+qll1yL3Ioj+BCLzGap06+kDFLwi9Sh53ZnOAVqebahTD3333XVYjbEQw8RpoyOM48inP3SuOfNSjWMj5Y/GVNwU8kPoc8wGVMzMBBzDARWLJslrjhna6YInX84BFhsXWpCkWLTN2gNZZproW65LkMaoaUQFaz8V4kVURjgAhc9ktCEYfffRMAALrkEMOqflyBbv9Q4Wu1LTF7rHaXj1n08muYtc41tQRaAURWwS7e0m+yDBs09GMUQu0sQ+kIJA3+1VGdgGRRpS9jXNYjRvKxp4rQ5RFfB9vRNn/4muM9o4vqBHJgZTVeZYQyGrEL758zg9URlXmrwe0CFZHW2yKG6cMYgWQHSVFUolzWvvAhl4F2jAGi8u05W6qzKlWwWwYW5PJmSu5KgMo6Elf74v6HYBJHbKY1NXlI9OcFaqbSDEk4AWKquHoQYYlychkgDdqgZZNznUFT1EKCWqZVGMCYGPYfE0ppBBZrGgHiYfV1b4BjM46rPFGVIBWlhcE5HkQRmeZNkgLEHTo2RnP9aeA1UhS45Vlbi3QsgdAlCteHuhsHZ0FfdX3wAlg5vcsMURqy2LOZ2XaeNvLMQ/lo0bVICwOe02ZUSZiA6jEEICKAQTGp9aiHCu+XFKv3TKtvedbROGHbUjV0aRkFPsgznW+davFeHmID8dSSsCu2FLL5rreiKp3wfVeh23VCySzRReHFxRkUfWzjFc1dJBJLOAWdM5TgTFqWvIKS8fLFfXaNSCvI+solQAt0GuakeUIpRZYZBfA5rPuAKoWaL11Rl4Krma+1B6+LHaPBTcVVRzFEwafVx3zVe1LlSppxv4FaIFV9u/qqHcdXZm/IdA2y5B4dU7zh5yWoQFM3eYICHCxakjpqoWRKepiUkaNY8i0gEAWnXTSSbmGipcvgh3rcVI5kOq5p9Y1VAV5pdmke6pulA1lAoDB6GyuFbBA634KhAQkK4uAKJ6Fs1swRx0b1yEINR6CKP4rHx1Y81NAlEAolu6st3xvR6AtnmtW7U934q2r9wItgnXkE5K9I7Ls6nO64+OGQFv1oFpGd7YYzK+9rqaK944FjSMKxwAkXkds6u0XjQjd0ZDsztLUTuY0vLkiizUC2O44s+pemVVnkT+UEfECg4aJJhC511FQIC7NO8N6nWc2oiAAHknEywQ69po8nkmNOKpRU1c13JrhC+tmv6aM+h1RFUdncVJFAlX+anSeWmvTcCK51crlF02a4Y9mzNFt0HbVCIAUtJoGunOGmozUdfZajxQUkOpgQRlZhszzrqjf1aPqpmZtaFfWqnYltQyk5DgG6Ej8+KyjeZ21fv3113kN6m51vL/X+14tQpQ1PE8G9gqlM+koJxCcz6r+FVZX1lt1j7eCNI+8vOAEoV7bm/X8RubRCFNmlf8zgUbmGNDX9hhoLayrWbp8b7ExVgb7gKp9Gt0YdrCtHjKqmru7kr2j5w9IHxX3uCfJs9H96s3X9yhoe7NjWra1PNBbPdACbW/dmZZdLQ/U8MB/AT6n4WdS9ToVAAAAAElFTkSuQmCC;" vertex="1" parent="1">
          <mxGeometry x="670" y="220" width="237" height="31" as="geometry" />
        </mxCell>
        <mxCell id="8J9FziU4pGV4N6TT8qJt-29" style="edgeStyle=none;curved=1;rounded=0;orthogonalLoop=1;jettySize=auto;html=1;entryX=0;entryY=0.25;entryDx=0;entryDy=0;fontSize=12;startSize=8;endSize=8;" edge="1" parent="1" source="8J9FziU4pGV4N6TT8qJt-28" target="8J9FziU4pGV4N6TT8qJt-21">
          <mxGeometry relative="1" as="geometry" />
        </mxCell>
        <mxCell id="8J9FziU4pGV4N6TT8qJt-28" value="this is called Ion trapping" style="rounded=0;whiteSpace=wrap;html=1;" vertex="1" parent="1">
          <mxGeometry x="610" y="610" width="120" height="60" as="geometry" />
        </mxCell>
        <mxCell id="8J9FziU4pGV4N6TT8qJt-31" style="edgeStyle=none;curved=1;rounded=0;orthogonalLoop=1;jettySize=auto;html=1;entryX=0;entryY=0.5;entryDx=0;entryDy=0;fontSize=12;startSize=8;endSize=8;" edge="1" parent="1" source="8J9FziU4pGV4N6TT8qJt-30" target="8J9FziU4pGV4N6TT8qJt-28">
          <mxGeometry relative="1" as="geometry" />
        </mxCell>
        <mxCell id="8J9FziU4pGV4N6TT8qJt-30" value="Acidic drugs accumulate on the side of the membrane that is more basic" style="rounded=0;whiteSpace=wrap;html=1;" vertex="1" parent="1">
          <mxGeometry x="480" y="700" width="120" height="60" as="geometry" />
        </mxCell>
        <mxCell id="8J9FziU4pGV4N6TT8qJt-32" value="Basic drugs accumulate on the side of the membrane that is more acidic" style="rounded=0;whiteSpace=wrap;html=1;" vertex="1" parent="1">
          <mxGeometry x="640" y="730" width="120" height="60" as="geometry" />
        </mxCell>
        <mxCell id="8J9FziU4pGV4N6TT8qJt-33" style="edgeStyle=none;curved=1;rounded=0;orthogonalLoop=1;jettySize=auto;html=1;entryX=0.574;entryY=0.967;entryDx=0;entryDy=0;entryPerimeter=0;fontSize=12;startSize=8;endSize=8;" edge="1" parent="1" source="8J9FziU4pGV4N6TT8qJt-32" target="8J9FziU4pGV4N6TT8qJt-28">
          <mxGeometry relative="1" as="geometry" />
        </mxCell>
        <mxCell id="8J9FziU4pGV4N6TT8qJt-34" value="" style="shape=image;verticalLabelPosition=bottom;labelBackgroundColor=default;verticalAlign=top;aspect=fixed;imageAspect=0;image=data:image/png,iVBORw0KGgoAAAANSUhEUgAAAi8AAAF7CAYAAAAaI2s4AAAgAElEQVR4XuxdPXgaR9c9ruCrhCuRClKJVFIqkUq4MqmEK+PKuDKpjCujjk6kMqqCK5PKqDKqjKugKrgyqoKroCrrKuvqRZW/M7szsOwP7AJSJHl4njyxYHd+zr1z58y9d2bufOUH+qMR0AhoBDQCGgGNgEbghiBwR5OXGyIp3UyNgEZAI6AR0AhoBCwENHnRiqAR0AhoBDQCGgGNwI1CQJOXGyUu3ViNgEZAI6AR0AhoBDR50TqgEdAIaAQ0AhoBjcCNQkCTlxslLt1YjYBGQCOgEdAIaAQ0edE6oBHQCGgENAIaAY3AjUJAk5cbJS7dWI2ARkAjoBHQCGgENHnROqAR0AhoBDQCGgGNwI1CQJOXGyUu3ViNgEZAI6AR0AhoBDR50TqgEdAIaAQ0AhoBjcCNQkCTlxslLt1YjYBGQCOgEdAIaAQ0edE6oBHQCGgENAIaAY3AjUJAk5cbJS7dWI2ARkAjoBHQCGgENHnROqAR0AhoBDQCGgGNwI1CQJOXGyUu3ViNgEZAI6AR0AhoBDR50TqgEdAIaAQ0AhoBjcCNQkCTlxslLt1YjYBGQCOgEdAIaAQ0edE6oBHQCGgENAIaAY3AjUJAk5cbJS7dWI2ARkAjoBHQCGgENHnROqAR0AhoBDQCGgGNwI1CQJOXGyUu3ViNgEZAI6AR0AhoBDR50TqgEdAIaAQ0AhoBjcCNQkCTlxslLt1YjYBGQCOgEdAIaAQ0edE6oBHQCGgENAIaAY3AjUJAk5cbJS7dWI2ARkAjoBHQCGgEvg3yMjZhmGPEk0kkbpnMTcPAOJ5AMhG/ZT3T3QHGMA2T8k1SvhHwMA0Y4zgSfElrRQTcfB7V48sHlFtsT0Nri8YgNFSX9eDayct42EV7lEYxn7k2hnNYSeOHo3Pcf/MV3eJlQflflNtG/s4jvE89w1+jBjKX3QSzh3q5gUGujnb50mu77N5c//KHFaR/OML5/Tf4GkFx2/k7ePQ+hWd/jdDQYpqRs9mro9wYIFdvY7EKX934CrabJgbdDox0EfnM9aCi19WeRpPtasP/umKwWq9u1ttrJy+24byPN1+7uC484eYrGj1Hxhh0HblW4JdkXK2Vu6jO5alq53Hn0Xsg9YJkqX75ZOlmjaX1t1aTl7VjatsnocJ/YVRXzO6Kx5dPr/ztpol2Psn2XmD78G8Mqum147FMgdfVnvrLdpkeTt8Z0xaaPl7M64rBar29WW9r8nIT5CUnMS6lMZpZSl8OebEHJnxW7iN0Wz2YmQKK2ShxjJsA8jVsoyYv6xfKqItWz0SmUMREha94fPl1yo+8DDgOf6THOEbPm0HP23UZcdd24vaT7YoaFLQYv7YYrNjfm/S6Ji83QVpXbFyDyctNAOsWtVGTl6sR5hWPrzDkxaSXM0kX0QVDwh8ZEt65GiRC1fItTdyavIRSif/kof+GvIyHaJWKqHWHOP9yAcQ2sJWrotGqgl7S2c+ohWKhhu7wHF8uYkhtF1Brt1CS8V+jyxh2tYme9bsoags5/t2u5iYrlbCDLUxZRiOHTA2oDTvYaRVRrr3HJ1Hv1j6ajE2X3J5do4t6qYJ675PdvtQ2CrUO2s4HBR7FAipd9cwuyq0uGrkx/8ugNhjji8Rpwwp777D+HirJqeflYz+HZr6M1tlnXMQ2sVtuo8u2uldroo+lSh29T19wAYlnp22322ggx84Nxl8klht23tJODcNeBUn5+6jYwaiZm8pJ5MIUy7KPMWxs5VBttFBVwgzsX/BaMpIsBi0kKjmUT86BzafoGk1YrVN61jnDeYBuzCpbD+V0Ae0kMegz32Ty4xD1nSzqcff3Jlr5NCrDIjqjaHWG6R98ycsA1R3KesT/jA6KPmkQk5yXj33kWwWUmh/wmWNnc7tEHW2i4BxjAqNKCfX2AJ+Ejrl1QmIwHopxWEFX6c0uda1LfXGIcK5uKSyX0IUZGQnZZqoYFdoYtfIOHSQWOyX0c67v0Uclk0crWacOl8EBxfE7QrEzQjNnrH18OdvaK6dRGJTR75cwqkzlsLGVR8NlK2YmSZPjOslcNjD8TvtRdA6TkPLytKOdpB0hFi771K9kqCNJ1GlPykkD3XoZ1WYPw3PbPlhjudlG1SForz2V4ybbgtkuzIirw8aX+o7xIX+9DF2xbbOSrV2RJYNunuOTOkMbW6UtsMYC9bft0t+ZhlNX0tQx44vAQcwrti1MSNs3xeB/qBmUbXUN88CsMRKtt+xRN9/BgPXmi0f48DmGvZcj9CpJmrcWKiXmHw7seYOTC7Y5V3bapantkjabEwY6OxzD5Rre2xMW9ptddGYmrDGGnNMKla5lC1Sf7WZl0aBnqyR1MZT8PP1Z7xf/AXkZcAD9CHpDkdp9ijKVa9RqoX1KASCFF0wynISiB5xAfmTCIr/ffVoGxYh25xRnn/fx9muHSllE/OdjJLb3USwVOKUP0G4c4T3LdsaIQ5GXSGWZSKXGOD9PYnd/h5P6ACcfWGmM7eKEUlDGhhNaNvMLPmALD2uCmAnjUMcxJ4BpzJ393fkeB2eb2D+sc2Jhgl67gWa8jnEnj26VE05/gO6pAGwP+R1ReBLFZhNFRV5I/jYuvgBbezTsoJE+pfK54/og4cgi88sHPvcQtSpXdoJY1Y/5rMQ92UW11ER/0IVdXR52dUU0m0Uk/SZTZWgvSED3SyRBBjqdDj4QG1uW8/oXkBW1lCwS2N5Lw+wn0RhTBmLgJ+/h1edN7D2rosSlq8D1iMoR238Lo1PwdcPbk8g2Dv8hSVCTvFHHzncHOIPre0jyuPsb/u2XWV7IOkP2z0te2KbMj/j1U4zJ59SlmVltahjsPnDi2bjgmNrCHpUiMdFR54RoUPe+w8GQ46tURjmbZHiijvoxx2LsId6N2T9RLPObdr5n/zf3cVgvIGmKcdZEvD5GR4pwoW5Z6SVL6ILH3g1pP37AkeFon3hGYnrhbLf4Xuqs+fgPmK0c/3Qm75trHV/uplpyGOzhfvwU7w1inHfailliMiUvdfQt+8iE649MuJ5xuYSUl7chVq5ayhN2JjGK/4zjpJ3wPyIT/vmY42i/iFLBGjBoHL2n/aXe/03dS9sFe+2pHAc+ieV+novL0hU/O6+IfCp1jnPTHgs0kDi1DWRw7t6Q9rXaxbB/wvlmk5hkbULARXankp1gICb4iy+JNcwDfhO7WpymkDo/h5HaZahzBDPfw6DCxTNt0pDflcplZB1zS+zhO4zpuZPCspL+zVQKY5aR3N3HDp8dnHygXGPYf0t7LScsFaZM7R+ixhWO0anhgAvCGOvI73Bx3alai8Jw8lsvUfEr7crJS7+cxE+vTOy9NtBTNI4tG4vJ5MEJLvY4EZD1JsBVEQ3r8zP3IDbRa3SRrBSRoRHtGxkSBOfyUwp8+xD/DKqc5v0Gmw8UEctiIBqvBROVE1yP/7j3+2f26yv7Jco3ubK7i19Od/Hbv32UJ6snMaGTrIxIdMQkKydG49lHOj4CnMOL3NqsLfXsTwwbWdtTYpI03SVp2qTLmczbKpXf5fjd6WSilRiIxFtOTCNO6EIGU+Pkk/PiQ156NHj3juGZTEetJoaFMvJje+Kf2z+3OKLKguTWbehtPQMe/2GAc9bk0ynE8eAkTWM8nBhjZ/UmCd5dErzd3/5FXwpNfSee2z78h4mTUuhywtyRz4auM2T/ZslLXiZverF2w6cSF6kU+HPYQFYOD2WcNp/+CYP9FJ9Rv494NmuNE/WxJwEDD9+NWScdcvUdfHdgEGMxJv3GTkjdCqPrIWyesBv3fheypedLytb+jhMSDbJqtyjKbvto8qzvQmYd48un3UFyGLFN3x+c0Uk4lYP97C7u3x/gPROKg8hpGHl5m0I7E3+AE0lSJhvQpP6mmQw8JDMx6ZkxMlzgzJhTO0nfqfcrkZewdmgJXQkmL5aBdIwF2uYsbfOHzWCdliAuChutbR7w1Xs5lwmt9uQ9jejRiyPLBYdj5HqJvbLZHBf3XzNncTphIclB9HnvNb5aE5YksjsvuRCryIWdnMP6joVCWPmFGMerPnLF5KVHt9M9/I7H+MNs2a79qcm0gT+XO5XUBOyebBf2WK7MMN0+HMrz4ltucFlTkiJfpJcoSS9RfLK6Yf/uPMHpRDnck8NYDpxp6Mc50cxCY2+ZDUzYdZIU+WIrdwdPTh27vmjl7zw5dZCryVRl4z6eEp3AnBcPeZknT1V+iP4tlKl4IFgWuy9JNCpO3zq9e0muXqkDE/I2aY5tjD3yU78rvXOsIi0DZtzH/dF7vM8oLwudutaESSJkeWlWqNOq29u/KXl5ibeJOh4cm3M9LtMuionQxzCrvjmIvb/NtDGaHC0gd5nNEGTni6F1a026QGOboOFNTMaajV0zcx87nPmH0stiLSDEJDWYGt+lyEuY8eUDpD3xhZODm7y4F3dzh4iUz7yjIGzSnpxJwu9anpZgIm+rpdf2rEReLlFXgsmLjwxkOxYdn7GIvKxvHvCTsBwvG37zpb9GeNqrbLZnHpL2Kq7mSbuuocs7Z2OaxG//4wJckNrQ8gtl1Fd66IrJixSGz4QuejFzPgXsQTOe55Gwui7OQWgyrMFVw+TvU5w7VhnhycsKZbkHuVIaEdJx5yXInBI1cAbVDH789RNbT/fkQ+b+MO6cSzteWrQy9Dnnxa3ECoPZOKatO2MrrjslOuHJy3x5Ks1c2D9fFV5BFiqcI2L2bvAl9l4XumqEdM2fKTzsFUm//BdzTHZo7HPyGABJ3NLKw6dWSWHrXNy/CXmRTdugO1gkci76BJ/zItucmD0XaDzqWWGgzoj748Vn1McJc6emhl2Fq4SKbuNhtcHzfnJQKhpFt5bTBXePZ8MdGblKT775m+e30Ktpyv5JsjZwuNGXIi8hxpfv1BN43o5XDtPxWkFHhHIu/MJGcrwulJdPa1SocuLtkRhmph5q23wyRM2QdLNvW1Prb8aQk45JbRXycpm6Mi9s5DnzKAThE91fRF485GeFecArtUW7SccY9RjaazIHcTJ0RZjLsWgNTPp3L5Z6tHP3cJxmKG2ojsGQKR6OEG0U+S2yU6v+/t+Ql4BDt/zIi9fb4Ogy8y0K6Uc4+cLE013mZ1geNDEpLEFeVi0rQGnNvRdolPxOCksiV8pPEqvGQybFVapoMidD5F5tvfiIId3L1mdt5IXhuhcNJjv7qE0yhxKTT+3qArZKewZCcKzbXcPc/rkfXlUWirxsPcZrJm57P/HZrbKuB+xQw9AOP8TFKp9udxGiMIRHomd/n7bJdVy63Gnm7AMDw9QZsn9Oz8vrcZWetMUho6nB9Tukzr3aYlqDIs4kJXvZtO0u9pAX8SWT+dpVVJgM/15kPzOX5sVHkcis9CWcblklzdP1kBbN9hpkLK9XuSNCfbDCs7ma0N2E7Q3r2fLaf8vcHJlHej3Ii1cOM5OkyvXz2WkUXl5uICVhij/Fn0x6zrpCnpblZLJt+tEJ851kfo715WWQl8vRletMXsLOA7NSm0depguKze09ZNO253lk5egsQ15E2liCY4qhV8sWJJg/KPJLZ/PrbIzDyy/kcF7qsSsmL5wE7jD26uOGZXTaTh4828PrrxxoaqJkLsZXZXlcXbQNWMKV17Bc2GjlstwEQyV5RjwdlRmTKGV/xu/njuTQNZAXe0I+C3XKcGTyEuXQOr/+rV2urpV51KHhSPLsJ0ocrDt2grhcyYuwxDBTIZ6mww0fvs6wujaT89KGvQNlzopcdTPY8yJDmSpspHTUHZpdsCo1uiVkf/4d57IcwWDC6taMKELoQqDoZBtFblKlcxePhjL5UoaUMvy+1ks6PGV2SdeDvLjkwHa5V/i+Z7wsKS+FocrJevqngUJD2M4sCR+TzK15T+pvgiEKwxHSjxI28gnxu/sVxQ5F1ZVrSV6WnQeszgeTF4WjMzfPesN9SGxYz4vIjfzuOeIv3qFIO9cTjrc4T8qv1VF0JEEtLb+oNjjE81dMXlQSq49LVK02Jgm7cjD5bBc0mGQ4ZpJh3xKUJDuTznpdsmHCRrbQVyjLM8gZI0z+hFemz3bHBYLxkAdZtjeEFqzcHiXmbpgkM1jNEAde2fWrnBxHYz0DQRFO7yp/POxjmMzau5Vcn0ByJJ9bWRaTZOllj8iXBHj8EA/TxziGynORORQj+b3hDL84dHvBsfxh++fZbTRnRe6EWCWKunNUVOLxJFE0QK9MJn7fff5hDtF1LRAi6NZiXQg67db9pgpZPsT+4Bi9gr2bSGwvtfLqduzvT7KzVyvMIy8rjS+fMR1aDn6TjsrX4ebAyQS1tLxk46Sc8PQFcq1fcZxVmyMcE6U7pO/JL/IjgNKTZMpNCLK6MRM/Mz+J3aIOT8BadWUW9MsjL+55Yc4mkDXOA/PIi7+NNtFgjtfzD0t4XugguMMNM7sv/+Y27HTw1T4ryC8EH4n0yCWRF8fWsklzMjy7pI78oGRnOce28bTZQIVngRjcb18pv8KZa1UpMuB/+FWc3cEtmq0aM+YHaNZr3O6asfIO0taOks9IPX7HLcg73A7aRTn/BCefWakjTh2GvNirkhXK8lmhTA6aYvtftgWD5UxuDhlTbqAxyKLdqyIjVpDVOF4SG/G7yb375fwBTvEQf3CrqjDHEyWO7eGQWGW5ldkoVqdbpUPF5KdHjW/uv0S7zt1aVnO6aDZ4X1G2jR5DCHZ1dsJmbO+QZ8VkGYYzuG3Qf6u0SaVPil1iSp47dNHXea7N8RglMYkPwvRvVmdXloUoTk30ol3cil/LiZgitwhyF1StZaLK0MXsiRT+bRDfOndaqJWH+N65W8R6O2SdYfvnd85LmFNXrUmzF0Ps4gJxHkfQbDKZnLpWfH6Cz3DsflM7B6hXL/tt6hNDrtSLwtGZFbpU8XxRXjX+Ei1LZ0yeBcFdZAeMYT38g1syhYaG1K0wuq6uoJjjcbUlpcii+PfsDiPbsyV6AOzRA9ObbvXz97yoFe5K42tWf+xhZF9FID4b8+QwedZ1rcrkGAK52EvLXV0L5OVtifpGkk6aVPGZzdeQi63PKTx+xyMUuOowupTzE6EzwpxOT/f2s6dKp2N7z9BplLi5kVvvX5F5bcR4RpXKE7Plpq48mGuHwuiKq6OXQV5UmamHb8Cdwmj102iUp1ulF+a8iB6rAwfnzQO+QgtenJo8Z+vuL6e00S/Rb9M2M7xX5zk2R2fWyJ1ezxPW88JjRuxjGGYbEttIIZOvod0qyV1oIeUXrIRr+2Xt5KVTuMOsdr/2Tc9wMXngmX3gzvS5WEoc8sbD0mb26XFbdCVPY/qB51XID+Ox+zxEyT5chwLL5nDwQf3K3JeHbVTMB3g+dOw2kiRo/+3XSezb28IVywoI7Yx4SFiufGIdkjb58BC57VILvWYeCVMcrlXEsfOBzV2SlD4PI5u+Mk10FN9t4fAvbvXNyDCcT9jGP9FshFbBPsxttjnbKPHY/2ZeuUlcirx1yCQuEi3+l/7hV5y7JharjzRy0iayfTwk75k8JC9k/2blsaIsZGF+eiYmuq37DXRomP1SfybtkCsM0tnZaxImWw83Idzvcsfx5LVwdYbrH/ev+uA9NR57r//HHU/eU+qsMTjg1lAeTFYhEZ4Mjw2hVz1U1d5pYVh5UMvOg+Op7ITu1bNoPjlCRl5kaj1T5DMOpdncJbHtVx0nv4bQrTC6IMmLhxj6mBRlwGeMtXhOESDsOcIidgFqQeS2BesZX7ONVOG7p6/L5LXz5RCUGDo5v0aO8WQIec2bHcR9Tt8fcIYSZ1JZ5yE5PoM6sjlHO2lrH7YrMB88n9mF4o+hW6dpp1/3eDBejlcc2IvN6alOa9IVV0f92mXPR67zwxw6smi3EZmHzKuUlUnbF6RHQfmJC+cBX6EF23dBAjvFHe5AdFhdjsl6toknTrwDbLZ3d6NMzh3Ls5ys9thnjomzsbiCw988eiRtfR9CfvOUcE2/rZ28RGmXfekV3/BcOOguRbqS6cxKJn3iEOoiwQQvEvQ5cTRKm7DOshwVT/ua4OWKPo2U9SIe8Lsoa23XsI/ZTZMpmIR+DmbqUjJfzD2gqjLjSFBGnh6G6Z9H7PKCyFXlquoO0p9IChLy4TB1XpKueWE0KOuAsWM9PJXdPFmbhihnvs5My5rzXKAuKGK24zobKSTmqz62tvFlN8Sde2TjN08OYTsQTl5hSwvSF99xvKDQoIsM/V8LYYeWsRvLdnzOe5bs5tnmkHUunAdCljN5TOrs4jl0fsG2hynue/6V59iNaeWh5pGoXQr7/H9KXsI2Uj+nEdAIfAMIyAMTE44DAm9yr4MTp29yr3TbbyMCgWf+jJlDlmYO2eQ8mOvTe01ero8sdEs0At80ApYB5a4H+4Ttm//R5OXmy/Cb6cHkKh6mNOzxKgQxAE1xiq+4C2qTx0MM6Um8XqNSk5dvRjt1RzUCGoGrRKDPpLViZ4cHvrVwzez+VcKg67opCBh9NLg1usO79AYjE4n0DnOgeFFnjTlv14u3WIhq8nJTFEu3UyOgEdAIaAQ0AhoBTV60DmgENAIaAY2ARkAjcPMQ0J6Xmycz3WKNgEZAI6AR0Ah80who8vJNi193XiOgEdAIaAQ0AjcPAU1ebp7MdIs1AhoBjYBGQCPwTSNwDciLyWu9u+iNEtjh6a87K58y903Lc9p563CngAPj1FNRDuUKU96lQm8fVDjvUL1LrT5K4VFwjVLuOp69Lm1bpz6to6zrgss6ZHxDy1jXQXCRur8O3YlUoX54XQj8x+SFN5om74FXCskPj6wWt/cG9G7M+xt6nQFvqBGfJMlOPvIWLpP3AnUGdgnxdA6F3JxLqCKiPDk90fPeAhIRsZ4wj4c5YyLMnU+qrjDlhWnX0s8E3qy9dImX9+KCW5kvr+LFJUeR+eLSln/Cq08jtMsVtBNl3qHEazMiFL0O3bwuuETo9g14NIpMXZd9sndmr45yY4BcvY3y3Ls8lodiHbqzfO36zVUQ+E/Jy+Rab+smS17QOBghsZPxMVw8NryQxqOTyQ1Hss8xXrnQx8B5CVAQGiaJUpZEyXXxFLZe4OOw7rijZVk4Zy89my3FdeFaiCqiHbPtLTDMoIxisMOUF6Jbyz8SkrysitvyDXS8uSbychl9iSLztWARUIhHnyZ3Rs1fwPgVF0U3gzC9LrhcJuZXXnYkmXrJy+RW7he8FJJ3Mi3/Cb6pPIruLF+/fvMyEPhPyYt9adY2Dv/hRYDi0t+Aj7qATdwe3W/l6XPhx+DBT+kneH+x+H3rBlpeFf7Lhxj2Xg7QrWR4w4iJfmUHPx2dI/bwHW/Hza+Irxx848d4xwvOHHcqstzonpfAi9pCtjLMoIxisMOUF7Jpyz0WkrysittyjXO9tSbychl9iSLztWARlryI8djuYJjIoZRPR6o6im4GYXpdcInU8Wv/cBSZeskLRl20eiYyhSKyUVxxblzm2I4ounPt4f7GGvifkpewxtl+btdzWVtog2OQTHx3gLO931xHj49Qz3yPg0/RPSNePfEZfCsoU1hsgqoIMyhD48dKwpS3QncXv6rJy2KMQjwRReYhilv6kXXqU5SyNHlZWmSX/OJ67edMYzV5uWTZ/TfFXwp5Mbp1lCp19D59wQX7FUtto1Bro1USHg9++hVk8i2MvsjfNzas77ONEbolL8W2PTQbePyHiVZuClSPz977PYFnf43QmOdVlCvh1DO6H10P2mXAU3Z0cYQdfGMMWyUUax2cnROd2Aa2clU021XkRNd5r0u60IbhwiZR7GDUFJ030K3zyOZmD8NzgV8MG1s5/t1G1SrA/oQx6NOJ7H9ojIsolE/wSTRp6z7qrQ4q2end0EHlLZT1pEWq393ZdjdaqOZdbjejg3K+gtbZOS5ivGuj1ES33EP2xyNQ2B4ZWlUsxI3PjIfUwSJqnTPY0G8hV22iXc1NQpVGI4dMDagNO9hpFVGuvZeY7KPZ7fCSslnNGPcbKJRqtq7HtnC/3kInWcP/PXqP+2++oluUz4u6iwVUup/wRdSd2kW51UXDIbNJyWH6YnRRL1VQ79nlsUBsF2poU7cyc25WjyJzqz2ueuyx3EHbDYR7wCzor1efGNZNF9BO1zDsVWzvqlV9hXrZwoC6Dmkn7F+SKHWHaGQduv6xj1wzT1zFfSwxbO6W0e42Qo2rWVJnoJnLoDpie0b08M70jTaInqHKsIjOqImcu9+w+9HNc7xWRygWqjg+Y1IfdWO/yXw7gRvL9P3eWVZI+fbKaRS6eebxsT35Io4+fEZs7yU3QdgYzo7PGFLbBep/26PH7m6I98ocG73hua2vPmPFeofh+HqxLPVQ2qLJmPaXqbBhnXIeFcrpXMhpu8SxVUYv+yOO8Ax/jRoQ5twei8SwM6I8HC208Kuha7VN9qndQsmj+AbHVwa1wRhf7E5gwxobOxzfPTBTYWon5+nOZAi3UCnV0R7MjrlOuwRKVSos9c02IOjssJ3lGt7bRnUqf4/O6C+WQWDt5MUkUUjScF9Q2fdLZQ7uPtqdY3w4p/z238LoFJAYNlGschLrn+DsMyenfV4ExdZnKx1OwD7d6JWQJMP4vPkQbwdtFKh0Rof3LTw4hnn/DQdocX6C3xzyovJuZiaaZZBEOPLSKydxjxnKm3vPUC0xuMT+NI7e4zzGWD8n7YLhjw1nWXQqWU6GvLzuOEHMiigVHO+D4bO/GX6ToygKeYlxUrj4ksDu/g6S5hC9Uw5OpPDsI0mhjH/5lRdK1hLLAa9c/5EhOnDSflomQaMBarVPwTkfKWdM22wjn3zEcCBJ3R6NV8LA4OQDztnGGAldMoi8BOiUwo3sRiaHb2LvWRU29A0cvWfYUOkl22pPYiZSqTHOz5M2JsYAJ7YC2zJSHHFymVlqBjtsxCxjOdUpevh26OE728T+YZ36a1p1N+N1jKnHns+ivjgx2i+hzDEjQi7Hfm10Fa4m6d8PxtkAACAASURBVDAyJ1tGNvMLPmALD2tVykUQ5zqOKbQZmXk6sLi/Xn2i3O9Q7qnp5KX0K777FLUyWUq/idqrD/iysY37uSxKDY4V6rtdFifOjQvq7Rb2OGGRAeHUVi5OhnVkFmDq9kiJHIvvDz7NElBrsiYmd4kJ7c7XCTN1AqD6kULq/Bzm1h4ns7Gtw1xo7B+WMTg48nz/8N2Y/ZDlRJCvwjGVOse5QT1kfGVk5tFj6DrezCLzywdg6yFqVdplQYjqxxxzKbzggi8wjYT9iv98jMT2PoqlAqf6AdqNI3CoMMfwb+YYSiPjamcpTVLS6dDWJ2X5XpmKEH6bi5VH7y+46BLYJJjreMJ3SCxiX/AlOZW/r5fQOeaelrm5o8v55ZTziF+ulIlulcSId/V0T4Xt2UPeuqQniWKTujMhLwt0R4hFeu+HtF8l2q+sYyzMpB1IL4+ZSmFM+Sd397HDZyfyf0uMJgZkqYlGvyQRWC954cDOcWCf0gB9JHue5n0Mabx/sIz30z+5qqEdEp8ooRFBVrIkK+fgpLadwCeuylMP39JoFyartECpqrCRp12C3Wfx3fMPXiMVWUXm5LzEE0iKLeD9MpI/vRJuHqbsOFgaCV38wQnSNAxDaRiCsDEHfRgZGiXn6lqSs+3Df2hY7DVrFPKC2H28Zny5JJe7JtuWfHKKC0eYzVNeFFnLfpt7r2GQiE78Q2NBBB7g5GKPIUGSC/7QJ7n76ZWJvdcGhFfM+nB1V9rhtezC/gSRFymvINzscgX0xoz3rlOI06uXJvEbWsRPGUw3Jj2Cc+/3z2zXV7bLahRXg8yjOp0leWLCz3HCP+Via0JepP4Zzz5S32azoeapmX9fAuplQcP6Dn44OMPm0z9hqEHmqiCof16Zq3rc4VoZah1xshDy8+tAiP4uJi8GbcZ3OBg9xh9ma+LhsOWYnMmTs8tiQzi+/xw2YDsMVZ7bJkk4V+AzJNwbJvZMlILwfH+AT65Qs73YGWL/7ZiTkF/n5YRtNecjvYSyYqH3XICJLQd+348neXfR5DvpO8fwG5KTohpcanzuMlTO8TcZc7JfIxL2sX8HCN0AfSND4jpjZGxyuX2IfwZVy+b2uJC6dyz0nKR2UrFwLDUxLJR5GaUPefG1BSbH1A7HlzXAJ54XL3kRcvwOz89cY46y7jW6SFaKlsfG81kYNgqjO+KG5TiyWaeXWNp84yHejdlXUfEkSTmG+69FJEE+rxbgtIFfbQOiPysisFbyYtJg3iXT3/3tX05CrvCPj/cjCnmxXP48B+bJe7WvegO7z9roNGQC71wgTBqaJCcpziib29jLpjmYeb5Mv0/GLnzujolmaUDn7DaSA3JMP6UV+XAYU7s6Ocgdih0JG5/BGYW8TCdk1XmShQTJwng6KN3lRZH1vNDcrIEa0JVL17HpMAaqSVxxJQlefCnyIsulS/qj4STVAvo87nDmUxio9ngw8dTPCfXOE5w6jPlEdUj+7pD8TT0vUyM+nVwXK5qvDqiVv3tScuqRYwJw1xLYP3qmZmUu++djbO0yxj56rGpb3N/F5EWOp4zLw2HJa+CzCJolKVZLPHIIXjB5J0pFfqbEWoQ7LEI1nEPc1FjedOuaxCToe6VHEeVr4+gNqau+e8e2WmT5jIW5Kun2LEt9wSy5nC3CS14Glg00MeNpsl6SYzQ+h7zMxWZO4xeSl3C641eDZ4wq8uIZN97+LbYA+ol5CKyVvMw1akqoDndr6Ala7N7JMuE2votndI/XswZj7gU8ObGZuu3lkfFV09ndPFp0bdoLpGmuCG/75ieBNPMqmtkOfnrunGiWVZjFnhe1ShIu+9m0BBmTdUw6c7HhyqhLt2ezb59XI1ZKwi3qDKlEIS/ekJky3NMVqru8KLK2393D6680eG54Z0jtwLO6mzy+UsKuWg0L97ArIWRMVzX5q/LoBCa0uuuXfxt+O9V8dhsNqhn8+KvYp88w6cMqGsxbyqXnJKfwSV8dkPWOfb04ikAHJ6AHJ+y6ZK7G6yRPwCE4idm8UOui/i4mL3KVLYiCSQ+P9Ka0ckk8Oc34eF64GnfnvvnIIWhc+eGidjlOFmMqdDB3d6JfqERgF/L7iPINGufO8KBby8ZWPt2iTQoMbXZpY5r09NpGhn+f4nwS1vEuuLyW09tnu71+O0S9YXePTOZiswp5Cac7TJpjLhHD/E3mM43t+kZW6oMDS595zn4yXFrBsrPPt/jeJZAXkVPpk0C7NHlRrjlOfoZg+1MxqTwK202eYU5ICa2RQ4zxPOrtsr8rUT5mrwTi82PAoTRjsXLaA3cLj18zOdenzHimgKLcExgYNmKYLP3oBF+YoLmbZz7GpZAXsWi9w0liEXkJJ+u5RMyPvPh5FdZBXrYe47VvUlV8sh0zKnkxGQIUIZeZT8BW6fGQSdUVJmczeUD4+7ZefLRCPUGfeeTFP3F5FfLikrmK3e+9QIOJ9t5PErlSfpqo6PPEvP4uJi8ipMsQzfMzKxlZ6DpnT+ZGXMyGXVhvIFFfkbxMCIf0ioytPBhzxusTZsK2n4lGXsLKdz55Yfj1RYOJrH7im7MlXSz40o9w8oXJsLs8CNQ2Mv7kJTD3x7/Pdnu9O0f9Jvcg8hKYtB80kBZ6XsKQF+YTZn6EWH9sbu8hm7YnIk1eQk2Ol/LQeskLkwZ++PXckRfgaLNKAnOsGEN5XoZVpH/4Fee+g0S6tlVSXmSIZPzefIo/mSgrU3Eil2K/sJi82Mm2ycW7oyYG2b06Ykw7/jOOE3TV8pybnGrpimEj7wraG77xeF4iyNreLebjmmX7VcK07d5W/fNxaa9EXmS5jmTAYDsnQiLn3hwod/2T7fc+MexF57wwN6GU/Zk5PPPPKPInL3I8+MbO5+AnOxzseXHJXPVv7uQUcqj49HcxeelR1++hW/gNzWSPu37EUpeEqVrjLrjZ3WmXR17AcLPKieoCeSZdL7QVIUnKBDrX88rehZRvUN9X2YigNgXM5oe57Ztqt0yI9lUFLxaqbG/oPLzn5Zz5Ol+D8nX82rEG8jI5UNWVEhEYNvKMm8XzQ8jRpB+TCKyVvKiEVE9iJlm77e5NRE/YVUZ09yUTzyqzu4pUUt2SBlYkzaaZm5BxZtCzreIOHcSTTLKNoieLlXNy2N6CvA1rzeIbaglw1cpkwISj3Chho9j91zwPiju6VHcnyWXTc3E85QUl4frIetpvRwKjVRcnzDRzXM5VXoEKXbhXQkyy5fbUJ9yhEC5h1x2iciRB+nkFHWIO7XmZ5Ii4EiXHfVQyP7FP8/Oo7HoCPFeyPf460OeuqZ/wyvR6IlXSbSJEwu5imat6XP2LMiQ8uE77u5C8yEl8zIMphzyYct5QjE5evCHMQLnLRVf68WPg998xXjh2VyQv3J0ZRb6BfVfjM8xuTJdM/fVO5rgkVE6KzP8RybOuMTUe9jFMZnl1i88OMpkX6R7HBmWcfsJdqnMTdiU5FyEvZ3KyWAQxf3GctXetej5zwk1hdcc/TG5yq/5dPP+gw0ZLmoWVXlsveZlk+NO1tn+IVq1kbbMT/z844fkDroEUyvMCte1SlPkS7TozymnJTOGCLz7HyeeYT/KXG5M+6vk6jHwZpaK99bVVK7NNzpwZ+x3FsOk+ipgVvpi8TCdrXmvwlFuFa9zVI+octNCstWBWh7wGwW6HMqaph2/QqdKl30+jUYZt2D6n8Pgdtz1y25/B8xHyT04g0pidBiE8eTEQi13gIrmPl606ckxoLZVe4exic2Znjrc8RTTCyJqGj3dY/U5ZbT9tolGxt202KmW8OnOFAeRkcbGxh8NO09oKWS1RzkYMsYuL4K3SUuT+uNGnprZYxrbxtNVCjWRa5EENuDOi1jJRpT4J6MOTF7qMGfL5nrt7wHDUm7bYjltDufwKH8Z2W3PqnBfhianGLXyLVF5z2OI5Ngc4xUP8wV0KuYAhHNQXlSzNAYHDVs3e9i3+f0A9cO86cZVtlxlO5pOt8KznJfsn2s7GM9+qgcYgi3av6h+SDdHfheRFbKn1uxJEnovUaImt23bnwk5AweMqGyx3RSasfQJbk11pwVZ3VfIidmPbGx/CyDd4nE+3JM/azS6ajQYG2TZ6zMPy+9g7uj5DnGjepY4nOFbL+Se0tZaRmewGMun9SHKX5IUYU9SJyg53YNV59tDxGCWL0PhhIQkIj0LYO+ygyUEntjM/P1E6OX+rtNiNKbz7CptCfIBmvcYjDzJ485Vl+/ZItiNGm8Jzf7IMPxrFqmOr9OKwkVqAiTN0+u0ij5QY8HybAo5ov7hMmdatc15WIiRRXl4zeRFVj6xdQWUSA3sfj/hscmcQD+9y7QwKR174OlezDR4RXZW5AtNimcDLw9Qa7kPOPAiIrdo73Ko9bZGdOFnHzAFDfE8pKfdCRnNNhggbWc3itt+KPEzK2UxxMFyjQyOh7Mkk7iyfUu1h8nI2d4AP6pon5gM8bFdgPniOoWNVaIdq5p/nYBuCDF7/U0Y3+wDHtAn2h2W+5fk84kAd+fEvL7ysffvNtouDu9rq8EJZ16CeRe6A53nIvzd2n6HTzaJ+99FMH30VPQg3C/oK8sUj8BwvxyeGrfsNlm/nRinjuP/26+xWWF/XM3exkQw/mAKH1P5r9Gq8TI47ozKKvDDhtLhTJL4O/dvcpSHtY+61XHP6MmoVkOOhgrNFPkOr05hM6n74RJG5eN+vHlgHB7bQ44Fwvh6REP316hOTcu9w2/wkBCwn314GTzkhquPhxeFp9WOeQxSb7kgL1HW/8F0ApoFyJwZqMsfWIf4WHiFfxZuMFFc/lvs+rHznj3O/8ckUIu64LLV6aOaD/FmcmLM5HEyNDI+laKNiPsDz4ZRcTPSDi6eJ6bBsfRtdHjCXgFumkwE+a8M2aMdp+7L1u3jkKN9fJtwWzcVP4WhqH0RO1D4P7bQOAAz4TBPIxQMkoX/xaAQO+PC64x3rm7uHxKmJJ0cO4qTCfp75I8zidq5i6R9dCFwCeVE1yPDLEvf6BEtpDNMwmfPNT+SwDt+R196Lu4aS0WJCl6A4Ch/RlWSgWzzomnjr+7ViK+AxYI6j38MkkvmsUFuY9oSWwbLhO1tUQbjJH2E1d116IPsUT1CO8zYQEV8bJnnuT0itmtcXWw9EkQvqDqgrrMwnN6ZHafuS/bWaahGPnu95KirJfuHJ2nPwnasfrvfUgsZ5jlJI0a382KrytRswtZuR9ETKb/E7qvxotkPZsOVs8dTmhH5fjdM59nahwJT9Wmb+WVi4fiAKApdIXqI0Qz+rEdAIaASmCAQfBsct1FkeVObMM7hU4FRuh/O8l0utUBeuEdAIhEBAk5cQIOlHNAIagStGYHL0vHO7roFh9wPvmmLuFG+HH/B2+Ev/BJy0e+n16go0AhqBuQho8qIVRCOgEbieCPBU7Ta3Rrd5N01vyKPSkhnkckVUqosP+FtXhwxm0GfFBYst5oHk1lWqLkcjoBFYFQFNXlZFUL+vEdAIaAQ0AhoBjcCVIqDJy5XCrSvTCGgENAIaAY2ARmBVBDR5WRVB/b5GQCOgEdAIaAQ0AleKgCYvVwq3rkwjoBHQCGgENAIagVUR0ORlVQT1+xoBjYBGQCOgEdAIXCkCmrxcKdy6Mo2ARkAjoBHQCGgEVkVAk5dVEQz7vnVa5YITKKOcABmmvLBtW+o5+4TLxadvLlX4LXlJnjy67tM4r0D2Y97d0usMYKZzyOfScy9G9Arrkvp97bWC/R7wmPqBiXQuj1w60s2uK/UuyonB3or0WF4J/FAvX/6YWE0HQnVi5qHVbET0+txvaPKyOoahSgh/UeI57qs7ceaUHKa8UA1b9qE518wvW+RVv2f26ig3eA9RvT29U2qdjQi8pG21StYl+6D+j3gxYIYXA6qbmFIv/uIllBEOhLukfq+Gmv/b69OBEZrZDH75MEENL3g5YRTYlu9f0GWQIUv0GcujdhmVdgJlXiYaeAVSyOJv7mMmL2HsYJTOo5id3vM26Q/PIeq2B0jwrjq/n6F+5718WaOCNK+RP+flxF95+ezcD++/q5d5eWaujvbksrtFKK6oA4uKd/2+so2IWJ/f4zeWvIS9k2UNGK2liDATTuCNxj4tCFPeWhoeVMgNIi9BumJjyGsoo07OYYG9pEl8XbL377+89TfxGO94+3Wet8IPzB3spH06re6+cd8Vc0n9Dgt7lOfWpgPyNvQEb2IetvK85pteK14G6webX/tWs2crTlyesSwvEeRti54LSueAu1ofokjtqp6VY4G3v7/j7e+U6szHvsKCt8rv/oZ/+2WPd1Ld4P7w3RjtdATyIi8UpWHiDd68rT5Ud1fUgVB1qIci2IhI5UZ7+MaSl9A3UkfD49KeDjPhaPJyOfAH6sqoi1bPREasjC7Dw39Jk3gYXQqFpF//5a24xsN3GNOIzvvY+gp4Lki8pH6H6lPUh9akA/YNyAasiWo+bL4tXM2erThx+SxEzH4bnWECuVI+NAFbrQ9RBXc1z3cKcTw4iePxHyZaOWedJj1td+lpE9/dx5uvnNBnqQ3qO9/h4Ez+FmlMjNDlrd9mpkCPT1jDtKIORIEzgo2IUmzUZzV5iYrYks+HmXA0eVkS3AWv/WdGNZLBCt/3MLoUvjTXkxE8areCvCwN1OyLgViELH81HV1x4oog83ndWa0PIYG66sekFyT1jKHThtMH0kHhzgN0YzFcMFLoIa1mE9m7v+CD8spcki2YwrGiDkTBdU36EqVKv2fXTF56KKcL6OYZJxT3gRSqOD77DMS2sN/solNKA6OW//eqdYwTtiol1BlL/PRFxI95Mdt2AbVOG+J19MpIF9owvnyxYvKxjQ3E+f9EkXU2JTUWZZSKfOcM53wotrGFXLXJe1JyE9ee0cghUwNqgxYSlRzKJ/SRbj5F12giZzSQs34corPD9pZreP9JFOToxwRNA916GdVmD8Nz0aYYNrZy/LuNam7KmsNMOFPy8j80xkUUyie8hE5Uex/1VgeVrOip/Qkqz+jWUarU0fsk8Ulto1BrE4+MhdP0M6Z7u4RirTvb7kYL1bwrvmt0UM5X0Do7x0VsE9ulJrrlHrI/Wstu16BeoJIS22SLK5mM0IUyTqxOprBbbqFLuTjXGqI/ZcquNzyHUIdIsmwDpTm6YusA9bTDfAWpOqL1oxaxV7iwXdsF3q9DrDICQNn+cbWPftVpzIaoZ7Oox2sY9iqwEPQ1WOH0pVdOo9DNM/mziA5j6kcfPiO29xIjlt2zwl0p2+ORoL5mqhixnyMRrnB+TIZ96K4eOseG4/fZ/lMe+TQq/TG+2EBjQ/Q3WUJ32EDWWa7EYDD+ImVij0HsyL47+v2/moFCqTpn/IgXlS52cGYPWGzlqmi2q5gOoaltGbA/+eIRPnyOYe/lCL2KQDtMGV7d9NUBYT+KBVS6n+z+pXaZ+9FFwzGeJyVJjPsuLJIljquGQG1BuxbZs0X20LYGyN95hPepZwwzNOaHGUKOZUv/2mmawB4seEVPGEYsFiroWrZFXJhZRqtLWzmYb5Pn2lq74IX2mgMP3UoB5eaHiU3PN+ScYrVu0e9e2Yf6xk1C1Eu9EhL3fkf22TMMj45gPv4DptM10yngzoMTRpT+Rb9MixZlTMjxNXKPW5ELUyyj3hN6KeeZib2e6sDHfg7NPGXDuVfY691y22NXfftudFEvVWT5fMJt+xDBRoQCd7WH1kxeFIAppM7PYW7t0bCOMTihwlHZ9w/LGBxQ0K7vp6xVXj8/5ERWKqPMLCgxedWPKayYjDsOmyhWaRj6Jzj7zIl0P2u7NWnsOhVhLGjkkvfwir/tPauitMPwc7uBo/dswf5bGFQqMTnaRMFEKjXG+XkC23tpmP0kSQMZtVQ0M5XCmP1I7u5jJ2lM+/HWQKdgT7HdYhw/H/P9/SInSqsyNI7es7/bOPx7AHqTbfPinHACgpiKvAhCdvElgd39HSTNIXqn7D84WX3kZMUqgsozuUpIMonjgmRtn/jl0Ee7c4wP5GXOvov3B+z/j0f8gYb5aZnGh6Sy1T4lYXTlgExu9+WEssfJPiFxYBtjJJDJqORFYpu8fx+D9++R2N5DlhgNe7LuZx9JhmQnVR7B9j6KpQJ2mH/RbhyBosT24d8YSHADZTnIk7AG64qfp2sWlwIFTPf56Rk+U3e+UneUEfKSNpknAMcE4kNeoupLKnWOc4Pjge7jkZlHb1DHYEaXRFLo9zj45HVdm0y8vUu/dlAC+Gz/TXSrJTR5CWL3VOjFHvI71PFkEY1mcTZ0YHZRJYHtD7qwH81DPCqebfLZpOq3IEAXX5CYM36ELvbKSdx79Rmbe89YrmMMxfbxlpOtPdRmbYtBvc0mRjDzPQyYFRuuDK+x9OoA8dwhnmebtFd1FJKmZT+a8TrGHZ9EywAskkW+U0wvbhcXS8H2LG2HHubZQ9sahCMvEcayx14x92Ln+wOcbe7jsF6gXRJjsYl4fcwF3nybPNfWhrTX9rjhuH9a5yIuwXmhgcYgx0WNTdYW/b78NCnnJBX+kQXZfUrit3/r6Kfv4ffELHHslRK493sah/9wDhDkL8qY8Fv0OGW3X+JCnnNQp0PbnpSJ4VIH5Jijsebc67Cri/L6XOWXc7CSlY/tyUOOwwg2YnnAQ795OeSF1aeck5BkqZwXfb8fO+Lro34fca5gnWv/mcQnubgMclH2aQh/egXGKI2ZGKUdu6Qy/T20CIUyWmzRDCmwkFPKQ8J1/zXjjyXZGvYjSbb9ee81vvLf4mMO+jAy3J3hdGtIV+P24T+cYO13o5AXxO7jNWPxqlrB6JNPTnGxx8QwrtSELfeUxxVCjm7KU66+PnL1Jad/0RkawB8sY/z0T4NxWn7F5LIkQTLZD0PIRqmLIG6JBzi52OOgJAnkDzaeJvZeGxAD0u50j6SQA1ZMXEuSF0FmZ7CFTAJz1E1w0TcyyM6Caxvq7UP8M6haejJXlhOsvJO7Z+Liimfnu+c4c2PI/ja6SVSKwhrYiXfLkpdo+sLGUxfecEVUdLij3LIXO4G+P/iEPa7yekJo1kctBGh4hFx9TIJvmDKCS3hh2CjE+FG6yAELw7VyjXPlmiZJFfkkkwnaguQNJ6/iVG+lPi8uwwuCVwc4SX93AIP2y1Ak2gc791e+WERoV5A9C2cPw5GXKGPZrWN2cqpBW2lMFlBuDIL6MG98hrPX0jZkp3Z3tu5Fv4cQ4JxHvPOPzHcx7ITakUWsMlOiQptbSf+AI7+FTJgx4UNeeqzjHsnb/Tf0MDmMwajVxJDe63xC6gD7kXr2p+X1s6Yk5Tna5Lwg7JtvP9mfHPN3Tr1z4ZBy/4FJyZtP/4RhTR6WwQ2wgavhHPXtyyEvHqAksEHfOyYi3w5IMuBcQfoPlAFdnD9aSuMRlCxj7/VXTsLTCW/3Jd16FVdSlFIeB0mx2yXLjy9wz/oINwp5UW2cYkGykCBZGE+z3t3lqVX2xE3pBNIVt7VXBYLguZPQprjYWMv+mj7Z9gOGRhg2ii9LXjzYcgVutWu8IOnRaxiUcfSVpZj2LE/FYvIyF0OF54rkxVe/A/Vlw1dGfsTViq87yC0MexIe0mM0Fh4jn8+lk5cQ42fAmIQVffRMitJmTMqQf288xh8M1eQc/QlfhhcELwZTIvCnCJfNxloD7asfeYnSrkj5Ih57GIa8RBvLHh2b2BDHxOhCY9E4847PsPZajnljdlE3rX7R71GnRdfzcvEtyLEdGrLx7qu/JTYT2yvH3sgZSooyp3jIi7T/8Or+tKVBcyy4iL+DJ6d+ScXy7aDQmPWzj27davLiib0GDS7/78ejnuWS7IzGNrqjPk4Yv1tMXhT7ZDzQCtg7PjImrTwFc5NjA5OrfBi1qIIegm6zSZe7YVco/qY/3RlSiUJevG5+ldk+VUB3eXZ/xv4rI1d/7Hf38PorB4V7XM8QnYHHyzF5fFkFnpO45h/moNu+S2yb9HDZ4PLvU5wnpwRyUaLzIqOq8J6Loer4OsjLivri1SW1ctqlx6xveczslfJwLhG8dPLiOdPCO37svkxz16bqKHNvJrYkeIIOX4Z3EvMNHTKX6cdfP/FhhqUfVtFgTlsuPZ/F+JGXKO2aR14W28Mw5EU+47dQDLXYYvgj8yNsWLbxsNrgWSQ5OGEJO848E67IE1xgr812AelHJwyfM9fmPvM+6jUUrVilNLkLfvdKPso30rOjbI4VzqY3U+0sU5O/0ncSnDtP+rNjL8qc4nnWTeT92r5ofMwhL7K+sa+3UW2bd7y/rO2PAnmIZy/H87ICeRkow8EBssdkCEs9o5KXrcd4zeRc7yc+2Ra7LvIyGVQi4TTPHJVLIS9e9uxPXny2rYr2+JKXAGX2Iy9+5xgsq8BzyIuI891heGxC3hiHLaQf4eSLSA5kXoUN7iWTlwAM10Re1qEvvkR4JlQ5tvNgzKf4kzkVM8m2jkFxfcjLFh6/ZnKu34idbBddZJzDlBGOvIinxkMm3FeYNMwEK7ExYOvFRwgXetAnmLyEa1fQxB/OHkYgLyHHsv9ii8nHTKKuMIH+vUisxhZefBRhaRuVpclLCHttVWD00aiQuBwzB41/buy/wYh5SBMKs+j3EBNi0CN22oEdGirUVb6LvVCYhmhtDzWsMFJudvv0OsjL3APuFo2PxeTFf/OFJi8BCWUuwKW77cw9wEKHjVwMeY6yroe8TA/r+cNwuLJDrWTCG9JJuMoRvvGQF+uciXPmpthhsZmPSnyVzLpTuMOBuOnrpVEHL9nlqP75hOEugbzYbnZzsmJRya2z+UvBYaOgxNSwRlXpxNyDuWS/PbsL5sW5J0ZnPfriP7FwJRhnvlL6EH93gTyTK01nnNpnLFwH8mLLOOk9K8bT3mDjHL6MKGNOPst8o1L2Z+Z3MQFfJV8GYjlLfKO0y1dHQ9vDMOQl2lhe5Ck2uiVkf/4d5w5PTthxzzlcfQAAIABJREFUNoUvvL2egZy7kxpcKD4/9dmibDPP+b8vQ2ImaQd/I9/gwgDTnDtRnEpKfvxHBygwxL8zzU+0qlsHeZl7aN0q5KXKHJZfce4TymcqNLnYzzhmQvIkFWNZ278M7nPeuV6elwD3lcnko7vPZ3dN+Ic+HIlHf3FnzpyjCddDXgLceTJGmnDkgywyBtMBwFTW+68xonGYJC1PEoXnJOwGJeGK7W25JGOeiUnCrsl9wXd/OZ1NnraUhDHoNHOGzlXCrgpXyW25EzyZDM1ttU/eX7gSdtX9HQkkEwFudjWIXUnJYpdYibvEfv88TRb2l7GM/zqy+8OFjbxhMs97kuTR9TObEMqAVZ9biLNiWxRIUu88wekWSYI4rEnNcdymnH7CnV5Or2NY929EfQnSJXuyTOPxY+B35g55Do9zGYL1kBefUGUEQz3VxUVb7oONc/gyliAvk4lpvkfOz/MSpV2+uh7aHoYhL9HG8mJ7FRQCDDHOJmIIb6+9XDaPO4w3Bl6l4rPgte7+YRprMunKcQwzqcrQ0GD/IXInxxi4QyxqDHMXJbiLMqm2SKuyI4wJL9FRO57cdljwtD6GySx3+61AXrgrtZz8Ca9Mys4Q9nUKiNoskvhmEnaXDRupHTOxPbzkCY9FsU2xzjM3js4s161TUZXhTT18g06VU0o/jUaZDnImkqaZAXge28bTVgs1TtzCrTdgVnaNZ4tU6Q4W6YvrIS9S6J9TePyOe+QZgzW6zPx+cmK5NZ07cRYbA9UmA7HYBS6S+3jJe0XEmTOl0iucXWzO7KDyzXuQJz5u7h+iVStZW4vF/w9OeEbIzISsiEKMWw+bdMVyizVXmMIl++pMEBLvduWLjT0cdprETmyTfY4TI4YYT2ea2SqtBui8FYJ6xhofKey/bKGe4w6GUsmqe9Ox68TeifAZKR653qVvOsE2lvNPwO4IcCdnWiwiL0G64n1P7ET7AXRgwcawgPigiXqN27Mz6k4SZXDZhIev0aLHa0CMn5+Y2Ijx3BNHLo7XCK1HXwJ1SRJYAQ9c5MrPPq9KXsRRsmICie0d8hyJLMN5Brf9OrZKh8h5mRJmoYvcrl/jzjoxYnn+UrPWglkdgukM/MyboBXpXlRGCPIi+lSNW2OvmEnA5Nkm5fwBTnlE/B8MCeQCJjrf3UaTxcDidvnqKBPmrR2EC+1hGPLChktyHmYsu3VM/F2Nv0SL9jiTMHlGFO3cgXB9/MGTmG1Uwo8zB4hh7LWwGdk+8swrtOw5J9hK4RGO6Q17SW9YxVzwu6VQdgL7GQJy/RYSGEUgxIMxn1wytVtS/O7jpVuJvDBYzqT7JHffXYh5rdlAZYdb1Os8k+V4jJK1UF+FvIhNSfaxCjR8OGzV7CNGxP8POJe5dzzeTs+LfergiWfyCv+9yRjmzoNjnpMiP5u7PFcgi+aTI2ScFxZO8iHkc+ocDv5p8iAv+xArp0bGsHW/gQ7JhXAg2Md5n/vf3SGPPz53lGmX5JOwy3M3srkDfBD7wC29TuFhuwLzwXMMHZ4XO1STmntZm92mDF7/U0Y3+4CDU7WfZb7lmS2F6QZy//JGaBXsA/cE2bM/PKToWQudBgmKEw5u/63Iw88mX7Pt4jDBtutAuwHxzx18YLKc/dnYfUYceSDb3UczfZxM1s5dL846LQjlHR88cO1tsoEH006SDLzl2QIcpJN3Bjz4LYeDKbh8pk1j9QDPhw7yMk+WoqwAXfHVAQuXAg+FU70VIt1Hs9exD0m0yuswWdAhn41dPOt0ka3fxSNHu6hktjvWqUdr0JdgXVLkSHAXtcXYLYDp3779j2SYHEmcolgSpr/Y50yU8WPh6aOL/FocztggrvbddEE2RMkkTBleLDwYWLItcuxNRxCEDer2UQ1OeZETt493JlTfgnU0nD1cgI2j22HHslvHrHYUaZdnYCFp7Ven22+jjDNHmxbba2EH8rQDDoNu2VmeNWMdArTod4GvPEoCPDrgq//RAcEjxf5FkTP/6wBUzg8f9DssMMqYCHh21Cogx4XxZFqwbLs6gC5YB+Ylgzv7bJXPg1FnZfwMrU4DM+eWRrIRi1Bd/vc1h42Wb8jsmzL8EMLFN/cacHlxHEKUs2rLlUsyQZdkyN2VC6tc/qIz+4p70e+F7RnzWdN+dr47VZYZTzIk5N90tVvHfcbOzNPuFYisP55IIijSBHUB4LxnFqJJ+yXcxvE5IS1nGUp35vR3FTf0ZeiLSGa2z2uYn58RAqpIjyg9XcodP1OT0ltqo/uyx9AtWkcZYrIzYA+hkPqysH3h2uWvo+Ht4cJmWA8sHstB5dh6K2AJHq+RxpnfmAuyRYts1aLfw4FzzZ+a6sJC275kT8LIeMmi1/raNSUva+2jLuxKELATRvtF12Fj7rrn7Ta6knbe4kqUa3ye5+sWd193TSOgEfh2ENDk5duR9aX21NqlxLyHP8TdUPNq0uTl0uTgf9LupVWnC9YIaAQ0Av8ZApq8/GfQf6MVG0zE5j1Uo3KXJxvP2Q72jcKzfLcNxv+zqI6KaDGvZi6BXL4S/aZGQCOgEbgWCGjyci3EoBuhEdAIaAQ0AhoBjUBYBDR5CYuUfk4joBHQCGgENAIagWuBgCYv10IMuhEaAY2ARkAjoBHQCIRFQJOXsEjp5zQCGgGNgEZAI6ARuBYIaPJyLcSgG6ER0AhoBDQCGgGNQFgErpC8qHtvgg85C9voMM+NzQF6nQHMdA75nLydOsyLPILJNEweZuZopzpIbemDs0JVrB/SCGgENAIaAY2ARiAEAldHXq7wfI8R72nI8J4GdZJ16gUvfauH3Jbr085Fd+eEwHmpR8xeHeUG7zept+UR6UsVE/mlUbuMSjuBMu93yS9xh1nkCm/4C0JOxVIN7x3nam/yCgXPsdo3vJ+6+RoBjYBG4LogsH7yoo5yd3sproy8qCu8H+MdL1XL896LgbmDnXRIyK8RebHvpOBVGVHIV8huBj8m72/iBRr7b7+C94Hpj0TA/7oGG6924iEq4oJLPmt0arwMkwDGHuIdL/PLawQ1AhoBjYBGYK0IrJ28+N+uyjZfFXmRl1oZD9/xttMlpo1rRF4w6qLVM5EpFJG9Qg+IyRu9O8MEcqU8wnK+tWrlNS0s6IKz8XiMeHz2RqtBJY0fj86x+9u/6JevUHjXFDvdLI2ARkAjsE4EbiF5sW8thuNG50iAXSfyEqnh+uHLRiDs7axWOwYVJH88grksib7szujyNQIaAY3ADUZgfeTFaCCXqWEw/oIvTDaJbWzYtyvv1DDs0ZA7SMH/agYKpSrefxIPbmG/2UWn5Frjj4dolYqodc6sK7pjG1vIVZtoV3PwX8eaaOXTqPTH+GI3ABuiAckSusMGsqItRhf1UgX13ierjeC16tuFGtqtEjJq4RyFvCwsr4dyuoB2krj0SaomijJEfSeLetz9vezDsIjOqIlMI4dMbYRiZ8Tbgu2Xe+U0Ct08f+cR+8UCqsTn80UMm7tltLuUgRMcgSGfqXRFf2PYsACRn2yDjp2SL5ZWHe00asMeKiIOYkFXQaHcxAdbGNjKN9DtlOZ7ZkYtFIlvd3hu1Z/aLqDWbqE0AVuUW0epUkfv0xcrRymW2kah1qbsM9PbuaVuoTZAK1Gxr23ndfBPuwZxsTHu5jsYFDvIF4/w4XMMey9H6FmNH2NI+RZrHZyptvN6gma7OosVnxy1iqy7i+E52+LUjX4Z6UIbxhfZRqnbCdY3UoJxGwFJXvDsI4zGzg02EbrpGgGNgEbg+iGwPvJidlEtNdEfdHHKcH9qL48dMZEmi2g2i1PyIkjFxRckdvexkzQwOPnAiSjG/AqD+RVq5uWElLyHV583sfesihJt/6DdwNF7Prn/ljkFBZ9J10S3WkKzP0DXbgDyogGsv8H60yZzD5KP8P6CE+9+CWWSgX67g+MPIjdhH28N3oosqg9LXkKWZ6/Wt3H4zwBVSQSgbv+F63uwjXfYxt3f8C8nTIOhhx8Yerj/5iu6RVt57PJSSKXOcW5uYS/HRGSSjFNO/kyOwV+jOuzU5AFzMX7E0XkK+4c1FIh1p3aAk3OSiF3KplBBh0TQ76PqePbXCA1RGCuP/3wMbD9FvZJFgqStIRKJe0P7d78PJ+80PQ/nSGH3aRmkF2h3TnH2mVh/JdZ8x2RYL8mkngsS0/1Smffx9PnMMQmSEIlDzlImZiqF8fk5Ett7lGcfycaYOiMx428p/makdhliG8HM9zBgknavnMS9V5+xufeM+mkpEhpH73HulLlAS4Z5CA6eltm6LkNnpySGbMfXuoFilaSmf8L2b2J7P2uTNpKgDvHw+/RKrPd3k3ot2nj9Br5ukUZAI6ARuMkIrI+8SBQW5ryQqNx/PUKXxt369EpI3vsdn/de4yv/LT59Tjg/vQIe/2Gg5ZhfO4U4Hpykcfj3EFVr9vD5yIluNmxkcoV+F7+cprgQ5oTsWAgPeRvyDwdn2Hz6JwzuUgpHXsKXZ7LMu9z55Mx9UN+J1m8f/oOBYjWSJOzIPAm/XU4qiRepZ/hTeJQsZwrbk2X/Pmyyf4bdP1XWS+ZcVCQpNHnj891f0F8QynCTl24xjp+Ps3j9tQdbQos+og3f4fmZG28TvUYXyUoRGdmWU/bj46iBqUiEV+oHHJzRs/InPSuCGyhCyX+m6MkYzXgyJHnhb7H7b+jJKU6JLQlg0lYkGLOKhPiDE6QP/8ZQKBI9OzvfPceZuy1mD41uEpWizdAWho2sHKUB+s0mXpGBedqzCDb9u0ZAI6AR0AiEQuDqyYuDpNgtpIcgSQ9B/Bm9Bg16DeTf4KQmJhVnN7hSv8OV+t7rr4Lz+H/8yAsnyiwn7Q/SozEbdlIrd1l/GM9LlPLUs5xYv0r3iTUJGvdxf/Qe7zO2l0W0qVdKcLVOcia9NMHkxUFSFAqcnO88OZ16aSyshuRw0ntiPSd3EiV/w/9Y52yK6RRON3mx22HMks556jUXH/tFP1I3KVLKOaXylpRMdl8Sq4rL6yblt/EYf5itmduUBwwb0fkzJXTTCmwPl9TFuW1x9HMReZnsDqNXMV+uo+EMfYUajvohjYBGQCOgEQiDwNWTF8ckbjdQTqgkKzZ5UStpV46GeFTm00wmNb8e+pEX+d3YN/9AbQ2+jzdfuc06DHmJUh4MehK+oydBls/wSTH+M71Lf6Fp7NCjkbPrBb0aiXv4PX2IfwZVa8ttMHmhR2OGlPBhOeFPQkw9hnruHSPNbdZDdcaNDOUs2onlCRsxRFZIP8IJI1Ox1H2U63XUijsBuUdWw62kaX+8pdQtQjT2IRbT98+VrszdqeYinx6y4ci/mvwm86LoaRE6x/hacFsikBebfGalPMMMP/2MRkAjoBHQCCyDwPUlL1uP8do3JyM+f+vwHPLivwNpefISqjxKxWBo6ruDIR6+G6MdZ5LsPeZ8/MHkXEN4R3r292l7wo+rUMaq5EWQpMTPOCbh2GSOSDZhoi9yOGIkUcxZKc7ZveshL5ZmGeg3KiQux8z74J8b+3gz6viX4xu6m1XPwPCixWdtLNZDXrbw+DWTc31GRzxTQJF70Oe2JQJ5scvJaPKyjCXS72gENAIagQgIXEPyIg+ZSypPTITeOCa+GWIhz34594SsxAvqUDsZpgrlealycv0VocpztMlk7kU/UeIEt2MnrcrwypDfDzMVEhxzxqOyiudF7HD57nkcL94VGaLpkXoA8TR3b9WZbxIUL5JQ+5MXJQfu3mkw4ff5Kci6/M/SURiKZNeAbFWRa/LDr+f+IUCZr5NQnrIlPS92rk7S66VyqZTCedGhfIvCRuagxZwX7tSq5PT5OBGHrX5cI6AR0AhEQeCSyItPOCBwAnKHjRzJsO7QSJie+a76+9y99BNemXt4bYjwzLQgk7kiSeaKJCIl7EYoz6pK9nH8EA/TxziGynORibYj+b0xS9hWIS+dwh0mN+/i5d/c7pxewFZcuM4nL+JhGarxhABVQZIQwuvlMfp9jLPcrSOTaU0SSoMJTFOR0COVS+LJacKbsOtbX3DYyOQ25ru/nDLJl9dDBG6LEvxV7qZyJ/wKbxO33mezaatjNi7UoaDEZet06TgSyURgPlEYFdbPaAQ0AhoBjcB8BNZOXlTuRWzvEN1GFgOexVGsOrZKL8x5YYPVNtvYNp62WqhxMhNhi0GriVrLRHXIHIygfgWELCY7fDb3cdiq2duvxf8PTmZDKWE8L6w7dHmynfYOKhFvmd1hZIeUzqzvJzue5DurkBduYULmx1/xaQYn5hGlMsi7z1GZS14E8cqin2+iWSPRoxx6lQIeHZ9j+yV3SqmDYFxlKM8KJN6F+ADNeo3b3VVYRe2QYr/3D9GqlZiczXNc+P+Dk8+zO3WW9LxMt4vHuMubXhGr/dQkekiatRbM6hBtS5HE7rUfQEeQbEsB8UET9doRE6qnidZKHqmHb7jNHGj102iU1VZpldukr1XQRlcjoBHQCFw2AusnL5yAqpkf8auaNbcO8RfDNhkVuvGEEtyeF7vLJg+2sw8cc0IQw9b9BjrdsjzLxAeeOfkWo1bBPuBM3dgoCIP7Aj2fdqqJ2B1WCFWeaqL0NHzmuSczybaTbcCOrcGKvMjQirNe26OSwgt6pWbumnQn7EoCOCYxqBfktnTetN1ucELmJL3N3JpBwH5zdx2Dehb5gw+YioJnxTxs88gUv/N2VIe5LZp3/RSOPoBpN/aHB7/tM4Q1PZBwhFYhhzLvAZqKZBO7z1roMDSljsXhfmY7TOcbhmL47c4DnMyccePQC253ruSLOJpVJJ6NeB+NTnd64aX1XIHPTVrL5u6j2etgcn6iI3HZqmGmPcpjGLNzmJa4meKyB7suXyOgEdAI3BYELoG82NCoS+ySdKGv9JEXPTJjAyuXJRtiGgbPXWWJiSQS0SIqvl1Zd3kr4WW9LAlh/BB/i4l/pkBuJ77zBKeBIZ+g2scwDdPGzX3p5twGmzAM66058ps+c3khF1XHgvYrfYsnEaS6lrzjCf7uVh5iZDJstKLKry5/XYJGQCOgEbjdCFwaebndsF333smcE267dpOXMfNL0jwUML4oD+S6d1G3TyOgEdAIaAS+WQQ0ebmlop8cd7+5jT0mnApngDnqo899zhebD/GOeUN57SG4pdLX3dIIaAQ0ArcbAU1ebrF8jX6DW6M7vG9qgJGZQJqXQebK1fkHzN1iPHTXNAIaAY2ARuB2IKDJy+2Qo+6FRkAjoBHQCGgEvhkENHn5ZkStO6oR0AhoBDQCGoHbgYAmL7dDjroXGgGNgEZAI6AR+GYQ0OTlmxG17qhGQCOgEdAIaARuBwKavNwOOepeaAQ0AhoBjYBG4JtBQJOXb0bUuqMaAY2ARkAjoBG4HQho8nI75Kh7oRHQCGgENAIagW8GAU1evhlR645qBDQCGgGNgEbgdiCgycvtkKPuhUZAI6AR0AhoBL4ZBDR5+WZErTuqEdAIaAQ0AhqB24GAJi+3Q466FxoBjYBGQCOgEfhmENDk5ZsRte6oRkAjoBHQCGgEbgcCmrzcDjnqXmgENAIaAY2ARuCbQUCTl29G1LqjGgGNgEZAI6ARuB0IaPJyO+Soe6ER0AhoBDQCGoFvBgFNXr4ZUeuOagQ0AhoBjYBG4HYgoMnL7ZCj7oVGQCOgEdAIaAS+GQQ0eflmRK07qhHQCGgENAIagduBgCYvt0OOuhcaAY2ARkAjoBH4ZhDQ5OWbEbXuqEZAI6AR0AhoBG4HApq83A456l5oBDQCGgGNgEbgm0FAk5dvRtS6oxoBjYBGQCOgEbgdCGjycjvkqHuhEdAIaAQ0AhqBbwYBTV6+GVHrjmoENAIaAY2ARuB2IKDJy+2Qo+6FRkAjoBHQCGgEvhkENHn5ZkStO6oR0AhoBDQCGoHbgYAmL7dDjroXGgGNgEZAI6AR+GYQ0OTlmxG17qhGQCOgEdAIaARuBwKavNwOOepeaAQ0AhoBjYBG4JtBQJOXb0bUuqMaAY2ARkAjoBG4HQjcGvJiGgbG8QSSifjtkIzuxY1AYGwO0OsMYKZzyOfSSNyIVodo5NiEYY4RTyZvT59CdHvmEdOAMY4jkUxAWZVQdsbnvahVL35+DNMwafOStHmLn172iVD9Xbbw6/belchNdZryG/TQGZhI5/LIpS9RiC6cb4tML5e8GH20uyaypTzSURVVGs+Fr1mDt438nUd4n3qGv0YNZBa+pB+4vgiM0C5X0E6U0arnr/XEOWpmkfnlAy4kmKkXf2FUvx3aN6yk8cPROe6/+Ypu8bK15b+Xudmro9wYIFdvoyxF2M7fwaP3KTz7a4SG9V04O+N97xLwG1aQ/uEI5/ff4OsCAfn1LVyLwvU3XFnLPTVql1FpJ1Bu1ZG/5Pn9SuRmwTBCM5vBLx8mlgMvqGNXYzr+e5kupwnety6JvBjoVgooHn3AFzgHf4Rmt/O48+j9whdSzzhh0Oho8rIQqugPWCsRXM7qO6hsZZSxj7dfOyhEb/UVvdFFMf4zjhOP8W7YQh4DDMwd7ERm6VfUXN9q1Ord67G8HPJCb46tULPegmsgc3viApwE9LaQF7++hdO6/3qiG6KS/gHk0Nh/+xWdtRiDYJ2/MvJCshn/+RiJx+8wbOWBAT23OzuhF/hj2k7T5REMJ8/wBDx8ef/dk2snL+NhA/nsc5x+2UBqc4zzz0nHyiVKR6WhU6+0i/ju+Sk2KfBBfWdakPa8RAE10rP2BIYl5Te/quCyTfTbHQwTOZTy15gJDKtc+f4K4+E7jEm0b+ZHTk4+q/dLIS+SpFChuOBweqiugcxHXbR6JjKFIrJyhX9byAt8+hZOX/9r8gKY/TY6wwRyy3jvfTsZrPNXRV6GVdrVXw08fDfGMqbDbud9vPnKBVQ4QTqe+u9lGrnJAS+snbwIYMvmM7Q7DaTra5z8pCfG9rS4XfO3RyDrEuw6yvlvyMs6Wn4FZQROxFdQ99qquC7kZW0dWmtBt4a8LI3KbbSr14C8rLgo1OTFVui1k5fxmEl+cTu9ba2TX0jy8rGfQzPPfImzz7iIbWK33Ea3kZvNnRgP0SoVUeuc4Zxhx9jGFnLVJtpV13N+g97soV4so977hC8XMWxs5VBttFDNJydPG906SpU6ep++WPkQsdQ2CrU268xMEv+AHsrpArr5DkbVEYqFKjrz2hyiXhhd1EsV2TZVbwft0tSDYRCLTA2oDTvYaRVRrr3HJ4HB1j6a3Q6sR40GcnxoMP7CPgp8Nux279Qw7FWQlL+jNkArUUGufIJzbOJp10Azx9fZ/zLx7A3P5fsOfBeVLXFpp2VdE1THdLGWUKx1MTwXuPpj3yunUejm0RlVMSoWUKWMP1NOm7tl5l+xX4vi5ko3ukOc253HVq6KRqsKW8QmWvQIVfpjfJG/bwhwkiV06XXM+umMKLNSQr09wCfxDtue2i5Q/9o23tYnoj6E1GGjW0Gh3MQHW9GxlW+g2ylhJHBqG3YfBJZWJxIodhiPpwynnpf/oWYUUKr66Imzr3N1z0Ajl6G6uDDDDvWwh0rS7rtX5iZ6depovWfhZo/TBlrVPKajbRa/dpJ622c+yKRtQ9R3sqjH3d9LOQ6L1JUmMta44DiU/Revr0xePvaRbxG75gdbB7dLHGNNFFyNn7UXfrrho1SOnJf/1QwUSlW8twcy9ptddDxjfrZvgBhPRRQqXYmtHONWVVk06K0pOXIJQ9lVq0wxRjs4U/rGsdNsV6fjboHtcPfUGs/ttNSTJcaJo0C7rGCdn8ibcss188yzWWA7Qtjbmf6YDC+nK+i77GqyRJvWoOVYNKZ7ZaQLbRhf5Lwi7XKiyDlEDNpQdub2ENK1kxensK6cvNA4b1x8Abb2OPnSAPdOOTBn49jWJJG8h1efN7H3rIoSI1CDdgNH788R238Lg4HVwPnNpOCTTAy+4CSwX+LEY6DT6XBiSE4SrkySrCSD5xc0tPulMnJg0nLnmM/QrsyUr5QohdT5Ocx5bQ5RL7UX2cwv+IAtPKyJiZZ5R/U6jgmAM45vy8REKsWQHtu9u79DMjLAid1AvDVEnkkX1VIT/UEXp/w6tZfHjgAlWUSzWURSGk4zlcKYbU9s7yFt9pFsjNGJy3ju9j6KpQKnpwHajSMQXmwf/o1BeTi/7ICkyAHb/aMIfqd28bTMQTxqodX2ylcZoFTqHOfmFvZsRcCprQhM6K7PSegeMMb+oxVjT+0+RZnGbtRqoX1KosrcLTupzkS3ykmoP0DXBgd5AQ6xaRCb6aSpRoLByfM7HAxT2KU+lLNJi9zVj1lm7CHejakH1qMR9CGsDsvYOrafol7JIkFj2xBJqb0hyr0iqiRo/RMa6M1t7GftlueqHfDRCXkRxPXiS8JfT9RAWah7SX/MSEGKzSaKST+DapI8JOkev+ACYR8lTsYGx1qHepoMSIy2Zb+Nw38GqCqCYNSx890BzuD6XuG9+xv+7Zdh+CQor0ZeBCG8oN7YOpiYjDG6+ymHosROJX1j6yFqgpSJCbF+TLul9M2HuIivFHmRNi+xu48djvnByQcuJGLMEaFtKtiV+IUA1XhK7R+iRjZldGo4OOGbHF/5nQIqHRIOhVEou0rLWk7i3qvP2Nx7xjFuGVY0jt7jXNkV0Zx5tsMnpyVYBiHspgu6IcfnPJ2365qVW6DtWKjzPon7pr9dTRYbaBZHi+elIcdKlUSnf4Izzl/b+1nb3pAgdqi/0ezMzd/ccrvIC+WYevanxWItT4HJCf0uJ/TNZ/hIxi8yZfocYD+9Ah7/YaBFsqo+nUIcD07SOPybk6t3BrIe6xXjuHcM7sAgMVDWh9+PWk0MC2VOQk3kWN8pdz195K6naWaOWP39gIMzeif+pHfCWp5Lgx2izQvrTZhcLd/FL6e7+O3fPsoT9iUm2+9xMCIpGdvJr8qQIXYfr8XqShr5Hv9x7/fP2Hv9Fb2SjUoUZcXTAAAgAElEQVQg+ZwkWAq8PzKM58hB4tbhvpEhkXJuWZd93T7EP4OqtWoOJrY+ExknlySFZu69hsHGTbon+pR4gJOLPfabpJQ/qORENgx/Ck+IrQjEnPh82MSzj/QCOJrrtG+2bpjEwCAGUwo7FoT2wQku9jjRcfVj/RIhbDTq9xHPZme8BXb/nXHv8PoQVoe71Nefj7N4/bUHKVJnd6c6OCfnZbGehNe9YMx8ZE5yFbcHG8lecSpzktbmsICyz9YTkwPrLnd/7f72L8e5LT/1nfj39uE/GChWI4ndjnzWb4JfjbxYA9uhg5zLJQHffPonDGEEaJ8seyEJ1HTYkmB/f4ARFztC93w/kzEYw/3XI3SnAxnJe7/jM8fKVzmQvX2TyeY7L0ncKhJbKce+D6EOYaMIuDVGaVhhzBpWxDl20ly4iFyPCemyynTZDp+OBsogTJt8gVsUNnLLzc92RNB5nzb42b6wY1oUFxQ2imRnbsHO3NtFXhwkRelMK3cHT05VchNX1kmurDElMxPdkmEp5+Q9q3ecABL38Dse4w+6/3I+SulnPN3lT3N25CBa2ObF9QJsz50nOHUYLFWvPVDGk0lbGTJPPwcMB/14hLgjp2ghedl1Gj9/G2t/K3cNEHe1lT0KeRFEgvaYdpGufhfwbsNsD2wfksIX7zw5nbP1dx7OateDI0kuAnnxt6H2brrpVuSw+hBehxVBmpncZhqzOOdlsZ6E170o5GWezAM1TS1WHGTM0gfjPu6P3uN9xvayCJJgl8/FivTSrJ+8+Oigap8i8VInvTZH6tvYx05NB7a9Vdoz5qV+xN1jzbnt3Zb70JU/aGOQxG//4wLIIv1hdVIQsyQ9o0zu9ywOZBmqnYp0hbQdgeRlod0M0pJF5CWM7Yig86HIS/gxPY+8RLIzmrzMm7D+m5wX9zkvsyxVrW5VjN/RfhmH9E8IdgxkH4IQRBRm0PGcyxAce/Rt85x6Z1zI7jP6ZL/UJBm4i8RnMl5IXgLPmDAxYGy/2ezDsEAQf5/iPLkcebHx2PP3ILhyoQJ3DMjngs8tcRlZl2p7yo1IXsajHsNnTeZXcKuw+Iz6OGGOk4e8+BiVpXWY4cZC+hFOGDGLpe4zd6SOWnHHERZdTF48eLn77QxfLNC9KORlrswDzY4M0Z0pkml7GPrlv9A0duiFyskdGpKopt2ewNlzbVbzvPgdESHrTdjjgDFK6yydSU7ZjDkSeQ1zdpQEnvMStFBw9q1HXO7hOM0w6lCFUWXI1PALZXpDDO7Vv/J4evsi85yUXkc4n2Y6UYc7aydcIusi8uIjN7ftiKLzochLtHlpXj9XsTPzZ/Pr9+vt8ryENfxbj/GaybneT3xmq+Ts78FKP0teArYWr0pe5h1GpeLIey/QYFKw95OcbDW8dPIymTCZeLjLXBmZ5Lo6eQkw5OsmLwE4r0JeBtUMfvz1E5ixiT3mlljhgVXJS2gdNtBvVEhcjhknZ70b+3gz6sici/WRFzOE7kUnL9G3gxo8RuG7g6G9DTXOEOM9hhaFx84Qnq6e/T2TJoXXIq5CGYRl/Z4XP/Iy6xWxyQvDlC8a8B+2c44LWIm8wAp7/3xMVmvpZIJbkk+pHwxBzYTEwy6wVChjC49fi1wZH8ua4blfYg/6LSIvoXQ+CnkJOaaDyMuqdub60ZP5LfrGyIuM9To8AOEFpgZycNKnvX//fCZvZFK+OpiIcV7DSroIaxgW1wuVlBjitM3LJi92nkXClVO0WtioU7jDfCT/fBV7sjqbYL6854WT3B3mz/i4o7l/yk6GO3N4f8J6XpRs3HkNHk9QWH1YVoe5E6RBMsmzkjiDy7Np1kBeIuhedPKyIGnVb/AqIs/ci36iRHKwYx92KEM2Q34/zFSoM+bM+UVXQ15kuEGGjahUlu4udYrxKuRF5P999xzxF+/+n72/h04jWaNA0e0IbiQc3CUmghOJiYSTKyYSjsxEwjcxjowj4+At4WhQRiYmMlovGByZiYySOygaHB0UDXqJUWQcDUTTXjeYdnRQ5Lerf6Chu6FbAlmyvl7rrDNG3fWz66uvdtX3UygQl646Ho0mGSVUQ8HLV23pplCRITXvA+T0+h7ISxiZD0Rews1pT/KyAj0TfC28GW9+O/Ji350S490pQa4jChgqvdhsZDtaXSbrr72Aub8dD3oYxDNID3wcS1V4bTZO35uY22F3qWIIUG+MNur4T3ijz0YyeOt2n7Tvvmajqb/MpLwFCsj7uH/2uFydDc374kzb6l7EdYYB3n956uHgZ0cHzTvsBjj6dYHjkI0PTAfvdOqlP1CSBv3RZRx2LazGE9JqVqzTqfz+q7NLmI2uIsPzZMXfVBac5AaXPZu8zGPhReRtUuoy4zIctDeII2OEv3lKuJmVdfwET5LHOIbt52I5Xg6t37VZU8jqyctc8IAac8uheOKwazuizzslB1kbrkJe6AR8j060O6//RpenP/7qNyihVn2z56hXHi5Hh24KefEwwwff+ISQ+UDkJdyc9tSxK9AzQcTuJr2zcvJiZkQ07fqDZhm/cqM3ORaNppAvMGSTfzOZ+gU255S6LzgrIS8s3V6IItt4wTDYKkmF2ln3GTFUbeqoDOgn4NMInZM+rqJO1LeNOspphgbXmFfleIwiw2jrDKM1o1p4GssQxGa1aIQKq/8/OPnMwA1n5EQIxbC0XioPO0R7cw+vW2oHRZT1ATpsZ72fQatbMUKEgy9KfNnCPLJ7yFw5GfqtaAzVm4ZKe92rYnrNf0aCmZA73Fmq8NxS7jnYfSP6YkIu/cr2PJEi+WF4++881t5+0UC9bIaU1sslvDm/mCE1wRWQxyAzOsOI1LDHl6G6GnPDlEtvcH5BQuQkNUFPXuyIksguXnNuFOL0/2HukvzRuZEDKLzPS1AZVqddGfRy9D2qZhnpxAgqXtnx9HiE7deMuqGD5cSRepTAk3dtVOj43UvWGc4dTk6Cyt6EpBCLQ+KaYSi+Vqh4h0rrPC2Jq0gye8zTjLypoUzz17i4eIG0ZVCNsDPCyCZE6vcJgbDEYOXkpRtB5OICUYbcNxp0huf8K7w6wWc4IwKn4eCbe6/RolyY07aDRr2OfqaFLk2O3hzN726jID4vDCVPPYCyZDqfyEYCqVwVLeZqMQ9ggusoKlYrzYAaL6YxMGSOmrXP6LBqE3plgJYZ7hj4TiajBSHulwrm82I737tlPozuCC7z7tHz9CUMsS7Zspp48g6MaEezl0S9wBQIKnLtCnrGd+29oX9YOXkxj/j9eju9r2ayyAW9zM7aLXg71FpH/h55PLwEWmeitVzhCGdqQZ08EWw9qqPdKS282HHIpFPZ5yopm/0wEd6+MxHeEM18FiXmTLCv3aKq5DtNtHlsP81PFa7Ny+tVIdtsm0oYN62YnprMB1BsosukS0aaBcu05borxHMxnlNyW4d08CMJslLjjxjK+dUVytlHLZPFwRnt6cZD35cnLZT1x3g1cO52fcqGDy5M0lfOFXDkHLRIwkjI1XIk/zPlz8PcsNRh12ytl2xEEiqBHxPKOY/Ug5IXVWa7gPTj46nMbO7gsJZB4/kRUpOLD8PJQxAZ7rOO3AETpDlkXI1Fn6uIfW6h87+TT0+Yj8R8bLkIJyfBZE+VP7HLG7Vt4fAjUxOkfPrOsOh8lsR3OtmYbJDZu5clG7RONEihZ6+2mIQXO1MWmP326q9blvzHyKlJjO/6DJNuxSmzB5hMhQ2Oe6eLihm/bz1e+kJN220Um10m3PQ5YfKdgx7kxTXnLaIx3qMcckNmSv4k3xUZH/5mSoOk31zk255EwWuOKg2w9Qj1Njcxxu7JvFbDW3c4UTT/O8wYBCMvaqPnLfNhdUcQfevukX8gS5A5bQ7V1BHf+Lelh6+qZ7zaepN/Wzl5ucmddbXNuhyQBl/EQ90rb13uxe9i/M772NW+m2nRO2HRClIvEy0aF3ex7Kj7wr2wNar37YvAQmFkX7y4xCwYuuzJbeNhxyxcz6cYzl0iGK4Yx9vTsQuF47L6lsqwXe+iCzZNWY0GNeEuaFMg2bNNxnGajJf1byJ/SpwDmpgDlHmdr+iaxtyzy+TVMU5r7qe5c4965rSaTS1xWZSm99JFA47xZWu6/HfXLPNhGrp0TpuFGXLl0vFr0jNh2n9N795t8nJNIEs1goAgIAjcFARMk71HQs4xzbNJmmcdOWJuSpulHYLAPAJCXkQmBAFBQBC4SwjY/hU0Z2/vMsW8Ov7Sh+j11F0+mwxGo3+Kn7nqLuEkfb3RCAh5udHDI40TBAQBQWANCGg91Bka3eYdXf2hjlgyjUy2hEqV/llBbHlraJIUKQiEQUDISxi05F1BQBAQBAQBQUAQ+OYICHn55kMgDRAEBAFBQBAQBASBMAgIeQmDlrwrCAgCgoAgIAgIAt8cASEv33wIpAGCgCAgCAgCgoAgEAYBIS9h0JJ3BQFBQBAQBAQBQeCbIyDk5ZsPgTRAEBAEBAFBQBAQBMIgsHLy4p31z6tJVibA6KoymIbptvlu6Oyuc1UE72v4tskXK0TAyFi5JNNxmKyvQcpbYfPdRa0uO+hamymFCwKCgCCwJgRWTF78L/JytT/kBV3r6H/QuzC86w7R13U0XsoMjIDvhWuOEnwvrPSoJUh5gRt3mRdD3Kt0meLlG0FAEBAEbjoCQl7eP8K7rx0UfEfKuqfDdUJ0h8mLfW/Rjb23ZHYwg5ANIS83XVVJ+wQBQUAQmCIg5GUZefHd5d5d8uJ5pfsNnlVCXm7w4EjTBAFBQBC4BAJCXoS8hBYbIS/38PR9Avsfh6inQsN39Q/EbHR1DKUEQUAQuNUIrI28fOjl0MwX0Tj7jIsILwArNtBp5BG34fLzeRkP0CwWUO0MMPpyAUQ2sJWtoN6sIDf52CpE66BWLKPW/QT1KiIJbOeraDWLSEWd4zJGr55HsdrFJ74Y2XqEWrONePX/4CLkZzbSUM+mUO2P8cVqx4ZRZhrVQRfl+PTk5UMvi0auhOa52dedUgudehbOK0K0Tg2lSgPdwchoa2RjC1n+u1WZvqfxm1QVLL+NdLOAUvU9Pql3t/bQ6LR54+siWeuilMyjk2tjWBmikK/gmO3hx9hrdNBWHw+b3r/bxSrsy0XUWn0DJ36MxHYe1XbLrFurI8sG9sdfrD5swISkikG3bI6tPX7tc4yW9bPfRKycRelkBGy+QEdrIBUKAw2dGu9jaXQxGH0BRxYbW1n+u4VKdop+uJOX/6E+LiBfOrGwN2WlnJkKlF95aoyL5Rq6n1RblDhuI19tUZ5TJk5OnAPLeBulXJmyNZrOo1IXmQdHIHvC8Juwp1ut86TxgoAg8B0gsB7yQsKxcfEF2NrlYheD1j/BGdenyKN30DoFc1H3JC99lJMPcMR3EzsvUColud420TolOUECv3CnW7N3ujrJQ/wp3l+Q3OwVUcoCvVYbx0ZFe/hDayNvrV/9chIPzEKxl45DJ/lgkdiIqEXYj7zo6FRIvnhxWedUfbuLnHFjWRyFRgMFm7zM9JXd6p5y4efrv3BhsRvLPkd/PkZsew+FYp70p49W/QjvWez24d/oV0xWYp5o6EgkxhiN4tjZSyOu9XHi0Se37NlkKoHEaATdwH6M/skZRlzU9w5L6B8cuX5/8ueYN8iq0jTU0j/gYJDATrGEUibOsaqhdkzsI0/w55jl6x1USEJ7/Q5MSHLmJW7xAhqNApEhgYo/xJvPm9jdr6CYBvqtOo7Y0cjeH9DaeWPsZ/sZ4822Sei9OElDG6kQGHQKUfx8zO/3CijmjcpQP3rP/m7j8O8+LFjZv+UnJbbPS2RjAxdfYib2+gBdS/b2P/CUhVWox6s8nSDGn77HBUnpHvHLoodW+9iUe0ff2cjLyfguiW1MM8eTbYx8+YK4kJfvQAVLFwQBQeAyCKyHvLAlif2/MKhnrB2nrbA38eIvDY2MN3npleL46Y2O3bcausXpznmsFr3HJ7jY/Q3/dktcAHU0svfx8pRH945FxSAAtTR+PDjnRv4vaKoivYHs/Zc4Tezjw7BO4mA+wwYXg5en3CEvcdhd5vMy31fWl2F9Z5usjycVRn16Hz0thczMcZBFNrYP8U+/Ypxa2AsoWR7eDjsoWidNXf7Hw98/E5evxMVvmK3yjPZ84I7c6ik/iD38neTP+/fxkz8xNtkLhr0eopnM9HRs0iYNU5Jjt1Nt/GfNJub4Ac/+q6GZnbaznY/i8UmShGJgEIpJP0lIXeNnkBeD6S7FQO/3oKUys6ds7Ms9kojtw39ICk0Aw5CX+Xp1diT+nHIykT2P8nxkjD0lIfwRB+dTuQ8u4yTjXvNB75IUPsTvijwKebmMzpNvBAFB4DtAYD3kxblwWyDpJBL3X55NFxXXyQuVcoxKGc/wX73JnavzGXC3+iNPZCyiYROEHZKZniIzzmfOkZaLzz0uPs7FzH67mb2H56dXJC8efQ1ULhc2o0/Yx0eSKnWgZC/qLpLSp0mGZoLowsXK6rerPUt+d5AnT3m2yMCjd1/BAyTj8fZ5IUGN89SM/ZmQNrtAqwy7X3Y/d17/i155dvSuhoHROCR/nDWphCEvboJoyeXYOn3yIEO2bO/8xv6UZvujjrUUmTKJhhZcxtUJjcJTn9Y7GZ9A8vAdaCfpgiAgCAgCPgish7zwlMNekCf1WicAMXsBdpEXa5HdfYuvHscLMwsQzAVqzBMGzT5hmFQ0S3TSxk5+9uRguqYqc8IVyYtHX73zx+jodxo0r/C0wGiA+vcpRnE3eXESBYstuBZk93j6RT+F+3087NKk1UB7ODarGPZwQt+Z5eTFPvmh34npHDR9LB8Z+6RgUViy79/8TsB4qtWhGa/RM1FVp1zKzOc0qYQhLy7s1Slfhqd8Z1M5mS/PbPOYp0j0k7KP9uzez8g5kLtHU2cQGU+5T+amIu4maKLhBAFBQBC4SwhcH3mZ3y36kRf6xXy1t/iOkfAiL94Oi17kRacpQ58xZaiiAyWpW2Y2CkJe6J+TTz7FyRc6wO7QT8SwZtw88tKvpPDgVzoDbW5jN5M0T7TCkpetZ3hLJ2T3E0UqX0CGha6KvOitPJJPT+iTQz+dHH1U1kJeQLmZPaHzJi9uM5qBgRd5CSLjNnnxOl2UaKO7pKOlr4KAIOCBwPWRl3nzjYu80MH23mOceJhhJs6k57t4+5XH+IMKTyJ+xchzB8uEc9GfcRwzzRdx+sD8QB8YL3+R6yIvtmPprC+Iv9nom5y8aDWkfzjA+fxiGdhsZOHuOEnym3GrIS/2ONPMqDnMjFc0G7lPXtzmGxd5oSPPj7+OvH2SbGdt45RwGFzGMSvHMwc6Ql5EmQsCgsAdR2A95EU5Yv41QH0SXmofvS9y2PV3wgVPbZL0+RhNnCZ7jGr5CW90khlN+SRMR9F2sIzZDruWuWrsjHTi6+NeGamfWGZAh123ico/Sd08KTL/bRGvSVMtXwqSrHmfl29CXqwFcb6fOp2u77868zAbzZtJHOO3JP/JasiLj5lx3jw5OWFbnJdlEm306C2GneLUaZnlxenw/HmRwy79ruL0VNZJpjVV/2SM1WlfnH5VMctRPYyM23Nmvt10hs4l8fz9hTjs3nHlLd0XBO4yAmshL91IBBcXUey8oC9CmQG0lQJenTDniHNX7xUqbS8UkW28aNRRZmIXrcP/L73B+cVsZIrtJInNPRw2q2ZYrvr/gxN8ZqTKO+aAKZh2D0Z8/IcRH4zcfvYOLYYvD6oMBX5zhrHRzuyS6wGsRTKyi0O2JcMwYa1QmYZKBzAbmVEjn5F49ifzkqQRY9tKuedQkHAFuhnkxY6YYT9f91rsH81aNeY7OTo3cpbMECrrNCaye8h8Nhn67mgocIzjNslU48cQ9yoXbnVq1m82UG3qqAxoPjMsKWZEkfuUY8HfXKcNFoH9nMCzP5nvhzHbWqeE3HOOvwHrNAdKcJ8XDZHIBS7ie3jdrCHLk7tiUcne5kwElbs8m2jQ4rZ3iGa1aITDq/8/4CDPpAgIIePKQ1qF2F9sUPbaDWKnQtVf4USLIHJxIaHSd1lzS98FgTuOwIrJi2n66TNMuhUvI3dwZoToqmdjhwtdt4LJYYxt+mEOjK8MhbYfncnOcoUjMLfd5IkkVJI2JkqbzTzHHDB5ZJlMTCVDs5/NnX002/XZhHZ6G4X0YxwzvNR8Eth722UCuizzv6SWkBeSItsXxPh2C4cfGfKbssxciV9IPmpGtJD9uM1RfdQyWRyc2WjQ9+VJC2X9MV4NHOTFMj/s/fEVDkg8I2jccuvXnuC/6+0C0o+PeRplPZs7OKxl0Hh+hJQj2kjlKqmkHkC5x5iQHOIjx1Nh4DV+Ktnd1qM62iQXRlSVXz8X/c3LVNKvIZM9wBTWBJ60ytAfv8LAQV7a+XsM1Z7LEzQHoNmmFN7+U0InMysrT/5gzpb8NEOid3lDJmU0E+5NxZEJC/ebaNeZA8ZRXxgZ7xP/7Mw82ieOGdTuP53po1se5BdBQBAQBL5fBFZMXuaB8rvUcDmgY17+p6uAF9eFiO5vdU2D8WosjthcoIvzbbPMKGLx2GzG0+XNoZ2JfWGDole5jNC+0HBJO4M0Z33vjKFrOvGMIk6cFj02np7vWX3lqCwt56p9Mcf/kuPqU/nlZcWS+QDtCS7jl59HV8VWvhcEBAFB4CYisGbychO7LG0SBAQBQUAQEAQEgduMgJCX2zx60nZBQBAQBAQBQeAOIiDk5Q4OunRZEBAEBAFBQBC4zQgIebnNoydtFwQEAUFAEBAE7iACQl7u4KBLlwUBQUAQEAQEgduMgJCX2zx60nZBQBAQBAQBQeAOIiDk5Q4OunRZEBAEBAFBQBC4zQgIebnNoydtFwQEAUFAEBAE7iACQl7u4KBLlwUBQUAQEAQEgduMgJCX2zx60nZBQBAQBAQBQeAOIiDk5Q4OunRZEBAEBAFBQBC4zQgIebnNoydtFwQEAUFAEBAE7iACQl7u4KBLlwUBQUAQEAQEgduMgJCX2zx60nZBQBAQBAQBQeAOIiDk5Q4OunRZEBAEBAFBQBC4zQgIebnNoydtFwQEAUFAEBAE7iACQl7u4KBLlwUBQUAQEAQEgduMgJCX2zx60nZBQBAQBAQBQeAOIiDk5Q4OunRZEBAEBAFBQBC4zQgIebnNoydtFwQEAUFAEBAE7iACQl7u4KBLlwUBQUAQEAQEgduMgJCX2zx60nZBQBAQBAQBQeAOIiDk5Q4OunRZEBAEBAFBQBC4zQgIebnNoydtFwQEAUFAEBAE7iACQl7u4KBLlwUBQUAQEAQEgduMgJCX2zx60nZBQBAQBAQBQeAOIiDk5Q4OunRZEBAEBAFBQBC4zQgIebnNoydtFwQEAUFAEBAE7iACQl7u4KBLlwUBQUAQEAQEgduMgJCX2zx60nZBQBAQBAQBQeAOIiDk5Q4OunRZEBAEBAFBQBC4zQgIebnNoydtFwQEAUFAEBAE7iACQl7u4KBLlwUBQUAQEAQEgduMwHdDXnRNwzgaQzwWvc3jIW2/ZQiM9T667T70ZBa5bBKxW9Z+3+aOdWj6GNF4/PvpU9ix0TVo4yhi8RhsrXJb9My3bmeY+r3n0Bh6v4t2X0cym0M2+d3MrLBSKO/7ILAe8qIP0e10MRyz1mgS2VwWoWXPUp5LRy4aJ2FpIXfvKd4n9vFxWEdq6Ufyws1FYIhWqYxWrIRmLXejF85hI4PUyzNcWGAmfvmIYe37kL5BOYkfj0Z49O4rOoV1S8u3H3O9W0Op3ke21kLJGsJW7h6evk9g/+MQdeO326JnvnU7Bygnf8QRpvrYC1+FqPcciqKRSeHl2WRm4ReOwXcytdY9me5M+SsmLzrahTQeH4/mANzA3rsh/xaCPbdyuPf0/dKBSOxzwaDSEfKyFKrwLxg7T/LPdey+/coelJH88Qgj7OGPr23kw7f6mr7ooBD9GcexZ/hz0EQOffT1NNLJa6p+JdVwd6vpnieW6yEvPM0xBYobDkcHbsCYm0QFcBLQm0Zexpwz+txJkLcY3Dzy4oUv4DOHBgVEfz5G7NmfGDRzQJ8nm+k0burUCj4uK5m0UoiFwIrJi5o0JegvGmhUc0hGNfSqBeSPzrk73cVv/3ZRCsxfLEVnD1WrgB9enWKTAt2vpacDKCcvaxNmcwGDY+e5uqr8y9bRa7UxiGVRzN1UdUUcBhWSrF+hPfkTYxLt2/lYi9yjd/g6d7yyFvJikRQKFDcczhOqGzDmww6aXR2pfAEZS0fdNPJitucR3n3lor9Q4G4eeYEHvn5zaFCh3vlVw5M/x7gNUyv4uNxOLXFTW71i8sKdnE4b8QxB0XkEeJ9HgLjaEbR1EmOetMwfzX/ryXpTh/dq7fo25OVqbb62r30X4mtrwQoquinkZQVdWUMRQl4uC6rbbORZks8cWqfeuWyPFn0n5GUdqC4vc8XkxecQ0zqSvZL9PCB5+dDLopGjv8T5Z1xENrFTaqFTz876TowHaBYLqLbPMaJZNbKxhWylgVZl7j2v7uhd1Aol1Lqf8OUigo2tLCr1Jiq5+ORtrVNDsVxD99MXwx8ikthGvtpinamJ4x/AU6hkHp1cG8PKEIV8Be1FbQ5QL7QOasWy1Ta73jZaxekJhkYsUlWgOmgj3SygVH2PTwqDrT00Om0Yr2p1ZPlSf/yFfVT4bJjtTlcx6JYRt/6Oah/NWBnZ0gnNPJt40dHQyPJz9r9EPLuDkfW9A99lZVu4tJJWXRNUxzxCLqJQ7WAwUrh6Y98tJZHv5NAeVjAs5FHhGH/mOG3ulNDqsF/LTv5s2egMMDI7j61sBfVmBeYQ62jyRKjcG+OL9fcNBU68iM6gjoyXzKgyy0XUWn18Ut+w7YntPOWvZeJtPCHlIaAMa50y8qUGzkxBx1aujk67iKHCqaWZfVBYGp2IodAeGmM4PXn5H6paHsWKh5w4+7pQ9jTUs0E5I1wAACAASURBVCmKyxxmSFMOuyjHzb67x1xHt0YZrXUN3Mx5WkezksN0ts3i14pTbns0PU7aNkAtnUEtOv+7NY40UbSHDaSMecF5aPVffX5Z8hJWBpfqi24JyXwL2hdLn1jzMVag7lCD5Xqmm7kPvRya+SIaZ6Y+3C420GnkXfjNtsFLPr0EW/2moV3KodxUupTzbJt1dUroZh7M+LyYesfG12cO/Z//F1L/7/8Pgzm9Ey9yztfVzLJ1QBvntjxzbjZaFce8ns6jPvHJFY5w9jmC3df0wyybUrO8rwHnYuhx8cNQfr8MAtdAXjQqjx9wcO50fLtEU4OQFyrnjYsvwNYuF18q4O4pld6sHdtYJOIP8ebzJnb3KyjSAtVv1XH0foTI3h/Q2nl/J1GdSiFOx+ALLgJ7RS48nLjtNheG+MShTGc74zSeX1DR7hVLyKKHVvuY73CJmCnfVjAJJEYj6IvaHKBeajFkUi9xhi08qaqFVkOnVsMxAXDa8c1FSUciMcaI7d7ZS5OM9HFiNhB/aMrPpIMKlVyv38Epf07s5pBWi368gEajgLi1Y9ITCYzZ9tj2LpJ6D/H6GO2oZa/e3kOhmOfy1EerfgTCi+3Dv9EvDRaX7eMU2We7H9CBFIkdvChRmQ+baLbc42svOInECCN9C7umIODUFAQ6dNcWOHT36WhIpWtU8wIlLvDDZhOtUxJVJKwx1tGpUEH3+uiY4CCnwCE2dWIzXTRtGbfkf5DADuWhlIkbyrN2zDIjT/DnmHJgvBpCHoLKME1ByncA2y9QK2cQI8GoK6fU7gClbgEVErTeCcnd5jb2MmbLs5U2+OqEvCjievEl5i0nNhFcKntxb8y4hBYaDRTiXienOslDnGaSC24Q9lAky9M419qU07iPY7Q59ts4/KePis1utBrSPxzgHHO/23jv/IZ/eyVoHg7KlyUvYWQwkL4YEKMKF/DeCc6pt7b3MqacceFuq8HyIy8z+jAGrX9i6iGaCTXKxnT4TMdzbD1BVRFDRURrx9Sdtsz76WvnGCmda9dBPRzhxic+ddidNUP6zKH7P+KHfz/i45zeiRfqaBSS6JbiePjmMzZ396lDDMWN+tF7jGy9ZXRodh5p1BeZ2BB6rkt3g9TEQXhxXwPOxdDjcol1Tz7xRWD95MV2xrtqJFAQ8sJuJvb/Mli6cVKgc0G/zwV9cx8fuONXnjI9ToCf3gDP/quhmZ3i0s5H8fgkicO/ubi6VyDjxW4hiodcCx69IzFwOB8Pmw0M8iUuQg1kWd8p+/qBUU9Tzxy1+/uRBI6nE3/xdMLQN9YECdDmpfXGaJrL0jR3ukO/op7Dr0h56P8HB0OSkrHp/GorEWowvKUdumgp+S7/4+Hvn7H79iu6RRMX3+PbiYOlwvsDzXgOHySGDve0FImUM2Td6uv2If7pV4xdn//RsMdCxsUlzkHTd99CY+MmhyeqT7HHOLmY+lPZjoFsGP5SJyGmIFimy03sf+ApgKO5zplhyoZODDRiMD2iGStC+/gEF7tc6LjbMv4Swmw07PUQzWRmdrtm/512/eDyEFSGO5TXn48zePu1C2tI5xTBcrPRcjkJLnv+mHmMOclV1JxsMwst2SQagzxKOfcRms6JdZ+L8M5v/3Kem3+3f1P/vX34D/o2q7GIXdp618vH52rkxZjYi2WQ+im4vrBPgkL4vMzrFm4kTHLu0EN2GywSN0FVkfz/HGDIDZeSf8/Hc17ytIzE4uHvitj7kRertDBmI6suKm5os4obUc7NJDdGylfGqVfnSZpaDwy8l/Y1+Fw0NHlgXyRvGOXXyyGwZvKiiMCP+HUUubrzVRDy4iApNhzN7D08P7UnPCdv3DzOtMnMBDarfOfiPQspF4DYQ/yOZ/iv3uSJivvxUp7z5U99dqwJsrTNy+sF2J57z3HKxf2rzTwm+kEtkuPJom0raVc/+zQHPThC1OFTtJS87LzmrrUcIJzZbQMPQ14UkXj4uyKcPG6eA35+0TEViQdJ4Yf3np8u8LtahLPV/pFj4QhBXjynpiVvU1NqUHkILsM2QXr0doiOzVJnGrOcvCyXk+CyF4a8LBpzX1Vnb1YcDsiGPGiP8Gj4Hu9T5imLWqDN8rlZsU5pVk9elstgOH0RZpH0lyW7zgmRs+aFW+9ZMj/20JXWAPRphnnAU1y3Y60lo9HVkRezLgYPuDYfVl8nus/694aHng7c16Bz0QRCyMvlyMdVv1orebGP+l2788u0Ogh58TjdmRUsm1HbNn5HQyw7q7dDsCGiZji2B0GwSzEV4JQozHTTPq2YKFZ/J2PPNi+o114URuqYeD5Hn9Uve5H0jSLxWIyXkhePKBWzzzr6HUacNXq0iNv/PsXIdYzsFcnkxsXEY9f7BGFOLty7ZWsUXGRhXggXj6+r3JDkZTzs0nzWoH+FSn7EZ9jDCX2cXORllTJMc2M++RQntJhFEo/oO1JDlakMpmcWy8mLy09tvt+2XAeQvTDkZeGY++oP20Rtk0wzFLdX+oiGluYpVNaK1LGIanL+JHA2r83VTl48zORzMhhOX4RZJBcEMKiTS+4EYtYmxdYHE7+2GZWofGz8T3o8zXTG936blbm8QSFOXuwTVXc7LT+qybzx73vwvgbVzUJeLrOUr+qbtZGXfiWFB79+ctlXL93wVZKXrWd4S+dc9xOdCZWc/bu/op8lLz6hxVclL75EQekKMzeKvvsL6nQKdj9xZIsMXTde9Uk+tiryMlkw6fS3Q18Zy8m137kqefFRoqsmLz44X4W82HOB3ozYpW+JQR6uSl4CyzDTFdTLJC7H9JdgvRt7eDdsw7R6ro68BJG98OQliIlkVto1plH44WBgngZE1UJN06I6sdNU3qiu+XvSnC/RianBe15cD3kJqi9WRF7mTlhtH7jdX+rwVh3+KQtMfOZN1eskL1t49pbOuV6aO5VHwYhxX0ZeaBZe2lchL5dep6/xw7WQF+UBn3p5CtBHYKA8slfRoZWQFyspkuMEIHjTbIH2d/o08xOMZvxGJuVbNvYYfUQ0w+ki6ARZXi9sp8RFBMdqyLrJi+lnEZvzKbqa2aidv0d/JG9/FXOxOp9gfvmTFy5y9+g/42HGUxEVptO54/Qn6MmLPTbzdnY/s9HSk5fLyjAjNeokk8yVxBXcyk2zAvISQvbCk5dlDqMes9cm8vSN6MWKPAlNm8kOLZPSgL8PUmXKjD6Tv2j1ZqMAJy+h9MWKyItlOrHNRvb8uUwkqD3X3aac1Z+8mHXFA+Sc8terwfsaVDeb8idmo+Cr6CrfXDl5sb3n6R3HaJWKw2l1rtn23Skx3p0S5DqilZAX27nwMpFP/lFT40EPg3gG6YGPY6kKr83G6XsTczvsLl2sAtQbo5Nu/Ce80blTZaTAokTG4cmLhxnMdYo0HVvv437rmD42bwP3MrG5FYdOMnyfZNhtfrQdEOcddpcvHO5J5JCND0wH73Tq5W41SYP76DIOuxZW4wlpNWvW6VR+/9XZJcxGV5HhebLibyoLLifBZc8mL/NYeBF5e6FxmXEZIt4bxJExwt+8HttX4wmeJI9xDNvPxXLaHlq/a7NXiXwL8kJ7lrcjuqe+sBdJH/PpDBS2eZzz4K8B6qbXupK6ieP6JHDAbsO8Y3SAVcb2n5kfI41ZcZPPGXG5QofdqQ7wyvPlbOwCk1ngvl6GvAQZlwCgyiuBEVgtebGyjo6wge1HvM9ojpREM2U0rFwqJpO+wOacUvdt+UrIC0u3F6LINl4wDLZKUqF21n1GDFWbOioD+gn4NEKn131cRZ2obxt1lNMMDa4xr8rxGMWP6v6TaUK+zb1DNKtFI1RY/f/Byec5E1rwCbK8XqolO0R7cw+vWzUUGLYIfcCcDnXU+xm0uhUjRDj4omRsKYwrGiK7h8yVk6Efi8aQzWmo9MjjpMeMhPmMBDMhd3gqosJzS7nnYPdnog98y/Y8kSL5YXj778zXsM3szfWyGc5ZL5fw5vxihtRc/uSF7aM/QJz+AJ/t8WWorsbcMOXSG5xfcCFwkpqgJy92hENkF697LYYF0x+IuUvMrNPOxI3B5SGYDKtFPINeTmW7zjLSiRFU5Tye8uqO7deMujFyXtiOyAk8eddGhY7fvWSd4dzh5CSo7E1ICrE4JK4ZhsRqhYp3qLTO05K4iiSzxzzNqJcayjR/jYuLFzBbBtU0dkYY2YRI/b754i9oZtif8XwT8jIhE2zPUn0xbWPiyTu0K3TT7yVRV4PlekxZ6kYiuLiIYkdlPOd4dzl3X6mJOHMKOA133tx7jRZl01QdHTTqdfQzLX7nd1+XdQrI1BG7h20wfYwREv/qREMkcoEL31DpCeiG+W4+47K3r529UVHywDQJhkxTc/cZfVZtQq8M0DIU9wLyQrzt8PvFfQ0xFx2ys3xcAq/L8mIABFZLXri43+Pi7v9M76uZLHJBL7OzyvZ2qLWO/D3yeHgd6elMtGYmL3K2NIKtR3W0mWBp0dV6w2Ye2ecqKZv9MBHevjMR3pBJobIonYwmF/ZRNfGdJto8tp8m1wrX5uX10o1CtU0ljLPvM1NNNBJTNdFtmJcc2qatvT++YiYC0nMxZr6M1APQdcl8tg7xkQQ1ZZNUhlF+dYVR9lHLZHFwRi9R46Hvy5MWyvpjvBo4d7s+ZcMHFybpK+cKOHIOWiSBvUaHSfimyf9ME5OHuWGpw67ZWi/ZiCRUAj8mlHOGfwclL6rMdgHpx8dTmdncwWEtg8bzI6QmFx+Gk4cgMtxnHbmDM0zF3ByLPrW8fW6h87+TT0+Yx8Z8bLkIJyfBZE+VP/H/MQUKhx8ZkZjy6TvDovNZEl/HVWmbO/vLkw1aO2xS6FkzwyTE35mywOy3V3/dsuQ/RhZ8xv+Fk8Gg+kIJ0tQB2xosj/lntMAwgfaZNqIVp66jDNjju7HDjQg3MpPDGKMgrzYo1bGNYrPLpJ9+p1xqQGvIZA8wme4bO9hvd5Cp3cdTx3z3lKcQDrvW5HTrAP4hsvUIddZpXqi5bIyC9DXcXAw+Lk4pkf++KgKrJS9Xbc11f29dDsib4hCfuSluWUOsC+34XYzfeVu97LuZFr2zrJ75vwepl3kojQvc+G00xgvwgtjkFrfDvngsFEb2xYtLzIKhy57cNh52zMJhPcVw7hLBcMU43p6OXSgcl9W3VIbtehddsGnKajSoCXdBmwLJnm0yDnjhp13mKtq3DM5v9/fg+kLXNM/LNP3b7nMhpusDh6yElAWjTaH16GXRnt57d/lLYy/fV79Whx+Xy/ZfvlMI3G3yIjIgCAgCgoAgIAgIArcOASEvt27IpMGCgCAgCAgCgsDdRkDIy90ef+m9ICAICAKCgCBw6xAQ8nLrhkwaLAgIAoKAICAI3G0EhLzc7fGX3gsCgoAgIAgIArcOASEvt27IpMGCgCAgCAgCgsDdRkDIy90ef+m9ICAICAKCgCBw6xAQ8nLrhkwaLAgIAoKAICAI3G0EVk5eJFHPigUqZEKvq9XOxE39Ltp9HclsDtnkgsyaV6voVn59m2T79rTVShYWXVUywFspWre00dcxdtdRx82F//bM4+vHcMXkZdG9Etffue+hRt+7iFbeuSEvbUvh5Zl9t8AlbvRdeZtuUoHum3JvUutm23KL5uGCSz6/Fb5j3uvTGiZRyE2vnTDbwnupOm1oyQJyzqsiQjZU79ZQqveRrbWslPYhC7gpr4cYu2GrhHIrhlKzhkW3Dbi6FqKOmwLL6tpxi+bx6joduKRbQV7sFPL+qfgD9/fGvujXx2sjL50Coj8fI8YLFQe8FRb9PvR0GsmAiH3/Y3QTyYtf2vcbqPTs6yLmrwS4gYuT131oirjYl/ptH/7NO5qCzgz3BDLL5z2lQe9185uDfpgGnLNXfi3w2NkXgE7vzgpcd+A6fEr81hgF7qjXizdwHl+pP6v9+FaQF29lslogvnVpfn28LvJiXpym4cmfY3Xhc+jn+x+jG0hefC+HvHlKz/umYIrZVRen0JK6/AMvWe6Xk3hwNJq7GX55WZ5vDDtodnWk8gVkrmCZ9cX0ks0K/VmIsdN5o3p7EEO2mAu8ITLaE6IOr/Z/c4xCg+r84ObN4yt1Z8UfC3lZMaCXLe6bkxcqZ/N2+iHqi67V9umgkJfLjvwVvhPycgXw/D+dl2WdbD7Oo5KLxD4+DOtIr6XW8IV+84X5isQiUI+vWMc3xyhQJ/1eEvKyCL61kZcPvRya+SIaZ59xEdnEdrGBTiOP+ExrxjRRFFGotnE+oq9FZANb2QoarQqyakfSLSGZb0H78gXKEyOysWHc4BwrtNFLV5GqDJFv8Ypzx0mB3i4gXewhO/c7emWkck3EawMWa7ZC69RQLNfQ/aTKjyCxnUe13UIxOQeZ1kGtWEat+wlfVDMT28izzS3Hi91SEvlODu1hBcNCHpX2OT5fRLC5U0KrUzf74/Us6OOwkeXGQ5GKER69+x+qWh7Fynt8Um3Y2kOD9vfLtHWmGXoTuWQZvfEXs28WxvFiB4N6hq9efoxU+6Gx76kqxpUeehUnKxqglsmgFq1i0C1bcqGhU86j1DiDKQ5byNU7aLs6Oe3BeNBEuVhDq2+ODQcH2/kq2q3idIdntQHVAdrpJgqlKt6bIGKv4VW+hnYph3LznO3gGG5TjjsldDMPcIR9fOQC5s3vuigl8+jk2hhSNgv5Co7PP8/WM2T9Xr87B2U8QLNYQLUzwMgcFGNe1JsV5AzR1VDPplDtj/HF+vuGcXl4ml3sohyfKr0PvSwauRKabIeahzulFjr1LGbFcckYG1Wa48hK0YyVkS2dYIRNvOhoUMPs+1jf9efkC5y/xrg7Fqf/VTXki5XFY2Njw/lly0i20kCrMt+n2RYZ87NfQq9XxJAyVqSMqfm5sZVDfW4ezZAXnVjGn+I9HuEd9UDBCZxqS7mIWquPT6bw+esQR3M04p+qUj7a9DOzsVNlUW+UO7aO2aF/SIfj7KE4lmGq6loqQ9MGzepBW7+1KIPzPj9zoxxi7Az8W0lLPq1yZvrMsTCF2HwydQw7RcRC1DHTuhVj5FX2RJ8UqU8ojJFNjlnLHDPl11Tw+N0uJ5Deghd5ofkyn0apG+X/qEMNJh1g/npOUOrbWgmVRheDkbkGbmxl+e8WKr4L1oK5fs1/Wg95obLduPgCbO1S4cWg9U9wNuKkePSOhKEwUZyKRDx88xmbu/uoFDkK/RbqR+8xiuzhD62NvNZAocJFtHeC888kQHsZc0GiIm/nWkjyqEB78ifGDjtHpxDFz8cchrnfTRKg49l/dTSpMIaNDFIvz9jGJ6hWuLNSBKV2TCU056g6bCCTeokzbOFJVS0easBrOCbhcdqsTYWXQCIxwkjfwi4XF2pnnPI9vsgFr+a94A0W9LGcmZAXRSouvsSws5dmW/s4MQC1cLL1W8C2zsiY3iH2DfT6HZyyyMRuDmmWFy/U0SgkDaJ36TFi++1jXx7pYDhzpOM2w5hjB2y/qKHM83SNpK/ez6I78CELWg3pHw4wSOygWCoh4xibmfG3FKCeSGA8GiG+s4c03+2fkCRxwu79QbKSt0Gc+jZszMgvZTpCghdfRF5sZUM5YD268f14Ws9hCf2DI9fvs6a6PspJkiQ1FjsvUKLSHzabaJ1yUYMtmzo6FRKqXh8dc9CQU4NGClhoUJ5s8jIzD5U4nlK+3b4WS8dYFT2HYWx7F0m9h3h9TOwWaC0f+aKAodEoTMmL1dbYwrEhOYw/xBvqgt39CkyVUcfRe47i3h/Q2BC/PYIxP/u7eBQ9xXstgZ2ccx7NEpMpeamhZ4xFAvsfeCI5c+SiceH4AQcDllUsoZSJG5uh2jHHKfIEf44pCz6wuE3BQ5b1Hxycb2LvsIZ8nI7B7FcjWsOYmzHXswxTBJEhs9TJqRI3CnvsRxY9tNrHpr5egunEpBNg7Gz9OD3ZtduYYJ+r7DPnYPUAJyMSwB3qoHwZbRLSMHUE0WsTuQuBkQt/L30S5abYmKPb2D+Mo3Hw3tQzjt8P/+7DcJUKqrdc5EURlySenlAT7H+gPjUFMtD89ZBFU9/GuK4WUCQhmqy/7MOkrddMSMJUtx7ywhYk9v8ydu4ml7YFlTu1v7hTUxv6Xgnxn96AbAKaYhP2QwUUfXyCJJ3ilB+GerxNEl0UYw/xO57hvzw9MEuwfqOCJntxKBBL0Qytd/UGsvdf4nTnN/zLdkwUniIY/znAkJN2bGhknTuj+3h5uoPf/u2hNH0RtRSVzZDkYUySNWmj0XH8xcU2Y3Sc32f4/dkmlR93ywvOm5eZjcj88Ja28qJ1dNXlfzz8/TN2335Ft2jVFbCtXgLiebx65TFiTb6mjXnywl1t9GccZ97iq9mhAM+QO+koMlw4po9VruYYf3v3RqLy6O0QnSmIiD/8HZ93HXVafdb5m8Z2mEOuE+M08VZEIQB5McRgqlzUAMVYjxJLr9/HDqLdI1n86Y3OcdX42XQpVvIY47y42KXM8rTO+Msys5FRn2MeUu4zlPuzTZo/uDM1xDHoGE8wnOtDgFEym+pjlgwxNiY2SmVoxgbEftr5KB6fJKlwB+bi4PHYTrKz85ObGG5d/3Nwjs0Xf0EzFJOtb3bw6FEf7+lY++gdNywzRy5mBcNeD1GeHs5In9HPxb5jLvJiLWYaZUZbpCTm+uWHaWAZsvWgyxymdvQ/GmRqoq+9QA0xdi7yYgUIpF//y0NxS86t9vScG88QdXg30VvuAmO0rN8O2dC53t1/xQ2x0jMev28f/kNHbyUtAfXWHHkZW35XMzok6Pz16Ife70FLcRPvOPBSDo/3aCKdtjXgBP8Gr62HvDiVo9UpnYrhPk86bFD65Tgd4Ohj4VrUrd2rY0HxW9iVcn/4e2zqp2EIegOpR2kqncHklAWW0u7bk4Ka797zU8fCbyNvLXxjW7mTFN17jlPn4ma9aiqO8aT9Zhs9SIpV16N3X6kA/Ud4GXmZkhSrjD6P3AlgdHKiEbytQSf5KsYoOHmxSccsSbvMnHBhaStA1ziSVMe5s45OCYnZZ93Dcdn9rrttluy65H/J79uH+Kdf4SLoRcjnZHPEU4KvJHrq52XkxWMeNrP38Px0WkbgMbYx3HlNwl/2PeHwG6+l5GXp2Fj402w3IV52ZZbCdc0RR2N856dN6CZj4CYv80RyoUxabVk0390nL1PzwHTjs1zyvTENLkM5Syfv/EYCMd2ZmRVb/Ui4Tkwd7Qoxr1zkxSh/MOdjZ+mA+G/4HxdlY00NUUdQvTbZ5M5sfBfMs/mC/dq05Pd5K8F8se41YCoXb0s8dSTJjjs3RSwg8PxdLk7mG746JWgB1/feesiL1+7U2n3GrMlg74RsH4tply07vqMMX2dQi73HrTI17qJ+OIjj3d9Z1HiColu/m8SpP1mQbOXhrpvWQ8O/xlLutjCqY1EnO1WNtWz4tpJyH4taPQqgzExdociPY2GyPveNNpoXshBtDTrJVzJGgU9e1BF2HsmnJzyh4NHxoxLNeFUUDHPIomeMYZfmxgb9TMbme0PDzOhe5Ec0W36dYZBu05XZZx6b/sMj3hkHrSDRRn4OdkF/dxN3Z89dMraMvHjMw3k5CzzG63Kc9C13Hm8LG2WXn5+M1lxctND6zk+bMMamBHaKEU0X6jTwwstsZI7MeNhFq96gr9tE+HBC/6Jw5IWLEP3BHvz6iSXSPP6E/k30Rcgm55XO7DzwJi/BZajUmN2AzZQeZLwDj52t34ijHRDQZWqGh8dIMlx8ULM8yLghS3JDNrPIh6gjqF5ja5C7Rz8mj03pVBc72jpfsF+bQv0eQG/Z7bTr337NTY7tH2j+GHj++qlQnaZnmpobPc18Q/2bpmh7TV2ifL/pn6+PvMydFJigb+HZWzrnekAQTeVRsOII/SNZLFNDSu1cS2grEw2UKSiLavJHHMXMHW1X1dWdmnhs/5fdX+qgT5r7iWdRzCWndv7dX1D3fnES+ndTyIseoK1BJ/lKxigEeTHapfVQL5O4HNPhmf/c2HuHIe3+3hSGBCP1AErnb9IHI2NlBL46eZk3E6qGXSN5cZEsp6JyKNWVkZcA8zDIYrZAlS09eVlKLK0FZ+sZ3ipfCNcTXRh67E9e3CdqM/rGWlBHHpFGE8KxuY3dTNKU0WHvUuRFfToe0FGyzIAF+vAo99+tXz5wYfe3NS8kLwFkyCQvPhGGQcY7BLFw46+cn0kMaUs15m5MR++Uc57m8RnH6BB1BNVrE/ISACPPyMtQJEWpDmUROMJ08xRQbznMRm/zbTynI9yMyYhFh9HR8/hMNosMcjB8wIS8kNF6nbxY5hPbbGQ6C8UDheb6k5fpEe9v/3KXdP8pBlbiJ9OklKKvShXdOCdJdrrrNk9ozhfujsyF1HQIPfcRcqcwfHPyEqKtQSf5SsbImrg6fZt0p6PCMjLASIQ6J9SrU/jmnrHHcf7Y29dstHSBBE17phOb25x5HeSF/lP3HuPEw9yjIowMB9HzXbz9StOAwadMpeh2hvYPsZzHJvAYB1nM1kperI3KQodp/wb4kxfL3OoyGzlNax45Xuz5Nu83F+CkdWnuJgYPFDM/4/eR1wngtI/e5CW4DGWM3E4jD/M567CTVi7ywwlBLObxV749P7yK4pc/C7TqdyndQJSZi6u1wqwPRog6guo1IDhGxjybf65IXgLrrRmfFzroG87js/40geevqxPWfIrRD1SzfUYX6ZQFk/sb/Wk9Jy+Mitj/i4uP6bXKZ+q4ajuA6YwRvP/ylExyPgrFjYQp+A6lPcsaDAej3Sd76B93kbeiiWwnybTx+wkyTp8T2ylzLvrJXTOddOM/4Y3uESY59/JqyIu7j4HNRowSCNrWoJN8NWNkLQ5bh/h7UJmEL2uMb08+N3Nn+IYeL1kI5v2ObFmr8wTu1dnlzEa2b9a8XAZqr2doo2pVULOR7SDuYaawTwA8HHbHrgUmOHkJujCtvwAAIABJREFUPMa+i4hflt9ZKfMeq6myXG7Sc2Bjmx5CKE37eH02kICayfL7cDvsOk24tv4CJkTZwmMee9tpM6zZyL0+Ls+75Cf/ZpBBABnydE439XUzG6dvVCyYw26ATcG8fmzn79HJegev/2Zo/yLz2ErIy9Q3cbIeBcVoDeQlsN6a1xseYfuB56+rHz6mszn3jhBT7NpfXQt56UYiuLiIYucFbWl0gOxWCnh1QiPAzC7FjkCKMDS2iWY1axxbaf0mGtUm9MqAYWEmHvYCnnjyjuFzQLOXRL1kRgYoZ1wjckj990yEkcUsjat6dnkCQ4enie1hGg67ufcaLcX2+Tedd5o06nX0My222bQnTUIJN/fwusXYffNF2glVGG8GrW7FCIG+Knnx62Nw8hK8rUHJyzRK7CpjZC86jFJ58hZN7vb61SLlQZ8NPVZKKtNDjvbXKhUnQ31Qzj/FMXefr+l/QjFyPfbEjey+Rq/FsFvaa2vMlXF0rgb9cuSFW04z6uliA7uHbTA1kRGW/OpEQyRygYtAodLzhCwoeWGzqTyMCKjINl5QxspM7KJCxsulNzh3+V5Y5UZ2cch3Mgx31wqVaah0AJ+XwGPst4hYBJPx5vi6KGbaei+ye8g8MxneEaQxDYIjVDrAAkjvRMMnYqSwYfi4ISfcs/eblJmmjgrNLn5R2zZ5UUK0wRD0RoO+A5y7hVcnNE/Omgk9T3rthcMeg6Sld4j9a2aPLajwZuqR/NG5YfIJRV4UNpUoXvPeH6VfdOYuKuUOqNOe4L8Muc76LQt+mAaWoSkp29w7pA4uMgKNeXz4/wfU1/OpLVzNCEEsXPqR5vzUg1+hvHymD/2ZEinkqo4cMyHq8ITpyhh5lHrFk5fAestj0+NOmBh8HZ3tibXZ/ZzAsz+ZJoS+hRpzWeWeq/mgIgqXHyr4ieV1/b5i8mIex/UZntmKl5E7ODPCQ02FQaVFZTE5jDGYAReoXAFHTGQ3I8Jbj1Bvd6aXllFx5JNPwfB285lRlNPFkRpjxiFzorCcu9VJRUxul8+idGLal+0nQvt1sdllYq+pl8WwmTeTcs2+yMR7TXQbOcPWbe4kPC4zDHCMbNTt00czbf+IXf46m0/Dx2QQpK1ewuXrk7CKMdLbdLx9TCIyEQbsc3wztft4OrAXehKPTA4HTlmgLfYJE4C1JjlY5luuo11I4/GkYNrPKWe1TIP24ZQjKocnPj/+ipFrgfUxBfVryGQPcDYVXo/2eqFoHUe78vqE+11n8rZc4QizUKikhEygOHch4NTRU7VnC4cfGS6c8qvPxzE8yBirUzMvDC35dp5ceCuvqZ3f+DtP4j6yzJRfuT5mRS9sVGjq1qM62lS+fsmh7cXzxVvm2inPju1hp4uKQzH5mqktU8qFNb5xlRDz8TFzBVkPk5Qd1jJoPD9CakF0oWtOG/OjwPnhUDCqrE4PlQXpFRTxtH2+ZjA1VGtQGfLSg0xmuN9Eu878V96Daf4aYuxc+tEiomOSplreqoWbj1b9iAnfmOvJvj8qRB2h5C4URnMl+7Up8O8B9ZZt3prTJ/ZVFZv2iWuQ+esFzryeM/RtGfrjVxjcPfLiXlw0jV74S6+7t46e+Xl0/uI2R5HruR7cunJd1R2LI7bAwd+8fNB4EfFFLy6a8Ev+tqo+rr6tVx8jo28MgIzHF0QQjVmPCfLi95w42t8slbNwAxOoveGKDPX2dAzjlLcFn1r9XzR3glUcbIynZdknmOm5PEj+tdkXeC6UgSCNtS7cCyon8zv/1Y2trT9CyKtf/+w+hdQvizANLEM0FRm6mvNu/RfgWpuG6Kwp2YTFMjMH8DMMIib2O6vBKEyNAd5dud4KO3/NNtpzYf3jHgCTEK+s+OQlRM3yqiAgCNxuBKykjjGvPCE3rGf+Drs3rKF3ojmWaTbpJi9jmrySNJtO81fdCUCkk5dAQMjLJUCTTwQBQcCKzGKm3knG3xsMipCXmzU4tumDcdKTMHOdYeY9dQfXJrNj03/JYbm/WY2X1twIBIS83IhhkEYIAoLAOhHo0Xmk0E4zGRcvIl2W93CdDZGyJwhovTpDo3nJbr+PoR5DMp2hb2EFVfqxyRCJoCxDQMjLMoTk74KAICAICAKCgCBwoxAQ8nKjhkMaIwgIAoKAICAICALLEBDysgwh+bsgIAgIAoKAICAI3CgEhLzcqOGQxggCgoAgIAgIAoLAMgSEvCxDSP4uCAgCgoAgIAgIAjcKASEvN2o4pDGCgCAgCAgCgoAgsAyBayMvoTJr6kN0mbJ7GEsjn2XY3OR+R5/fl/VS/i4ICAKCgCAgCAgC3w0C10ZeXPeF8D6GWomXIGZraJUcN5J0S7yY7o1xOZTx2PfR+P3+3QyFdEQQEAQEAUFAEBAEgiDw7ciLfRvtzKVTGm+3/AEH59ZV6XHeGDuMIZ0a+/wuqYyCDLK8IwgIAoKAICAIfE8IfDvygiE6vL1ZT+VRyNgkxLoNd/sQ//DK9OmNpn6/f09DIX0RBAQBQUAQEAQEgSAIfEPy4tU83mdx7yneu24U9fs9SBflHUFAEBAEBAFBQBD4nhBYA3kZo1fPo1jt4tOXC0S2HqHWbCNe/T/w9P0jvPvKG0UVgrzQLZuqYlhoY9jIoldOIdcc4gu/ASLY2FBeuhn8f54O8f995/69PuygyAMbrVNDsVxD99MXsDYktvOotlsoJu1h6qKUzKOTa6PPunKFI5x9jmD3NZ1/y+bZzvIygG4piXwnh/awwjbnUWmf4/NFBJs7JbQ67MucBWvYLCBf7WAwYrsiCWznq2g1i0jZzscYY8B/F6ptnI/Y58gGtrIVNFoVV1nfk8BJXwQBQUAQEAQEgasisHLyMrktNLGDvXQc+qCL00/ARuQLvlw4yMugjOSPRxhZpyyDRgGVzgC9E5IC3jS6l1HsI4P/O9fH/+Pxe7ldQbKRQerlGbD1BNVKDnGtg1rtmKQpgV8+DlEz/ICtU5tEAonRCBrblYkNoee66POFYaAyWEruHskXy0iMMNK3sJtl4UbfvgAzfjuAE4MXpTyv322hfcp+2c7HbFW3FMfDN5+xubuPSjHNj1qoH73HKLKHPzSaycSd56qyLd8LAoKAICAIfKcIrJa86A1k77/EaWIfH4Z1cEk2HnWyknp5ypMRf/JivhnCbGTXtfMb/u2VpreQDmtI/ecAQxKFcZvEwS6T/xUhUdI6hem7gcuwyQsLYd/+GtSRMU5QdDQy9/HybBP7HzTUVYd5opT+4RXO5zAAo6vqnTjKBZIetjf+0xvg2X+hNbNT0WJ7o49PkDz8G4OKIm/yCAKCgCAgCAgCgsA8AqslL1yI7z0/xfbhP+hXpu62qtJm9h6en66QvFh17b79im7R2a0ByskfcTQmgVJEwiYvG8/wX70JB1VQjTLau7wMm7w4SIpdpVXGo3dfQV4EnSc593katPPbv+Qo3scnfZqrHhxhSngmzbfI2+5bfJ3tlEiuICAICAKCgCAgCFgIrJS8DMpJ/Hik4cmfY5pZZjF25XmZMxuZbwc/eTHrGtFVZAMTNxKryvEX5f9iEyXbbLSPjzwNcmSUQfAypmajfZqj6s5CrJBvm7yYZY49iMkUDxML5eYy3/ax6fPDU5v5torECgKCgCAgCAgCgoCJwBrIi05riK4ONWae9ZAXHbu/1FF0kgm71ngWxVxySog8CIFJNIKUEZa88FRlnuQ40DCx2MKzt3TO9ZDE6Ez4uIiqICAICAKCgCAgCDgRWCl50Wpp/HBw7mGGsRf/1ZmN7LrsEw//YfU/eQleRljyMmJi4K8wXG48nk4hip+P4wsJjoipICAICAKCgCAgCHgjsFLyopxPYg9/x3jOMXbcKyP1EyOLVumwazm96vNOuK5++pMX23F2eRnByYtyfIn+fAy42qWh1xsjwygqnQ7M9+nAnNj/iOGMDUrEVBAQBAQBQUAQEASWIbBa8sKsubX0f5jen9HLz96hxVDkQbWE0pszjCMRXFxkp3lerujzoiJ9Wrk4zS8X2Nx7zboKSNE/Vh900KjzzqRMC92KsictIC+BywhBXjBAhQ7Dv47Adh2iWWUEUb+BWvUI71Pv8FV59aJPp+IHOBpFsP2iyXeyRjZhrd9Eo9qEXhmg5XNqs2xA5e+CgCAgCAgCgsD3jsCKyQvh0tsopB/jmIu3+SSw97aLaj/LCJuUg7wwT8uPv2LkyH0SxmHXLHuIZj6L0smIDrrTJ8I8MUVePdDIqWgf62qBuVws07eDlMFS8vfw+MSZP8YqYc5h1/iVYdHlXB5HZ8wBYz2RxB4a3fY0eZ7xToHvTK6gNN5USf3q7Q6cd1V+70Io/RMEBAFBQBAQBMIgsHryYtU+1jXo4yhi8ZgrGihMA4O9O4au6cxZC0RjccTmw48CFbKKMuYqIgaa0ag4CIPPo0MzXlKvse2B2iovCQKCgCAgCAgCdxeBtZGXuwup9FwQEAQEAUFAEBAE1omAkJd1oitlCwKCgCAgCAgCgsDKERDysnJIpUBBQBAQBAQBQUAQWCcCQl7Wia6ULQgIAoKAICAICAIrR0DIy8ohlQIFAUFAEBAEBAFBYJ0ICHlZJ7pStiAgCAgCgoAgIAisHAEhLyuHVAoUBAQBQUAQEAQEgXUiIORlnehK2YKAICAICAKCgCCwcgSEvKwcUilQEBAEBAFBQBAQBNaJgJCXdaIrZQsCgoAgIAgIAoLAyhEQ8rJySKVAQUAQEAQEAUFAEFgnAkJe1omulC0ICAKCgCAgCAgCK0dAyMvKIZUCBQFBQBAQBAQBQWCdCAh5WSe6UrYgIAgIAoKAICAIrBwBIS8rh1QKFAQEAUFAEBAEBIF1IiDkZZ3oStmCgCAgCAgCgoAgsHIEhLysHFIpUBAQBAQBQUAQEATWiYCQl3WiK2ULAoKAICAICAKCwMoREPKyckilQEFAEBAEBAFBQBBYJwJCXtaJrpQtCAgCgoAgIAgIAitHQMjLyiGVAgUBQUAQEAQEAUFgnQgIeVknulK2ICAICAKCgCAgCKwcASEvK4dUChQEBAFBQBAQBASBdSIg5GWd6ErZgoAgIAgIAoKAILByBIS8rBxSKVAQEAQEAUFAEBAE1omAkJd1oitlCwKCgCAgCAgCgsDKERDysnJIpUBBQBAQBAQBQUAQWCcCQl7Wia6ULQgIAoKAICAICAIrR0DIy8ohlQIFAUFAEBAEBAFBYJ0ICHlZJ7pStiAgCAgCgoAgIAisHAEhLyuHVAoUBAQBQUAQEAQEgXUiIORlnehK2YKAICAICAKCgCCwcgSEvKwcUilQEBAEBAFBQBAQBNaJwHdDXnRNwzgaQzwWXSdeUrYgMIPAWO+j2+5DT2aRyyYR+17wGevQ9DGi8fj306ewY6Nr0MZRxOIx2FolkJ7x+C5s1cvfH0PXdOq8OHXe8rcv+0ag/l628Jv23bWM203r9O1tz3rIiz5Et9PFcKyAiSOdzyEddoJZynMptMbkbSF37yneJ/bxcVhHaulH8sLNRWCIVqmMVqyEZi13oxfOYSOD1MszXFhgJn75iGHt+5C+QTmJH49GePTuKzqFdUvLtx9zvVtDqd5HttZCyRrCVu4enr5PYP/jEHXjt2B6xv3dGvAblJH88QijR+/wdckAefUtWIuC9TdYWZd7a9gqodyKodSsIRd2DQlZ5bWMW8g2yev+CKyYvOhoF9J4fDyaq3EDe++G/FsI6WvlcO/p+6Vjl9jngkGlI+RlKVThXzB2IljP7tuvbFspYw9/fG0jH77V1/RFB4XozziOPcOfgyZy6KOvp5FOXlP1K6nG3r27TyzXQ154mmMK1OxpwQ0Yc3PhApwE9HshL159CyY+35q8DFBO/ghyaOz98RXtlSgDf5kX8hJMKm7KWysmL0rYK4i+bqJeyiIZHWPYKSH78+8YYRe//dtFKTB/sRSdjVSrgB9enWLz2Z/o19JT/OTkZW2yZC5gcOw8V1eVf9k6eq02BrEsirkbzAQGFe58f4X25E+MSbRv52MtTh6797WQF4ukUKC44XCeUN2AMR920OzqSOULyFg66nshL1TCrr4Fk9dvTV4AvddCexBDtpjDarSBv8wLeQkmFTflrRWTF+9uNbP38Px0E/sfNNQdvCMUCNZJjHnSMn80/+0nWai+3JKXvw15uTXgGMf27oX4lrTfaOZNIS83E7PvhrxcGt7vUa8Kebm0ONywD6+RvDhtx5dAISB5+dDLopGjv8T5Z1xENrFTaqFTz876TowHaBYLqLbPMaLDQmRjC9lKA63K3HtezdS7qBVKqHU/4ctFBBtbWVTqTVRy8cnbWqeGYrmG7qcvhj9EJLGNfLXFOlMTxz+Ap1DJPDq5NoaVIQr5CtqL2hygXmgd1Iplq212vW20itM9i0YsUlWgOmgj3SygVH2PTwqDrT00Om0Yr2p1ZPlSf/yFfVT4bJjtTlcx6JYRt/6Oah/NWBnZ0glP1jbxoqOhkeXn7H+JeHYHI+t7B77LyrZwaSWtuiaojjFoFlGodjAYKVy9se+Wksh3cmgPKxgW8qhwjD9znDZ3Smh12K9lJ3+2bHQGGJmdx1a2gnqzAnOIdTR5IlTujfHF+vuGAideRGdQR8ZLZlSZ5SJqrT4+qW/Y9sR2nvLXMvE2npDyEFCGtU4Z+VIDZ6agYytXR6ddxFDh1NLMPigsjU7EUGgPjTGcnrz8D1Utj2LFQ06cfV0oe9y0ZFMUlznMkKYcdlGOm313j7mObo0yWusauJnztI5mJUdPuvnHKiNOue3RH2Ty5wFq6Qxq0fnfrXEcFCgrDaSMecF5aPVffX5l8vKhh1yT2DXOTBncLnKONZCfa/ysvvCSDQ+hcvi8/K+qIV+s4L05kbHX6KDtmvOzfQPUfCogX+5Y2Fpz3KgqgzpPa4oOX8JAetUoU83RNs5teePcabQq03m3RHe4RtWQ06QlJ5eYJ44CDd2wQOYn481xyzZy9LNZojsC6FsvdSC/rQaB9ZOXPhXJAzqWbb7AX1rDW7kH6UsQ8kLlvHHxBdja5eJLBdw95cSctWMbi0T8Id583sTufgVFngT1W3UcvR8hsvcHNBpWfdc3naw9TsfgCy4Ce0UuPBra7TYXhjh+oVOf8tXU2c44jecXVLR7RZrM0EOrfcx3qFdmyrd3NQkkRiPoi9ocoF5QAWdSL3GGLTypqoVWQ6dWwzEBcNrxzUVJRyIxxojt3tlLk4z0cWI2EH9oys+kg0qxgV6/g1P+nNi1HK7jBTQaBcQtxaknEhiz7bHtXST1HuL1MdrRAqI/H/O3PRSKeS5PfbTqRyC82D78G/3SYHHZPk6Rfbb7gTJ+J3bwolRCcthEs+UeX1sBJRIjjPQt7JqCgFNTEOjQXVvg0N2njf2BYWNP7LxAicpu2GyidUqiioQ1xjo6FS5CvT46JjjIKW90YlMnNtNF0xZqjYvnDzgYJLBDeShl4ga5qx2zzMgT/DmmHBivhpCHoDJMR041Fth+gVo5gxiVbV05pXYHKHULqJCg9U6ooDe3sZcxW56ttMFXJ+RFEdeLLzFvObEnylLZi3tjRgpSaDRQiHvt8HWShzj9UC64QdhDkYuxxrnWppzGfRyjzbHfxuE/fVRsgqDVkP7hAOeY+93Ge+c3/NsrQfNwUL4aeVGE8IJyY8pgbDLHHuEdx8F2/7OdvrH1BFVFytSCWDum3rLlzUc52uTF0nmxnT2kOef7J2fcSEToI0LdlDcHyMsEaM+nxN4hqmRTWruKgxN+yfmVS+dRbpNw2BgF0qvUrKU4Hr75jM3dfc5xQ7GifvQeI1uvqOYs0h0ePi3+YxBAb85BN+D8XCTzZl2z4+arO5bK/PfhuB9kaf5W76yBvFiRAxq7pA/QVYo/sYe3XWtXf9meBiEvLDux/xcG9Yx5UqBzQb/PBX1zHx/I+JXFqscJ9tMb4Nl/NTSz08a081E8Pkni8G8uru4VyHixW4jiIdeCR+9IDBzOx8NmA4N8iYtQA1nWd8qopw+MeppayNTu70ccnPN04i+eThjbc0thB2jz0npjOnfL9/HydId+RT2HX5EiVP/BwZCkZGw6v9qKDJFHeKt2V5aS7/I/Hv7+Gbtvv6JbNHHxNRtNHCwV3h9oxnPYAhk63NNSJFLOkHWrr9uH+KdfMXbN/iYpj4WMi0ucg6bvvoXGxk3IpepT7DFOLqb+VLZzIhuGv9RJiCkIxJz4nC02XZqyoRMDjRhMKexYEdrHJ7jY5ULXLZn1+/pvuAV82OshmsnMnBaY/dfw5M8xF+lw8hBUhjuU15+PM3j7tQtrSOcat9xstFxOgsueP2YeY05yFTUnG8leYTrmJK2NQR4lj9ATnRPrPqO/dn77l/PcHD/7N/Xf24f/oG+zGovYpa13vRb4q5EXY2I7ZJBruUXAN1/8BU0pAeonQ19YBGoicYpg/+cAQ252lOx5PpM5GMGjt0N0phMZ8Ye/4zPnyldrIrv7Zjmbp1+TuJUtbK1x7HkQ6gA6ioAbc5SKFdqsYkWUcyfJjctAKdZFusOjo75jEKRNnsAtMxvNj5uX7ggh896jJ7+uAIHVkxe9yQn5HKeOxkU2d3gE10bdYVoJ3fYg5MVBUuzyTX8b7na+csLyFKAc584aUzIzaYdVvnPxnm0jF4DYQ/yOZ/iv6qNHB7yU53z5U58daxItbfPyegG25x4xdygsu15TcY0n/ka2InP1kydkcZ6QRR0+RUvJy45T+S0aUStqgLjboexhyIsiEtTH1Is86p8Dfl4xm8rOg6Tww3vPTxeE/i7C2Y56sOWIfQ1BXrx1qBlNNw1FDioPwWXYJkgzi9tMY5aTl+VyElz2wpCXRWPuK2n2ZsXhgGzIg/YIj4bv8T5lnrIokmCWz82KdUqzevLiIYN2+2wSb8mkW+dY8jb20FPTiW2GSrvmvCUf0fm55gx7N8d9MOc/aGIQx2//4wbIIP1BZVIRszhPRukC5vJrtMqw22mTl4C6w5e8LNWbflKyjLwE0R0hZD70QicfBEVg9eRlpmaGpfVp4828wiltvs6jzKAN9F/8nSX4O5aZwm8vOvZph23jd5Rh+Xd4OwQ7JrIHQfAjCjN9dOVlCNnmBfVOdjPqeHc+R5/VL3uR9I0i8ViMl5IX3xwTOvq07TcaPagDOHXy0e+cYhS/HHkxx3DX+wRhjtT6RgxY7/nnLZlTsnMC6io3JHkZD7s0nzXoX2EkPwKGPZzQx8lFXjxyFV1ahmluzCef4oQWs0jiEX1HaqgylcH0TGk5eXHhNd9vp/liieyFIS8Lx9xXeVgmunN7vpsnDL3SRzS0NE+hstYmxiKqyfmTwNm8Nlc7efHy8bPqjZnzgDZKI5fOxKdsRh0pvy4HWZ7vs2+eF7+NgrNvXeLyEMdJmlEHthnVMplqXqZMd/6sWZm0/YMc/nGT9lp+TrZch8hPY2jdELl25tvkLSbLyIvHuM3rjjAyH3qhkw+CIrBm8mI1g0ef6ujwwmE2CNrAtZCXrWd4S+dc9xOdCZWc/bu/0M+SF5/Q4quSl0XJqGw78u4vqNMp2P3EJ6GGaycvkwWTjoc79JWxnFyvTl58FPmqyYsPzlchL/1KCg9+/QR6bGKXviUGebgqeQkswxp69TKJyzHIlYCNPbwbti2fi9WRFz2A7IUnLwsWbx8FojGNwg8HA9McF6WJ8SFNi+rETlMnXV3z96SZ4C1qmzJY1upPXrzIy+ypiEleaKb8pQ7vabsgXcCVyAsMs/fPx2S1hkzGGJJ8SvmgCWrGJB50g2WTjC08e6t8ZTw0ayqPgopB/47ISyCZD73QyQdBEbge8mIL7FUy4AYxGy3dtVq2XscJQFCgpg6V/k6fyqb746/MaOPwG5mUb9nYY/QR0QwfkaCKwX5vgbOp7ZQYINvmusmL6WcRm/MpuprZqJ2/R38kb38Vc7E6n2B++ZMXLnL36D/jcRzN+CnT6fbccfoT9OTFHpt5vwbXSVBQebisDDMSpE4yyVxJXMGt3DQrIC8hZC88eVnitOo1eW0iT9+LXqxIcpA2kx1aJpsBfx+kypQZfSZ/0fWQF8vcYG3iKFSG7F4qi/FVyIvy//vhFaK//IkCcemq49FoklFCNRS8fNWW6lVFhtS8jy/PCfU9kJcwMh98gZE3QyKwWvLClP4695Xz1wtNnOaci6t9d0qMd6cEuY5oJeTFdrS6TNi2vYC5vx0PehjEM0gPfBxLVXhtNk7fm5jbYXepYghQb4w26vhPeKPPRjJ463aftO++ZqOpv8ykvAUKyPu4f/a4XJ0NzfviTNvqXsR1xu7ef3nqdg5WPkxGdNC8w26Ao18XOA7Z+MB08M58RHbE3GUcdi2sxhPSalas06n8/quzS5iNriLD82TF31QWnOQGlz2bvMxj4UXkbVLqMuMyRLw3iCPje9+I7S/yBE+SxziG7ediOV4Ord+1WVPI6snLXPCAGnPLoXjisGs7os87JQdR4lchLzwJv8eT8J3Xf6PL0x9/9RuUUKu+2XPUKw+Xo0M3hbx4mOGDb3xCyHyQsZR3LoXASsmLefIA7LzgfRTMsZGNMfKoUUX1zZkRarrvWBRMpn6BzTml7tuLlZAXlm4vRJFtvGAYbJWkQu2s+4wYqjZ1VAb0E/BphM5JH1fmL/Vto45ymqHBNeZVOR6jyFDpesr2TOdpLEMQm9WiESqs/v/g5DMDN5yREyEUw9J6HSHam3t43VI7KB7RMtqrw3bW+xm0uhUjRDj4oqQOh0yn0sjuIXPlZOi3oqFQmYZKe92rYkbCfEaCmZA73Fmq8NxS7jnYfSP6YnL3lF/ZnidSJD8Mb/+dx9rbLxqol82Q0nq5hDfnFzOkJrgC8hhkRmcYkRr2+NLBXGNumHLpDc4vZuU3sMOuHVES2cVrZgstxOn/w9wl+aNzIwdQeJ+XoDKsFvEMejn6HlWzjHRiBFU5j6e8umNBedeSAAATJklEQVT7NaNu6GBJabDSryfw5F0bFTp+95J1hnOHk5NJeoAlsjchKcTikLhmGIqvFSreodI6T0viKpLMHvM0I29qKNP8NS4uXiBtGVQj7IwwsgmR+n1CICwxWDl56UYQubhAlCH3jQad4Tn/Cq9O8BnOiMBpOPjm3mu0KBfmtO2gUa+jn2mhS5Oj53MV8kKdVEk9gLJkOp/IRgKpXBUt5moxD2CC6ygqVmsjocaLaQwMmaNm7TM6rNqEXhmgZYY7Br6TyWjByn1e/GU+jO4ILvOXWpflowAIrJS8gInUyjnmAjljgjhH5cpZsMaU72UzbtV4Jotc0MvsrN2Ct0OtdeTvkcfDy4lLZ6K1XOEIbKazldh6VEeb1xksitAfMulU9rlKymY/TIS370yEN0Qzn0WJOROmGKh3mmjz2H6anypcm5fXSzcK1TaVMG4G/E1sF5voMumSkWbBMm257grxNIPMKbmtQzr4kQRZqfFHDOX86grl7KOWyeLgjPZ046Hvy5MWyvpjvBo4d7s+ZcMHF0u2jpyDFkkYCblajuR/ponJw9yw1GHXbK2XbEQY6t/oMKGc80g9qNlIldkuIP34eCozjL47rGXQeH6E1OTiw3DyEESG+6wjd8AEaRNZNceiz1XEdtrV+d/JpyfcXJiPLRfh5CSY7KnyJ/4/Rm1bOPzI1AQpn74zLDqfJfF1XJW2ubO/PNmgdaJBCj1rxpiE6TpTFpj99uqvW5b8x8ipSYzv+gyTbsWpDw8wmQobHHdeWFtx6EEi56EvOGvoi1Jsdplwc+pe7ayDDTaup3DPQQ8TrWvOW0RjvEc55IbMlPxJvisyPvzNlAZJv7nItz2dY73mqNIAW49Qb3MTY+ye/No907vJP8KMQTCHXbXR85b5sLojiL717pX8ugoEVkteJi2yLr/iv6NBzUKr6E3YMqzLAdlKxEPdK2/3L4oYv/M+drXvZlr0TtgGB6mXuTPZL10FtUTdF+6FrVG9b5YXEiP74sUl4x+67Mlt4yHbE7LjUwznLhEMWc709enYhZO1JRUulWHHXIzTROtZnCmrq5irgWTPNhn7tme2kXaZq2jfpYfvCh/qmsbcs8vk9fp0pnnKFPXMaTWbWuKynZ7eSxcNOMaXreny312zzF++ofKlDwJrIi+CtyAgCAgCgsBNRMA02Xsk5BzTPJukedaRI+Ymtl/aJAgoBIS8iBwIAoKAIHCXELD9/ngf2fZuBkl1HKcP0eupu3w2GYxG/xQ/c9Vdwkn6eqMREPJyo4dHGicICAKCwBoQ0HqoMzS6zTu6+kPGiCbTyGRLqFTpn+XjZrOGVkiRgsClERDycmno5ENBQBAQBAQBQUAQ+BYICHn5FqhLnYKAICAICAKCgCBwaQSEvFwaOvlQEBAEBAFBQBAQBL4FAkJevgXqUqcgIAgIAoKAICAIXBoBIS+Xhk4+FAQEAUFAEBAEBIFvgYCQl+tC3UgmtiRhXZjkXUHKW2vfrprkyUrKFV1VErg1dvZasSYu/S7afR3JbA5ZI471eh4jmdqyxIZ3SkavB3epRRAQBMIjIOQlPGaX+sL33gxHab73DnnUGKS8SzU06Ech0uN7FhnyjpOgzVrHe9eH9RCNTAovz+z7HS5xq/KlAfC/x8ZZ5J2S0UtjKR8KAoLAuhG4teTFTivvn55/3dCFKz/IAvg9Lgy+43TjyIt9EuS+UiHI2IWTBp+3OwVEfz5GjJdaDpo5XgTUh55O846ZYM/V5oSQl2Aoy1uCgCBwExC4teQl6CVcNwFk1YYgC+D3SF58x+nGkRdr8ebN319JIpxPkLFbhZyZlwNqzHA6Vhd6h36uNieEvIQGXD4QBASBb4aAkJdrgj7IAijk5ZoGw7OaG0BejAvzMHsTcghIhLzMgXVV02YI7OVVQUAQuF4EVkxeuigl8+jk2hhWhijkKzg+/6zuRMdeo4N2kQfgvObe83e73+MBmuUiaq0+Pn1Rtv8IEtt5VNstXhrGf3ZLSOZb0L58gfHXjQ3jVudYgXU2smYpqoxigd+cY8SXIhtbyFYaaFWyk1t1tXoWqSpQ7TcRK2dROhkBmy/Q0RrIanVkjT8O0E6zvaUq3n9SBTn6MRknDZ0a02o3uhiMVJsi2NjK8t8tVLJTZ8tw5OV/qI8LyJdOYFb7CLVmG+XM9P5qv/K0Tg3Fcg3dTxY+iW3kqy3ikZq7/XpM00QRhWpntt31Jiq5+KwUam2UcmU0z0e4iPA+lGIDnVIXmQfGSothXd11P/csGyfHycv/qhryxcoVMXbLXpuyp9q7U2qhw/H2c33tlpLItzR8seRtY8OQKBTa9EGhSE2w/tBDtpFDqanugIlgc6eEVoeyMlfw7BjMya/X/NabyCXL6I2/QDXBlul4kWNTzyiBtsaqjXNToLGVraDRqph1L8N62Zwy2hT25OUaZNSex50BRiYwRr/rzQrmRRSXkdHr1bVSmyAgCKwQgRWTF1sBJpAYjaBv7ZIEjNE/OcOIi/reYQn9gyPX79Njcg219A84GCSwUyyhlIlDLQS140/4EnmCP8csf9BAoUKl3jvB+WcupHu8WEwBQqXWLitFz0Us/hBv+Lfd/QqKaboOtOo4es8W7P1BHZc3FjHzlENHIjHGaBTjBWVJ6L04SUMbeWth1RMJjNmP+M4e0nFt2o8/NLTz5opl3tDK7/cKKOaNylA/es/+bvPK+T5oCTCXhtw9PH2fWLirtk9e1OJ18SWGnb004voA3VP2H/z2wxB1VuFXnk5bQ/zpe1yQrO0Rvyx6aLWPcUZe5uy7+r7P/j844h8SO3hRIiEkqWy2TkkY+dMvJCQ1i5DoxDz+FO8vuHDskvDFLBzYxggJZNyPvCwbJ5u8cEHauPiC2JUx9pI9jnPXo09zE2jQKKDCBbJ3QlKyuY29jDlo2YoijPbYkZRuXHActrCbJTaDLk5NsPBxWINN34aNDFIvz4CtJ6hWOB5aB7XaMXFd4Hyrd1AhIez1OzhVQ7KbM+6XiRfqaBSS5CZxPHzzGZu7+3zv/9/eGYOncWxR+KqCLqgSqcSrrFRyKpEKpZJeZVRZriRVVirhKlKnTkplVBlX4MpyFahCqkiVURVUPb0qqPK68pZQKWd3Z2CXnYXFgMx+39kmMVpmZ/65M3P2zr2Dz8ZSz+R3LNpFCO7oMZEbP6a+QrzM30bbUsr9KJ6JvpRDCMxOrSaXaiz8+r+OaBOVr7XRGU6kLIoESOBxCcxHvKANq0d/441crbRX+5L5+R0mfvPn3ed/SFdt8ndaLUnn8+J/9/cW9WAsQJSLvIWJ/qe3Int/WVLbHMCsF9Oy0xj8DLwWCqhRQBS439ALKwTXVrUjzX1VG7Qji3Z8LlTlAf/vXHa7JdYaFqyBU8RZ7WQJImL97JO0j73vTiJeJLUl1U5T9GNtNCR7cC29whv5grdsRzaFyrPhMVr+Ra5Xj+TvTlkUeacxWLx+kJPbFXn50UI2Cz5qHUoWkGy0w3L6RmNyhFtmRxq9grz5AhGIP3g8bSlULbnaV3faVxCFP8s7Z2GJEi+qzLExLzNjrMSLa2MfXY+F2yXgkgeXmxVwgUdtwGV4oI3bNnILlo93ZfEcYDZYLiMzaAX2Y3miUvfBBvoJjPtcHXHznxPpQDx3IZ6jLs8mh7aNVF/BoMUKGrSkdxqSO/tHnFiZgY1tyfuHpvijduKNqck8L/O2UaPdoZEOvwza7R8L09poZIfwDyRAAgtLYD7iJbRQqIkx6vP1M/nUPg4IlgAxJQa23j/A0+H9xbwo4m0ti7c1MSxUqoxC9QGLsPa83MvG6y/SKg35/bV48YkU76mq/PQR3rbL/bftUO8a9tonES+6joNyIRYyEAtd5X3qt3/gybGhSpbxxr/xBu1xVIf/Um3XQsMRIdBgWA/tgMBzvhKMu1HttQfP7RfbLkkW20bpacXLzBhH2ZigjUtycB1e1IcgyfYSPEyRAbs+kaK/CDGxBFHZt0v173D/3cGL8INcdEcLKJN4aZey8JBB0GiB1K+0aq+P30QxL6ExNZl4ma+NWp69y578hS21zUBHKZb3uj+nt9GFnZ1ZMRIggUgC8xEveEMNLu5RE6P5827nSi7LFal3ul7FOy1pIH5hvHjRb9+Oi9/vCkEZKp5AL+Ajg2MjM2HUxAlxFGif3ZZmpSKVluXV1/k3/P/+LZVJxIu/napA9ZY/WICHy/Pa0zUscq4ikRxe6e/Vwux9tyDVB4iiYdMICJ22t6CbxGXMYMixnpeQWPhaxtGLb7xFfZznxbDlNyQA/Nt+Q9YH83NikEYLKJN48eo+iIMZdFfXi9HxjbVR7Rw/piYTL/O1UfHsLiRsvdYHbV/Vewob5fpAAiSQPAILJ17ax2vy42//R/DsuhQQe+D6ECYVL0/2pIrg3PCVlrXiruRR6KzEi31ZlNyLBmJyEKezjRiVuYiXsPfALF4iMlWM4iViITWJl+FtEKeNjyhe4jFeFPGCLbZfy4L46PCV3ZT97VzkLBEtXp7IXhXBuSaLXivKrmPQ/UU93K/xxtS04mWWNqrEi8ELFileprDR5E3brDEJkMBiiRfrXJ5+fyK3wxNR7G0j7PWn/ysfsmO2ddy11/FU3Ae8OX1ziO15Uc/LwL1t+dzbU24bhd9qw67xkHhxzwi5R2yKty0WuPThZ4hDshCcUS8uIf7HsA2CL1nnT+X7k1tVjm6fYbvj0cRLXMbfXrxoduH+izfRmMSLFxCejZU+bfS8xB5T04qXWdpoR4pLiL0yximpoP5b7Tmc3kbj9Q7vIgESWCQCiyVe1ILYVYusBmUj+HL51Y1h22h46wNBlJsIorwendXjOQ5mIV7CcQdunVWAcsYXDzLJtlFqqyqdJoKDNYB+oPCIgN2oIFwEltY2s4j5yPQDdm3k/y7/ch0MqnafpTM8dMCuDkod5olgaHgQDv7sxQzYNWxRxRaIcRnPSLwYtioi+25YVOs+gMfAgmCc9FeJTOJl0FcRKem+2cS4HRh7TE0mXuZro75x7Muw80wUW6AIArrvB69Pb6OLNCGzLiRAAvEILJZ40dkaqYK8bl3KbtaW9jnOO7m4dc908b/RavGx+vy91I/hsm7lpHyIVBo9uaXW5SVSK0+xcMOfIO1aRU5rthzfXYqT7zEb8dJCWvZPSMtelb0/kBKL/FareSjbBw3B6TaBhT2+eLEklepJL/tMXtfO3TNn9vffym1vJZBBFS5PT+LYcXt2JrXTfWTWtN3/njQ+IznEv6Ai1gXp5O8+p2T9ZUXKJS+lt1w6lLe3jiDxZYopr03vu4Kc1Stg56T1vpKGlZJUrxedKq3sL7KfYouXuIynFS86EHRVnr+vy7HUpJUrI11/RKZYyCNoIx4jixiVHvrgtVzCdtegYOy7plTKZWnnL+UK26JRlzHbqC8onb5COvspMs8ci8b5RJXTmtjHd4KdS/cyst5te1loY8fUJOLlEWxUC3ZnHFfKUgJXC2fqlA6dsTCUITiljcabKnkXCZDAIhGYsXhBqq3j7h06+0Ik/ud2fVee7nzAOSnqWtmQs/O8VA4uZM2XbeSc7VDMvZCGk3/tXEhDfVBpqPZVSbZ3L+TGURD9KyVPtspSh7hwlg/vKPZ7fO0B2yhDXXJ3jADX3+TeV6ZaHrysEX/Abvtc8psncqPrgdiX55clsXdeyZ3P8+Jt1Yz+oT2vTmtS/XQozfyOfOhDQJm/48yW4iCB3FxeR2pF78A9/dN+kDKycVSTehkCxd9MpDuXtnflwg8JdXcOE7wcOtCuDf6bJzduqrtzfbdxBI55OV9+EWij0bCj+mnmjKNsLCozLVzbfmxN36Q824jsO8N2JgK0DH2AgFvEcO3XrqSyHe2PMYsXVMbUV/jYObywXG/KodZDEazjjalofn5Sj2mjpnGcWn0mlSYOrAycTYB3lmlsdJFmZNaFBEggFoEZi5dYz4xxk/qRPJzUkc2Odr7bliXddPjH9NyH2JZYbsLS+HJiVGrkLW498JxZ/lDk1//Qni2W2/AY9eniXtu7dzRrVWY6K2O6xKxhRvVTTPjzYGyQMC67dCYrmeGUoZj19G7TNgyyU5elH6z7FWVmUb+I+pjHRPwxNUkzH8NGvWc4JjrO9qaz0UnazXtJgAS+LYEFFS/fFgqfTgIkQAIkQAIksLgEKF4Wt29YMxIgARIgARIgAQMBiheaBQmQAAmQAAmQQKIIULwkqrtYWRIgARIgARIgAYoX2gAJkAAJkAAJkECiCFC8JKq7WFkSIAESIAESIAGKF9oACZAACZAACZBAoghQvCSqu1hZEiABEiABEiABihfaAAmQAAmQAAmQQKIIULwkqrtYWRIgARIgARIgAYoX2gAJkAAJkAAJkECiCFC8JKq7WFkSIAESIAESIAGKF9oACZAACZAACZBAoghQvCSqu1hZEiABEiABEiABihfaAAmQAAmQAAmQQKIIULwkqrtYWRIgARIgARIgAYoX2gAJkAAJkAAJkECiCFC8JKq7WFkSIAESIAESIAGKF9oACZAACZAACZBAogj8Cw6YWe/B0YQjAAAAAElFTkSuQmCC;" vertex="1" parent="1">
          <mxGeometry x="240" y="860" width="440" height="298.32" as="geometry" />
        </mxCell>
        <mxCell id="8J9FziU4pGV4N6TT8qJt-35" value="" style="shape=image;verticalLabelPosition=bottom;labelBackgroundColor=default;verticalAlign=top;aspect=fixed;imageAspect=0;image=data:image/png,iVBORw0KGgoAAAANSUhEUgAAAkEAAAGDCAYAAAAszMSPAAAgAElEQVR4Xuz9PXAaSRcGCh9HcG8iHImNYOsLhCPJyRUbCUdiI+FIODKOzEbGwS2j4Ksi+KrEVt0qo2hxZBwZRUaRcbQoWhQZRYuTb1G042jH0Ysi36dnumGY/+FHRvah6n3Xgpn+ec7p00+fc7r7zld8iD+MACPACDACjAAjwAj8YAjcYRL0g0mcu8sIMAKMACPACDACBgJMglgRGAFGgBFgBBgBRuCHRIBJ0A8pdu40I8AIMAKMACPACDAJYh1gBBgBRoARYAQYgR8SASZBP6TYudOMACPACDACjAAjwCSIdYARYAQYAUaAEWAEfkgEmAT9kGLnTjMCjAAjwAgwAowAkyDWAUaAEWAEGAFGgBH4IRFgEvRDip07zQgwAowAI8AIMAJMglgHGAFGgBFgBBgBRuCHRIBJ0A8pdu40I8AIMAKMACPACDAJYh1gBBgBRoARYAQYgR8SASZBP6TYudOMACPACDACjAAjwCSIdYARYAQYAUaAEWAEfkgEmAT9kGLnTjMCjAAjwAgwAowAkyDWAUaAEWAEGAFGgBH4IRFgEvRDip07zQgwAowAI8AIMAJMglgHGAFGgBFgBBgBRuCHRIBJ0A8pdu40I8AIMAKMACPACDAJYh1gBBgBRoARYAQYgR8SASZBP6TYudOMACPACDACjAAjwCSIdYARYAQYAUaAEWAEfkgEmAT9kGLnTjMCjAAjwAgwAowAkyDWAUaAEWAEGAFGgBH4IRFgEvRDip07zQgwAowAI8AIMAJMglgHGAFGgBFgBBgBRuCHRIBJ0A8pdu40I8AIMAKMACPACDAJYh1gBBgBRoARYAQYgR8SASZBP6TYudOMACPACDACjAAjwCTISwfGOmn6mOLJJCW+Mz3RNY3G8QQlE/HvrGfcHaIx6ZoO+SYh3wh46Bpp4zgl8BJrRQTcXB7l8eUCyndsT0NrC2MQGqqbfHAtSNB42KX2KE3FfGZtDPCwkqZ7J1e0//YrdYs3KZJV19Wm/J1H9CH1jP4eNSiz6ur0HtXLDRrk6tQur7y2Vfdm/csfVih974Su9t/S1wiK287foUcfUvTs7xE1WEwzctZ7dSo3BpSrtylYhW9ufHnbTZ0G3Q5p6SLlM+tBadfVnkaT7WLDf10xWKxXt//ttSBBpgHep7dfu7QufOP2Kyw8WdqY4MqyeQRWZKQNT4KozuY5a+fpzqMPRKkXIF311ZOu2z8mF+sBk6DF8HN527RPQoX/plFdMcQbHl+e7bLbTZ3a+STae03bx//QoJpeOh7zFLiu9tRdtvP0cPrOGLZQd/GqrisGi/X29r/NJMhDhrdeYeVkiKU9jWaW9qshQSZe5OJJGFG31SM9U6BiNkp85vYPrm/SAyZBy4d91KVWT6dMoUgTFb7h8eXWKbfF4wDj8D482DF4AjV4AtdlxK2tPXWT7YIa5LWoX1sMFuzvbX+dSRCToKXosDcJWkrxXEhYBJgEhUVqsefWkATp8Lom4bK6Rqj7I0LdO4v1cKlv/0gEgEnQUlVn5YXdHhI0HlKrVKRad0hXX66JYhu0latSo1UleH9nP6MWFQs16g6v6Mt1jFLbBaq1W1SS8XGtixh/tUk943dR1Bbl8He7mpusnMIO2jBlaY0cZWpEtWGHdlpFKtc+0CdR79YBNRG7L9k91lqX6qUK1XufzPaltqlQ61Db+qDAo1igSlc9s0vlVpcauTH+l6HaYExfJE4bRlrADurvUSU59QR97OeomS9T6/IzXcc2abfcpi7aal89ij6WKnXqffpC1yTx7LTNdmsNyqFzg/EXieWGmde1U6Nhr0JJ+fuo2KFRMzeVk8gVKpZlH2O0sZWjaqNFVSVMz/55r20jyWLQokQlR+WzK6LNp9TVmmS0TulZ55KuPHRjVtl6VE4XqJ0EBn3k40x+HFJ9J0v1uP17nVr5NFWGReqMotUZpn/kSoIGVN2BrEf4n9ahokuayCQn6GOf8q0ClZoX9BljZ3O7BB1tUsE6xgRGlRLV2wP6JHTMrhMSg/FQjMMKdZXe7ELXutAXiwh9dUthOYcuzMhIyDZTpVGhTaNW3qKDwGKnRP2c7XvqUyWTp1ayDh0uEwYUxu+Iip0RNXPa0seXta29cpoKgzL1+yUaVaZy2NjKU8NmK2YmWx3jOolcP0J4DPajaB0mIeXlaEc7CTsCLGz2qV/JQEeSVIc9KSc16tbLVG32aHhl2gdjLDfbVLUI2mlP5bjJtkhvF2bE1UHjS33L+JC/rkJXTNusZGtWZMigm8f4hM7AxlZhC4yxAP1t2/R3puHQlTR0TPsicBDzimkLE9L2TTH4H9U0yLa6hHlg1hiJ1hv2qJvv0AD15osndPE5RnsvR9SrJGHeWlQpIT9zYM4bmFxoG3Nlp12a2i5pszFhUGcHY7hcow/mhEUHzS51ZiasMQ0xpxUqXcMWqD6bzcpSA562ktTFUPJz9Gf1X9wSEjTAQLxP8PJSavcplaGko1aL2ucQJKXoBZI5J6H6ASai+0gMxfe7T8sEdaB255wuPx/Qu68dKHeR4r+eUmL7gIqlAqjBgNqNE/qAsq0x9FAkKFJZOqVSY7q6StLuwQ7IwYDOLlBpDO3CxFRQRgsTYzbzG13QFh3WBMETRqZOp5hIpjkJ6O/Oz3R0uUkHx3VMUEiEbDeoGa/TuJOnbhUTV39A3XMB2B7ld0ThSSo2m1RUJAgkcuP6C9HWHiYIgrE/hxLb8x4IxCVLmd8u8Nwh1apYaQqCVj/FsxL3ZJeqpSb1B10yq8uTWV2Rms0iJd0mZWWwr0FkD0ogUxp1Oh26ADamLP3655E1NpcsErS9lya9n6TGGDIQBiT5gF593qS9Z1UqYSktcD2BcsQO3pHWKbiGF8zJaJuO/wXZUGRBq9POT0d0SbbvSZLQ3T/ov34Z5YWsM2T/nCQIbcrcp98/xZDkD12amR2nBsbsAyawjWuMqS3ag1IkJjpqnVg16N5PdDTE+CqVqZxNIuxSp/opxmLskN6P0T9RLPK/dn5G/zcP6LheoKQuxlmT4vUxdaQIA3XLSL+ZQxccdnMI+3GPTjRL+8QzEtNra7vF91Jn9cd/kt7K4U/rJgl9qePL3lRDDoM92o+f0wcNGOettmKW4ExJUJ36hn1EYvtHJLbPuIBCysvZECOXL+UIp4NgxX+l06S5sWIERv3rKcbRQZFKBWPAUOPkA+wv9P4f6F7aLNhpT+U4cEngd/OkrEpX3Oy8WhCkUld0pZtjAQaSzk0D6Z3bOIR9rXZp2D/DfLMJTLImscBivVPJTjAQROH6S2IJ84AbQVCL3BSlrq5IS+0ihDsiPd+jQQWLcNikIb4rlcuUtcwtscP3NIYnUQrL2Fyhp1I0RhnJ3QPawbODswvINUYH72Cv5YSlwq+pg2OqYaWkdWp0hIVlDHXkd7BI71SNxWU4+a2e8LjVcCtIUL+cpF9e6bT3WqOeopXozVhMSg/P6HoPEwpYeIKwSoOBfn5pNwY69RpdSlaKlIEx7msZEA3rclgqzvYx/Tuogi64DVoX+CKWhUA9vRbMWE6UPfzjwZvP6NdX9EuUr2OleZd+O9+lP/7rU3mymhPEAKRnBMIkJms5wWrPPsIR4+H0DnLXo7bUs79o2Mianhsd5OsuyNcmXOlYCRil4rscvjufTNgSA5HgjAluBGIgZDA1ci45QS4kqAfD+eCUHJPyqNWkYaFM+bFJIHz7ZxdHVFmAJNsnDFPPiB7/qRHmvsmnU4jTw7M0jPpwYtSt1esgindBFHf/+I/6UmjqO/Hc9vG/SFCVQpcT7458NnSdIfs3S4LyMknWibUdPpUgCqWgv4YNysrhoYzc5tO/SEM/xWfU71M8mzXGifqYk4lGh+/HqBMOwvoO/XSkAWMxJt3GTkjdCqPrIWynsBsP3gjZwhMnZWt+h4kNhl21WxRltn00edZ1QbSM8eXSbi85jNCmn48u4bScysF8dpf29wf0AYnbXiQ3jLycTYGdiT+kM0l2JhsGpf6mkXQ9BMPR4SnSMlgozZhTczOEVe8XIkFh7dAcuuJNggwDaRkLsM1Z2OaLTW+dliAGhcOWNg+46r2cy4RWO/LCRvAwximLhYtl5DoXCMpmY1zsv0ZO53TCoiQG0ee91/TVmLAkId55iQVdRS4Q5RzWtyw4wsovxDhexSO3gAT14E57QG/oMf2pt8yQxdT0mgK8kjsk1ERun7QDkZMrRZpuGw/lCXIt17usKdmRL8JrlYTXKj5ZbaF/d57Q+UTJ7JPMWA7AaUjLOmHNQmNulfZMjLaSHfliK3eHnpxbdptgtrjz5NxC0iZTnon7eEqYPHOCHCTIT56q/BD9C5SpeMBbFrsvQVgq1pgBvI1JrKahAxMSOGmOadQd8lO/K72zrGoNQ6jt0/7oA33IKK8PnNXGxAtCZXiNFqjTqNvZvykJeknvEnV6eKr7eoCmXRQTqouBV32zLBDcba+J0eRICbkrcIZoW18MrVtL0gUY7QQMeGIy1kzsmpl92gGDGEqvj7EQEZPdYGrE5yJBYcaXC5DmBBpODnYSZF8k+g4RKR+/I0BM8p+c2ezQNTw/3gsCUy2dtmchErRCXfEmQS4ykO0IOjYliAQtbx5wk7AcLxtu86W7Rjjaq2y2Yx6S9iqu5kmzrqHNW2himqQ//oeFvCDHoeUXyqgv/aFbQIKkUF2IgUBj5nwTMgff2M9DYkAoztFoIlyDVczk73O6sqx6wpOgBcqyGwulfCJUZc/bkDk3agAOqhm6//sntB5u10PkRiEun0tbXgpaqbqcE2QfDAqD2TivqYNjI+49JUzhSZC/PJWGB/bPdSgsIAsVphI5DXbwJfbO0IBqhAw5XCo8zBVSv/w3cnB2MGnk5PEPkgCmlcdRrdrC1hncvwkJkk3bgJtbJMwGfbzPCZJtTsyeKzUe9YzwVmeEcxHEZ9SnM+SWTScIFYYTKrpNh9UGzovKkVLRKLo1ny7YezwbxslIr0Hy7T84/wdeVl32T5K+gSU8MBcJCjG+XKcwz/OanHKYjtcKdUSI6totHCbHa6C8XFqjQrAT75PEMDP1mJvmE6F3hNqbfdOaGn8jNp60TI6LkKBV6opfOMxxZlYI4ii6H0SCHCRqgXnAKbWg3b9jGvUQsmwiR3MydEX4zrL49dxcYV909WDnHtBpGiHCoTr+RKauWELPUeQXZKdW8fvtIUEeh7+5kSCn98MCHfJRCulHdPYFCb67yF8xPINicpmDBC1alofy63svqFFyO7EuSblSfpLANh4i+bBSpSZyVkSO29aLjzSE29z4LI0EIQz5ooGkchf1S+aohCRfszqPLfKOAeWdC2Cvwbd/9ocXlYUiQVuP6TUS5J2f+OwWadsDZghlaIZV4sLrgHCCCL1owkPSM79PmyQ9LkMJMJfmwZVh6gzZP6sn6PW4Cs9ecChsarjdDku0r/6Q9qEIOMjNXjZtusEdJEh8iaTJdpUq2HTwQWSZI9foxUeRMK70JZxuGSX56XpIy2h6MTKGF67cESFMMsLOuZrQ3YTpneuZ8jp4h9wlma+7HiTIKYeZyVblQrrsDAsvLzuQknjFn9JfSC7P2kK5huVEUnP60RnywWT+kvHlKkjQanRlnUlQ2HlgVmp+JGi6MNnc3qNs2vSEj4wcpnlIkEirS2BMIaRs2IIE8itF/u1s/qGJcXj5hRzOS3vsFpAgTCZ3EJt2cS8jem8maV7u0euvGLBqwkWuyldlwWxQmYYwYcv7mC8ctnBZdqKikmkjnvaLzFQqZX+lN1eWJNwlkCBzYr8MdWp2ZBIU5fBEt/4tXa42T0HUIWZJpu0nShj0O2YivvQsiHDLMFMBnrolvBC+zrC6NpMT1CZzx5CPh0B109sTJEO0KhymdNQecg5YJWvdEmV/fUNXshzBhMLq1owoQuiCp+hkG0XuVqVzlx4NZZKrDJVl8H2tl7R47syS1oME2eSAdtk9Dq5nBM0pL4Whyll7+pdGhYawnVkQRyTzG/On1N8EQi+aJVUhSjjMJXXB3q8odiiqrqwlCZp3HjA6702CFI7W3EXjDfthxWE9QSJ39KfnFH/xnoqwcz3hCIzj5odanYqWJLG55RfVBs/5/C0gQSpZ2MXVq1Y/k8RoOShdtolqSOYcI5mzbwhckqYJaE5Xc5hwmKk8C5TlMBaIoSZ/oVe6yzbXAAE7SIgs2xka9B4kjsGA3UtJZArrIQ5eM+tXOUuWxjoGlCKuTq/DeNinYTJr7i6zfTxJlnxuYVlMktLnvTpCEunxIR2mT+mUVB6QzDEZye81a1jJotsB11WE7Z9jd5iPh8AKsUrItefwqATvSUKuh17pSLC/+/zChzDbFhoRdCtYF7xOb7a/qUKxh3QwOKVewdz9JbYVG3mHO+b3Z9nZK0f8SNBC48tlTIeWg9vkpfKZsJlzMtHNLS/ZOCknevqCcq3f6TSrNqFYJlx7qoIj/8qNSErPli43e8jqxkiwzfwidvdaPBNL1ZVZ0FdHguzzgs9mmyXOA34kyN1G69RADtzzizk8QXA03MHGpN2X/2D7fdr7yqsF5Dcnr4n02hqRIMuWwkkXMjj7pk75QcnMSo9t09Nmgyo4S0bDeQ2V8iu6tK1yxY6Fe7+Ls1+wNbdVww6HATXrNWxzzhh5GWljB9BnSj1+j63nO9gG3KVy/gmdfUalljh+GBJkrpIWKMtlxTQ58Aztf9kWjBqMQB8i5t6gxiBL7V6VMmJFW43TS2Ajftdx9kM5f0TndEh/YouyMOuTwRDbo2NglcUWdq1YnW6RD5WzMD2Cf/PgJbXr2F1nNKdLzQbuA8u2qYfQiFmdmRgb2zvGWUNZhBc1bBd13yKvY/Akxa4+Jc8dhB7qOBfpdEwlQQYGYfo3q+cLy0IUpwiDaBeOYKjlRKwUW0Oxa63W0qmKkMzsiSbubRDfWnfGqJWQ+N66u8d4O2SdYfvndk5QmFOEjcm3F6PY9TXFcQxFs4mkfeha8fkZfSbLbkW10wN69bLfhj4hlAy9KJxcGiFZle8gyqvGX1LL0BkdZ4lg198RYnOHf2IrrtDQkLoVRtfV1Sw+HmBTUop0in/P7ggzPW2iB0R78Aj1plsz3T1BasW90Pia1R9zGJlXdIjPhp8cJs/ars2YHD8hF41puQsvQF7OlqhvJHmFSRWf2XwWuWj7nKLH73F0BlYvWhdyfiJ0RpjT6Wn1bvZU6XRs7xl1GiVsRsWRC6/A4DZiOONM5dGZclNXgfjaoTC6YuvoKkiQKjN1+JawQ5xa/TQ1ytMt8oE5QaLH6uBLv3nAVWjei1wd57Td/e0cNvol9duwzQhb1nEO0smlMXKn11aF9QTheBnz+I3ZhsQ2UpTJ16jdKsldgyHl562EK/1lLUhQp3AHuxDc+jk9A0jHwXvmwU/T52IpcdggDu2b2Z+J7fCVPIzyBc47kR/Eqw9wmJd5yBMEn83R0YX6FblBh22q6A/p+dCyO0ySqYN3Xye5Ac4WLliWR8hqhMPqcuUz47C+yQeHGW6XWtRr5imhi0PeinRqfWBzF2Snj0Pxpq9ME0rFd1t0/De2eGdkeNElHOWe0DeiVsE8VHC2OdtUwnUYzbxy29gGxNYxkuVA2PC/9L3f6co2QRl9hLGUthXtw2GNz+RhjSH7NyuPBWUhC3PTMzFhbu03qAMD75YaNWmHXPGAFs9eHzLZcrpJIqwgd5pPXgtXZ7j+Yd+yC95TI7T3+n/YoeY8LdEYgwNsCcYBeRUQ6snw2BB61aOq2jMvDDQO+tl5eDqVndC9epaaT04oIy8cNp4p4hmL0mzugiD3q5aTjEPoVhhdkCTIQTBdTIqaCGaMvnhOESnas4R7zALUwspuC5YzvmYbqcKST1+XwY/95eCVgDs5/0iO8WQIefnNMuK+tJ+PMNOJM82M87Qsn0GdsjlLO2FrD9sV0h8+n9k15I6hXadhp1/3cEBjDld/mIvW6algS9IVW0fd2mXOR7bz5yw6ErQ7DAxG5p3KyqTt89Ijr/zNwHnAVWje9l2QyU5xBztGLVYXY7KebdITK94eNtu5G1UmQY/lWWBGe8wz68TZalgJ0j84ciZtfB9Cfn5KuMLf1oIERemfeTkd3nBcDGovRbrI4aRLJl3iK+rCzwQu/HQ5QTdKm2iZZVkqnvY1gUtQXRop66W4x++irDFwAGCOi00jddAoCN3U8f+A3gczdXmgK+aOOlWZcUpARo4ehumfQ+zyItdF5arq9tKfyPiFeCFMnSvSNSeMGmTtMXaMh6ey85O1roly/HUmlG556oIieDu2s7VC4L2MR5Y2vszG2HOzTPz85BC2E+HkFbY0L31xHccBhXpdOOr+Wgg7NI/dmLfjPu8ZsvOzzSHrDJwHQpYzeUzqbPAc6l+w6fGKu56f5jhuZVp5qHkkapcWef7WkaBFOsvvMgKMwHeGgDy4M2E5qPI299A7Qf0294rb/j0i4Hlm1Bg5dmnk2E3OE1rv3jMJWm/5cOsYAUbABwHDEGOXinli/O3/MAm6/TL8YXowuaIKqRp7uCJEDEBdnEot7lrbxLEgQ3g2139UMgn6YTSWO8oIMALrjkAfSX3Fzg4OHmzRLZg/1h1Obt+qEdD61MCW+A7uqhyMdEqkd5Ajhgt1a8gJXH/+Y6DDJGjVSsLlMwKMACPACDACjMBaIsAkaC3Fwo1iBBgBRoARYAQYgVUjwCRo1Qhz+YwAI8AIMAKMACOwlggwCVpLsXCjGAFGgBFgBBgBRmDVCDAJWjXCXD4jwAgwAowAI8AIrCUCt5QE6TTqdak3StAOTjPeWfi0w7WUzc03yjhkzOPgQtWaKIfDhSlvpb00D8z0O9xxpdVHKTwKrlHKXcaz69K2ZerTMspaF1yWIeNbWsayDiSM1P1l6E6kCvnhVSJwC0kQbjBOPiBc2SU/OMpd3NbtgdIY96P0OgPcACU+SZCmfOStezru3eoMzBLi6RwVcj6XxUWU1uQ0UMd7AWQkYj1hHg9zRkmYO9VUXWHKC9OuuZ/xuJZk7vJW+WLALeyrrDqo7CgyDyprkd+d+jSidrlC7UQZd5ThOpkIhS9DN9cFlwjdvgWPRpGp7VJe9E7v1ancGFCu3qay7x0380OxDN2Zv3Z+c9kI3DoSpC6jNG+uxUWqgxEldjIuBhDH6RfS9OhscoOYxC6GK036NLBesuWFqg7ClQXhsl0QR1sv6OOwbrkDaV6xzF5OOFuK7WLEEFVEO37eWWCYwR3F8IcpL0S35n8kJAlaFLf5G2h5c0kkaBV9iSLzpWDhUYhDnyZ3svkvhNyKi6KbXpiuCy6rxPzGy44kUycJUhfQpl7g8lbceTb/R1675HI9UxTdmb9+fvOmELh1JMi83G6bjv/FhZ3ikm+Pj7ooUdwW32/l4QPCR8MBZOkn9OE6+H3jxunsXfrtIkZ7LwfUrWRwg49O/coO/XJyRbHD97gNO7+gnOQgHj+m97iI0HL3KcqN7gnyvFAxZCvDDO4ohj9MeSGbNt9jIUnQorjN1zjbW0siQavoSxSZLwWLsCRIjMd2h4aJHJXy6UhVR9FNL0zXBZdIHV/7h6PI1EmCaNSlVk+nTKFI2SiuQTsuPrYjiu6sPdzcwNt3WGJYI28+t+u4VDG04dJASn46osu9P2xH8o+onvmZjj5F99Q49c1lEC+glGGx8aoizOAOjR8qCVPeAt0NfpVJUDBGIZ6IIvMQxc39yDL1KUpZTILmFtmKX1yu/ZxpLJOgFctufYpfG0+Q1q1TqVKn3qcvdA18YqltKtTa1CoJDww+/Qpl8i0afZG/b2wY32cbI+qWnJTf9Bht0OM/dWrlpoD38OyDNwl69veIGn7eUrkyTz2DW9X2oFkGOcqOLtawg3hMw1aJirUOXV4BndgGbeWq1GxXKSe6jnuT0oU2aTZsEsUOjZqi8xp16zjKvNmj4ZXAL0YbWzn83aaqUYD5CTMxTCfE/1FjXKRC+Yw+iSZt7VO91aFKdnoXvFd5gbKetEj1uzvb7kaLqnmbG1DrUDlfodblFV3HcJdNqUndco+y908IwnbI0KgiEDc8Mx5CB4tU61ySCf0W5apNaldzkxCs1shRpkZUG3Zop1Wkcu2DxOSAmt0OLhOc1Yxxv0GFUs3U9dgW7ddb1EnW6P949IH2336lblE+L+ouFqjS/URfRN2pXSq3utSwyGxScpi+aF2qlypU75nloUDaLtSoDd3KTMXmUOMoMjdettVjjuUOte1A2GsK6K9TnxCuTheona7RsFcxvb1G9RXoZYsG0HWSdsL8JUml7pAaWYuuf+xTrpkHruK+oxht7pap3W2EGlez5FCjZi5D1RHaM4LHeaZvsEHwVFWGReqMmpRzIGz2o5vHeK2OqFio0uklkh6hGwdN5CMK3FCm6/fWskLKt1dOU6GbR54j2pMv0snFZ4rtvcRmExPD2fEZo9R2AfrfduixvRvivTLGRm94Zeqry1gx3kGaQb1YlnoobdFkTLvLVNiwTjlPFcjpSshpu4SxVaZe9j6d0DP6e9QgYc7NsQgMOyPIw9JCA78adY22yT61W1RyKL6G8ZWh2mBMX8xO0IYxNnYwvnuEDIypnfTTnckQblGlVKf2YHbMddolglSlwkLfTANCnR20s1yjD6ZRncrfoTP8xbIQWAsSpINwJDEBXGPQHJTKMBJ9andO6eIKenDwjrROgRLDJhWrmAz7Z3T5GZPcAS5sAwrZSgcTuQscvRIlwVQ+bx7Su0GbClBerYP7TB6ekr7/FgO96J9I6UOCVF7SzIQ1l0TCkaBeOUkPkAm+ufeMqiUEzdCfxskHuoohFwKTf0FzxwazNXUqWUyquGTyNAHMilQqWN4nhAX/QVhRjsYoJCiGyeX6S4J2D3YoqQ+pd45BTil69hHkUsb13MoLJWuJ5aCSpvsIPRIm/6dlED0Yslb7nMAdaCbmr7cpn3yEMJiD1vsAACAASURBVCfI4R6MYEKjwdkFXaGNMRDDpBcJ8tAphRtYkkzC36S9Z1UyoW/QyQeEQ5Veoq3mZKhTKjWmq6ukiYk2oDNTgU0ZKa45uXQwNYMdbcQMozvVKXgcd+BxvNykg+M69Fc36m7G6zSGHjs+QX2xYnRQojLGjAglnbq10Va4muzDyBysm7KZ3+iCtuiwVoVcBAGv0ymE5p+nEdxfpz5B7ncg99R0ElT6Fd99SrUy2E6/SbVXF/RlY5v2c1kqNTBWoO9mWZiAN66ht1u0h4kPTIrOTeXCpFqnTACmdg+ZyEH5+ejTLJE1Jn1gcheYwO58nTBcK8iqHylKXV2RvrWHSXFs6jAWLAfHZRocnTi+P3w/Rj9kORHkq3BMpa7oSoMeIm400vPUQ0g+3sxS5rcLoq1DqlVhlwWxqp9izKXoBRaOnmk26Ff811NKbB9QsVQAZRhQu3FCGCrIwfwHOZjSyNjaWUqD3HQ6sPVJWb5TpiI1oY1Fz6MP11i8CWwSyAU9wzsgKLEv9CU5lb+r19I65p6WsYmmi/nlHPOIWy6ZTt0qCBbuwuqeC9uzR3njEqwkFZvQnQkJCtAdIRYZTRjCfpVgv7KWsTCTTiG9TnoqRWPIP7l7QDt4diL/d8BoYkDmmmj4JR8Evj0JgoHIwUCcw5B9BJuf5sUMMQncMyaBp39hlQV7Jj5RQj6C9GRBeq4Ik+N2gj7BS5A6fAfjX5isGj2xUeEwR7vEaiNLPz2/cBq7yKrmkxMUT1BSbP3vlyn5yyvhdkJKk4XtgRjGH55RGgZmKA2MFzb6oE9aBsbNutqXJG/7+F8YKHMNHYUEUWyfXiP+XpLLbx1tSz45p2tL+NBRXhRZy37re69JA6Gd+KvGglA8pLPrPYQ6QVLwQx8k8ZdXOu291kh46YwPVpulnQf0RtgxLxIk5eWFm1mugF6b8SZ2CnF4GdMgkEODQCrDa8ekB3AevPmMdn1Fu4xGYXWKPLPzWbIoiEMOxOEci78JCZL6pz37CH2bzRbzUzP3vnjUi4KG9R26d3RJm0//Ik0NMlsFXv1zylzVYw9DyxDyCJOOkJ9bB0L0N5gEabAZP9HR6DH9qbcmHhdTjsmZPEKzLDQE4/uvYYNMB6bKA9wEmYdHYIbMO8PfjglXEKefj+iTLYRuLpqGdPBujMnMrfNy4jea8xFeS1mx0Hss5MTWDrfvx5O8xGjynfQdY/gtSE5RDS41PneRAoDxNxlzsl8jEP+xewcA3YD6WgYEeMbImCR1+5j+HVQNm9vDguzBqdBzkONJxcLR1aRhoYxLY11IkKst0DGmdjC+jAE+8QQ5SZCQ40/0/NI25iDrXqNLyUrR8CA5PoHhsDC6I25Uj1M2a/VaS5uvHdL7MfoqKp4kg8do/7WIbMjn1UIeNvCraUD4swIEvjkJ0mF472LlsfvHf5jMbGEtF29MFBJkhDJwjtCTD2o//QbtPmtTpyETpX0B1WGwkpjsMDNtbtNeNg2jgPOJ+n2sIEQswTJhzS0Yn91hcmCP4X81IjoWo2xWJ42FZYBEwsZlkEchQdOJXXUepCMB0jGeDm57eVFk7RdynDV0A7io4RLXLUZFNQkrwCTAi89FgmS5cLV/1KzkXECfpzuYQRUGqj0OTBz1Y2K+84TOLZPCRHVAIu+ARE49QdPJYDpJByuaqw4oT4R9crPqkWUisdfi2T94ymZlLvvnYrTNMsYueqxqC+5vMAmS4ylj87gY8hq4LKZmyY7REoccvBdezglXkagpQRdhHIOYDX0IoBrLm3Zdk5h4fa/0KKJ8TRydqQKq786xrRZrLmPBVyXtnm6pLzRLUmeLcJKggWEDdZrxfBkvyTEa9yFBvtj4ND6QBIXTHbcaHGNUkSDHuHH2L9gC8BNREfjmJMjXOCrlsLiRQ0/0YrdVFonN8V16Brd/PashJ6FAT87MlYPpdZLxZ90KW55acNmaC7ZpLs3IeCZBaeSdNLMd+uW5dcKKCrt6PtgTpFZtIhQxm7YhY9aWycsXG6zUunDnNvvmeUdi5SbcvdZQURQS5AwFqglgumK2lxdF1ua7e/T6KwynHd4ZcjxwrDYnjy+UGK1W58LtbUuYGcMFDx6sPEyeicP2+uXfmtvOQpfdYYNqhu7/Ls5nQPj3sEoN5HXl0j7JO3jSVQdkvWNXr5Ii4t6J/t6J0TaZq/E6yaOwCE5i5hdCDupvMAmSq35BOHR4nKR3p5VL0pPzjIsnCN4Be26gixy8xpUbLmpX6mRRp0IivrtJ3UJAAruQ30eUr9c4t4Y97Vo2NvINgzaDIGTbhY1pwvNsGhn8fU5Xk3CVc+HmtJzOPpvtddvR60wncMjEF5tFSFA43UFSIXKtkL7QRL7X2KxvZKR0WLB0mefMJ8OlS8w7+/B7JgJrQoJE7qpLovLcJEi5HDGJamL1MRW3yjMx3f8Z5MyUqDWyqEM8T/V22d1FKh8zVyZx/xh5KA0LVnLTAGzR49dIgnYpM54pUFHuBfUMhyH8l350Rl+QCLubR76KYZ+WTYLEIvoOJpsgEhRO1r6Ezo0EuXk5lkGCth7Ta9eks/hkG25UEqQjtClCSTMfjy3y4yGS1ytIgkdyhfA/br34aISwvD5+JMg9QXwREmSTucpt2HtBDWxocH6SlCvlpwmhLk/49TeYBIlQNUJPzy+NpG+h65iFkTtyPRtOQr2ehH9BEjQhLtJLMzbyhPQZL5Sz2yHJzuRF2/O+eu6Urz8JQlj5RQMJw27i8zmKQCwc04/o7AuSjndxIK1pZNxJkGdulHjHiwQ5d/q6kQQvEuS5OcJrIAV6gsKQIORbZu6TWMdsbu9RNm1OREyCQk2ON/bQtydBSKq49/uVJW/C0neVbGdZwYbyBA2rlL73O125DjbpslfJj5GhlvkN+lP6CwnJMlUpcinmC8EkyExqTgbvZpsYdvtqDTH/+K90moALGuckTabeBcNhzhW9Myzl8ARFkLW5u8/F5Yx+qsR0022v+ufiql+IBMlyLUmX3vZShHqunDli9vonxy64xPiDzglC7kYp+ytynPzPuHInQXI8uOYW+OAnO+ztCbLJXPXPd5ILOVRc+htMgnrQ9QfULfxBzWQPu7TE0hvEq1rDrsXZ3YSrI0GEMLrKGesS5ZHcHmgrFiVB0eTr1fdFNnyozRez+XN2+6b6KRPPXVXBiYUq25kSEN4TdIV8pq9e+Uxu7VgCCZoc7GtL9fAMhznGTfD8EHI08WM+CHxzEqQSfx0JsFhFmG7sRPTEaGWMd18iwa8yuwtMJS/OaahFcnIauRsZ644HtFXcUUUup4v6a1+wkk8OfQzIazHWUK4hJA8XtEy6TFjKjRIOi+2/xrlk2IGnOjhJ4pueq+QozyvZ2UXW035bEkWNujDxppEDdKXyLlRIxr4yQzIztiU/wY6ScInR9tCbJdk04DiF0J6gSQ6NLSF13KdK5hf0yT/PzKzHw5Mm5eCuA33scvuFXulOz6hKbk6ESIwOlrmqx9a/OU2wvb+BJEgufsY4IHWIA1JtGYYzrYhOgpyhWU+5y8Vb+vFjojdvaBw4dhckQdhNG0W+nn1X4zPM7lmbTN31TuYAJVTOjsyPEknKtjE1HvZpmMziSiOXHX8yb9Q+jjXIOP0Eu4p9E6MlyRehPGsSuFhMIb9znDV3GTs+PmG0sLrjHv7XcUTDXXp+weGwOc3C0l/79iRosiMDLsODY2rVSsb2SvHfozOcX2EbkKE8QaS224oyX1K7jh0AsIi6CC0Un9PZ55hLkp0d2z7V83XS8mUqFc0tz61aGW2y5hSZ7yjGD3dWxCz+YBI0nfRx3cdTbBGvYReWqHPQomatRXp1iOtBzHYoo5w6fEudKkIV/TQ1ymQayM8pevwe212x3VPD+Rr5J2ck0sWthiU8CdIoFrum6+QBvWzVKYfE4VLpFV1eb87spHKWpwhLGFnDgOKOuDeQ1fbTJjUq5nbdRqVMry5t4Q056Vxv7NFxp2lsga2WIGctRrHra+8t8lLk7rjBx6e21sa26WmrRTWQcpEnNsBOllpLpyr0SUAfngTBFY5Q1s/YjUUIs71ti23YNSqXX9HF2GxrTp0TJDxD1biBbxHKqw9bOAfpiM7pkP7ErpKchynw6otKSseAoONWzdzuL/57BD2w7xKylW2WGU7mkyMQUM9L9E+0HY1HPlqDGoMstXtV91BziP4GkiCxldrtqhx5rlajJbbsm50LO5F5j6ust9wVKTH2Y2xNdhF6W+9FSZDYhW9uMAkjX+9xPt2KPms3u9RsNGiQbVMPeWpuH3MH3mcSJ/R3oeMJjNVy/glsrWFkJru3dHhjktjVei3GFHSisoMdc3WcXXU6ppJBjNywkEQGR2DsHXeoiUEntrE/P1M66b9FXuyeFdEGhU0hPqBmvYajLjL09ivKdu2RbEcMNgXnRmURVtWKVcsW+eBwmFrIiTOY+u0ijhIZ4HykAp3AfmG5M62bc4KWTmyiFLgGJEg0d2Ts4iqDYJj7rsRnEzu5cIicbSdXOBKE17G6buDo9KrMpZgWi0RpHOrXsB+250BNbNHfwRb9aYvMBNU6zRx0hfeUsmMPbDSXa4hwmNEsbPeuyEPNrM0UBxQ2OjA2yi5N4vLyKdUeJIlnc0d0oa5RQ77EYbtC+sPnNLSsUs0QlP95IKZBydDrf8vUzT6kU9gW84My3+F8J3Egk/y4lxde1q79RtvFAXJtdYimrGtQz1LuCOfByL83dp9Rp5ul+t1HM310HRxeuBnQVyhfPCGcJ2f5xGhrv4HyzdwxZWQP3n2d3QLt6lLHrkOQ6odT4Ch18Jp6NVz6iJ1sGUWCkNhb3CkCX4v+be7CIPfJ99o7n76MWgXK4XDL2SKfUavTmJADN3yiyFy871YPGQdYtqiHgwldPTQh+uvUJyQ/38FxCZPQtpzEexl6iolVXZsgDvGrn+Icq9h0B6GnrruFJT0w9ZQ7MFCkgLaO6R/hoXJVvMlIsfVjvu/Dytd/nLuNT6RYYYdsqdWjZt7Lv4YJPpujo6mRwXEkbaroD+n5cEpSJvqBRdjEdBi2vk1dHHSYILtMJwN81oZtwI7D9mXrd+mRpXx3mWA7PBZRhZOpfRA5Ywc4PNY4iNLjM03UFw+AzP6NIzEw4MPrjnOsb+4eA6cmPTmxEDCVvuGYP8Iskn0Vi38MgcCakCDVUhlWmuPeLO++jknXdOTo4xM5XIV3xmiTLt6OUzLp52APgfbCjyh8RFeSnu5+XdNorM4ZstRpfL9UbAU8Gunj6PeciaRJI4QYpj2hZTBvWNIEyQs3+SMZzV2WHsg+xROQo9+GL+BrwiTPjQqpQ359MfVAFBlQt0ddYWVuPhex7XP212iqQWB6rufxqM0MgSfF++Drqx+299TCyHoOV0jRLfzYovI1GzC1m5H0RMov+B1VfjTboWzYfLZ4anNCv6/GqY+9DRSYsl/zzD+BhfMDiyKwZiRo0e7w+4wAI/CjIuB9KCG2zmdxYJ41D2OlIKncF+t5QSutkAtnBBiBORFgEjQncPwaI8AIrBkCkysZrNu0NRp2L3CXG3LLXg6Q5uV3YeCS+uNxcvSSSudiGAFGYIkIMAlaIphcFCPACHxjBHBKfBtb4tu4+6k3xJF9yQzlckWqVIMPmlxWyzXsVMiKi1BbyJPJLatULocRYARWgQCToFWgymUyAowAI8AIMAKMwNojwCRo7UXEDWQEGAFGgBFgBBiBVSDAJGgVqHKZjAAjwAgwAowAI7D2CDAJWnsRcQMZAUaAEWAEGAFGYBUIMAlaBapcJiPACDACjAAjwAisPQJMgtZeRNxARoARYAQYAUaAEVgFAkyCVoHqsso0Tl8NOFE1yommYcpbVttdyzFPbA0+TXaljVjzwuVJuss+XfYGZD/G3Ui9zoD0dI7yubTvBaZOIayo32subeNk5gGubxjolM7lKZe+uVPpo5yA7YSRx/LqVWv1Y2IxHYiOwGI2Inp9Yd5gEhQGpW/0TPgLTa9oX9055dPWMOWttKuud2mttMalF6736lRu4J6vent6Z9sya/G8THGxSpYle6/+j3CBZwYXeKqbzlIv/sZlsREOJlxRvxdDzf3t5enAiJrZDP12MUGNXuAS0Siwzd8/r0tbQ5boMpZH7TJV2gkq49JfzyvGQhZ/ex/TcVlqh0bpPBWz03sUJ/3BOVbd9oASuAvS7WdSv+Pey6xWofS9E7rCJeJfcUm07wf3S9bLuOQ2V6f25DLJIBQX1IGg4m2/L2wjItYX9vEfigSFvfMoLHirfi7MxOV5g7lL48KUt9I+3SIS5KUrJoa4LjbqJB8W2BWRgWXJ3r3/8pbvxGN6j9vu84STmfUd2km7dFrdLWW/i2lF/Q4Le5TnlqYDmNjiv55SAjevD1t5ogG8aLi02Q02t/YtZs8WnAAdY1le9olbUR0XCfuAu1gfokjtpp6VY4Gml/Vaazavdrkk2v2D/uuXHd5S055rdPh+TO10BBIkL/6FYaK/xYnlobq7oA6EqkM9FMFGRCp38Yd/KBIU+gb6xXFdSglhJi4mQUuB2lGIp66MutTq6ZQRK7VVRC5WRAbC6FIoJN36L2/B1g7f0xjG2O9j6iuR4yLTFfU7VJ+iPrQkHTBvPJcTnj9sri1czJ4tOAG6LGj0fps6wwTlSvnQRG6xPkQV3M083ynE6eFZnB7/qVMrZ61Th+fvLjx/4rt9evsVxGCmSerOOflbpDExom6rR3qmAA9UWMO0oA5EgTOCjYhS7DKeZRK0DBRXVEaYiYtJ0GrA/2bGOZLhC9/3MLoUvjTbkxE8fN8FCZobqNkXPbEIWf5iOrrgBBhB5n7dWawPIYG66cekVyb1DCHhhtUn06HCnYfUjcXoGhFQw9tjJb96k7J3f6ML5SVakS2YwrGgDkTBdUn6EqXKsM+uAQnqUTldoG4ecVRx306hSqeXn4liW3TQ7FKnlCYatdy/V71EHLVVKVEdsdZPX0R8HRcobheo1mmTeJ16ZUoX2qR9+WLkLMQ2NiiO/yaKqLMpqbooo1TEO5d0hYdiG1uUqzZxD1Fu4rLUGjnK1IhqgxYlKjkqn8H3u/mUulqTclqDcsaPQ+rsoL3lGn34JAqy9GMiFY269TJVmz0aXok2xWhjK4e/21TNTVl8mIlrSoL+R41xkQrlM1wWKardp3qrQ5Ws6Kn58SpP69apVKlT75PEJ7VNhVobeGQMnKafMdz2JSrWurPtbrSomrfFv7UOlfMVal1e0XVsk7ZLTeqWe5S9b7gBbMYhQF0ltskWVlYZoQtlOjM6maLdcou6kIt17SP6U4bsesMrEuoQSZZtopKPrpg6AD3tIJ9Dqo5o/agF7BUuaNd2AfdXAauMAFC2f1ztU79qNYpDqmezVI/XaNirkIGgq+ELpy+9cpoK3TySbIvUQc7BycVniu29pBHK7hlhvJTpgUlAXzNVGqGfIxGGsX50hLPghh9ax4bl99n+Qx75NFX6Y/piAk0bor/JEnWHDcpay5UYDMZfpEzMMUg7su+Wfv+vplGhVPUZP+JFpYsdujQHLG3lqtRsV2k6hKa2ZYD+5IsndPE5RnsvR9SrCLTDlOHUTVcdEPajWKBK95PZv9QucmO61LCM50lJEuO+DYtkCeOqIVALaFeQPQuyh6Y1oPydR/Qh9Qzhk4Z/+CTkWDb0r52GCeyRAa/oCcKjxUKFuoZtERfblqnVha0c+NtkX1trFhxorzHwqFspULl5MbHp+YacU4zWBf3ulH2ob+xkRr3UK1HiwRvKPntGw5MT0h//SbrVVdQp0J2HZ4iU/Uf9MixalDEhx9fIPm5FrlCxTPWe0Es5z0zs9VQHPvZz1MxDNph7hb3eLbcddtW171qX6qWKLB9P2G0fRbARocBd/kNrQIKUIFKUuroifWsPBnpMgzMoLgbNwXGZBkdQGNv3UxYtXYhDTIilMpWRbSYmwfophB6Tcdlhk4pVGJj+GV1+xoR8kDXdtTCanYowOjCWyQf0Cr/tPatSaQfh+XaDTj6gBQfvSINyiknWJBw6pVJjurpK0PZemvR+EuQDDF8qrJ5K0Rj9SO4e0E5Sm/bjnUadgjlVd4tx+vUU7x8UMeEalVHj5AP6u03H/wwIXnLTTFknLo8gryJBgthdf0nQ7sEOJfUh9c7Rf8Kk9xGTHqrwKk/HUiSJJJdrkL4D4JejPrU7p3QBfmftu3h/gP7fP8EPMPBPyzBiIKet9jmIpy1HZnKbNyamPZCGhMQBbYyBiCajkiCJbXJ/nwYfPlBie4+ywGjYk3U/+whSJTup8iy2D6hYKtAO8lPajROCKGn7+B8aSHA9ZTnIg/h664qb520WlwIEjLDA+SV9hu58he4oY+YkfzKPgiwTkQsJiqovqdQVXWkYD3CLj/Q89QZ1Gszokki+/ZmOPjld8joSnO/CX++VaD/bf5261RI1cVlp91zoxR7ld6DjySI1msXZkIjepSqIcH/QJfPRPIlHxbNNPJtU/RZE6voLJXzGj9DFXjlJD159ps29ZyjXMoZiB/QOk7Y51GZtiwa9zSZGpOd7NED2cbgynEbXqQPAcwd4Xm7CXtWpkNQN+9GM12nccUlo9cAiWcQ7xXRwu7Do8rZnabTlJzrys4emNQhHgiKMZYe9Qm7Kzs9HdLl5QMf1AuySGItNitfHWCj622RfWxvSXpvjBuP+aR2LwQTmhQY1BjksjkzSF/T7/NOtLawlCzL7lKQ//qtTP/2A3iRmCWivlKAHb9J0/C/mAEEio4wJt8WTVXYHJTgEMAd1OrDtSZmAL3VAjjkYa8y9FrsalPdoK7+cIyMp/NScPOQ4jGAj5gd8oTfXhwShGynrZCZZM+ZX1+/HlvyDUb9Pcayorb6ImQQzudj1cr32YVB/eUWI4WozMVwztgul/GdoEBNl/NCiGXJhSEApIYjb/mvEZ0uyNehHEuz/895r+op/i48+6JOWwW4aq5tFulC3j//FRG2+G4UEUWyfXiNXQVUrVhjJJ+d0vYcEPKwcxZzgKA8rlhzcr+dYDX7EalDSCNEZGNJ7hlF/+peGODa+QhJfEiDp6IcmZKPUThDAxEM6u97D4AaZxA8mnjrtvdZIDGyz0z2QSwx8MQHOSYIEKZ7BlmSynaVugEt9LUPZWXBNg799TP8Oqoae+MpygpWTJDgmQKzAdn56Tpd2DNHfRjdJlaKwKmaC47wkKJq+oPHQhbdYoRUt7jG77MXOrZ+PPtEeVp09ITTjoxYUMGBCri6mxTX8GsHVHRgOCzF+lC5iwJJmW0nHsZJOg+yKfJvJRG9A8haTYHGqt1Kfg8twguDUAUz2Px2RBvulKTLugp39K1csIrTLy56Fs4fhSFCUsWzXMTMJWIOt1CYLMTsGXn3wG5/h7LW0Ddmp3Z2tO+j3EAL0ecQ5/8h8IM1MXB4ZBC0zJTywuZX0PTpxWxCFGRMuJKiHOh6ABO6/hcfLYgxGrSYN4U3PJ6QOoB+pZ38ZXkhjSlKerE3MC8K+ufYT/ckhv+ncORcOIfd7SP7efPoXacbkYRhcDxu4GM7LeHt9SJADcCkgr+8tE5orEJJUWFe07gNuANftfUP5HAKXZey9/orJfDpx7r6Eu7JiSz5TSmghO2a7ZPnxALezi5JEIUGqjVMsQDoSIB3j6S4Fe3lq1T9xv1qBtMW1zVWKIIr2ZL8pLibWsr+6y+6IAUI+CIfF5yVBDmzhETDaNXbG12eUwmlglJF1laWYPg3PSTAJ8sVQtWFBEuSq3576suEqIzcCbOQfWEgyaeZkPoQHayw8WC6flZOgEONngFiLEVV1TK7SZkzKkH9vPKY/EYLKWfoTvgwnCE4MpoTiLxEGnI0he9ppNxIUpV2R8mkc9jAMCYo2lh06NrEhlgnWhkbQOHOOz7D2Wo55bXZxOK0+6PcFp1e5iBck2wx5mXj31d8Sm4ntlWNvZA2RRZlTHCRI2n9y6v60Z15zLMEZcIeenLslb8u3vUJ+xs8uusUkyE+hvAZjtO/Ho57hau2MxmZloz6dIb4ZTIIUG0a81EhosHxkzF55LnyTkD2T2FwYvqgCHotus4lQgmZWKP5GnMAaKopCgpzhC7UTYarI9vLM/ozdV2q2/pjv7tHrrxhcdnHOEKaBw+syeXzegeCTIOgevkE4ogtsm/C4meDi73O6Sk6JaFBCeZBxVnj7Yqg6vgwStKC+OHVJreR24cHrGx48c+U+9CWUKydBjjNRnOPH7Ms0t2+qjjI3aZLn4j3Rhy/DabtcQ6LI9br/+yc8jHD7YZUayPnLpf3ZkBsJitIuPxIUbA/DkCD5jNuCM9SiDWGdzH0yYdmmw2oDZ9nkyApL2HHmmLhFHmWAvdbbBUo/OkNaAHKR9pEXU69R0YjBSpMb8LvfrBX8m/Q0KZtjhOnhXVXJ0IpEKH0HUbrzpD879qLMKY5n7QsCtxYHjQ8fEiTrG7t6P9VxCZb357X9wUAv/MT6eIIcCXrhSdBAGSAMtD0kixhqHpUEbT2m10iCdn7ik+3QyyJBk8EpEnvzyOFZCQlysnl3EuSyXVm0x5UEeQwKNxLkdg7GvAPBhwSJ+OUdhP0mJBBx6kL6EZ19EUmYyDsxwV0xCfLAcEkkaBn64kqoZ0KwYzNPSH9KfyHnZCap2TIo1ocEbdHj10iCdhuxk23CQUY+TBnhSJB4ajzExoYKkrORgCY2YGy9+EgiNOD18SZB4drlRSDC2cMIJCjkWHZftCHJG8nqFWxU+CAS2GmLXnwU4XYTlblJUAh7bVSg9alRAQE6RY4e/tw4eEsj5GlNqFDQ7wtMsWY6hRnyKtRVPpC54JiGnk2PORnhsdzstvllkCDfgxaDxkcwCXLf5MIkKKLahCc7ctjMJvRJN+KlfaCGDofZGLtP65dDgqaHRv2pWVz0oVZW4Q3yJAxnCUs5SJBxTskVcnfMcN/MRyUY9iI80gAAIABJREFUS6bfKdzBgN509RqpA8DMclT/XMKLKyBBZvhAn6ygVBLxbH6XdzjMKwE4rHFWOuF7QJzst2M3iF8ewMR4LUdf3CcorEzjyOdKH9M/XaI8klh1axzfZSysAwkyZZx0njXkaK+3kQ9fRpQxJ59FPlYp+yvy37DRQSW5emI5S6CjtMtVR0PbwzAkKNpYDvJca90SZX99Q1cWz1LYcTaFL7y9noEcu8kaWHA+P3fZmm4yWP/fI85qkuHRHbgs917/Q/kGFhg0zUkUv6vk78d/dogKSF3YmeZvGu8vgwT5Hp64CAmqIsfnd7pySVFAyjk43a90isTvSYrJvLZ/HtwjvnP7PUEebjkdSV53n8/ucnEP6VgSvP7GTiqfozaXQ4I83JQyhpyw5MsEGZXpQELK8P5rGsHITJLDJwnZPonRXsnOYltjLomYcGKSGK1jP/jd385nk9QNZUOMPo2cqiuVGK3CcHI79gRPJJ1jO/WTD9e2xGh1P06CkgmP8IEyBrbkb7Grr4RdfW8+T5Oy3WUs4+OW3RjhwmHO8J/jPUkW4YqaTbxFIK6PreNZsY2NQHbvPKHzLZANcWiYmiuxPT39BDvzrF7QsG7tiPripUvmpJumx4+J3iC3ynGIoc2gLIcEuYRgIxj8qS4GHbXgbeTDlzEHCZpMcP4eQjdPUJR2uep6aHsYhgRFG8vB9sortBlinE3EEN5eOzlx3iAlnlcMuSycjbu1kC6cTNpyQMNMtDLkNTg4pNzZKQ3soSM1hrHrlbDrNam2xquyI4wJJ2FSO9TsdljwvT4Nk1nszlyABGEXcTn5C73SITtN2NcpIGpTToITo8NoiXhmQU+Q2uEU26OXOLG0KLan1nFmy8ml4ZK2Krwy4KnDt9SpYmrqp6lRhuMfCbtpZFpexbbpaatFNRAA4a4cIIu+hrNpqnBzizTR5ZAgqTyfU/T4Pc5YQIxa6yJT/8mZ4a617pwKNiqqTRrFYtd0nTygl7i3R5xZVCq9osvrzZkdb655IfIE082DY2rVSsaWcvHfozOcMTMzsSvCEcOW0yZczNhajxWvcDW/uhTExrlN/Xpjj447TWAntkc/pzMtRjGcEjazRV4NdL8Vi3rGUKkUHbxsUT2HHSelklH3pmWXkLlz5DOlcBVBFz73BNpYzj8hdEeAOzkTJYgEeemK8z2xc/AewaFGJoYFig+aVK9hW35G3fmjDDeacPiaWvDADYDx8zOdNmI4N8eSq+Q0ZsvRF09dkkRYwEM2kuY2ghclQeJ0ODERxfaOcQ5JFmFKDdu9LVvkQ+QETYm30EUc01DDTkgxYnF+V7PWIr06JKR7+NgWK3kPKiMECRJ9qsaNsVfMJEjH2Tjl/BGd4+qEPxHqyHmYQtfdYZNFRXC7XHUUGxOMHZ+B9jAMCULDJckPM5btOib+rsZfUgv2OJPQccYY7NyRcMX8iZPFTVTCjzMLiGHstbAZ2T7lkXdp2HNM1JXCIzqFd+4lvHMVPeB3Q6HMjQKX5JELGTjFKSIiHoy55Nqp3a3idxev4UIkCEkA2NyQxG7JazGvNRtU2cHRBHWc6XM6ppKx4F+EBIlNZOZxGjB8dNyqmUfLiP8eYS6z71BlT5CftpinaJ45JsHw3+uI8e48PMU5O/KzuYtzKbLUfHJCGevFopN8EfmcOscFf+o4UM48TM3a1hht7TeoA5IiHBrmMfdX7nfjyGPBryxlmiW5JEbj3JZs7oguxP5/Y3yk6LBdIf3hcxpaPEFmCCrle6mi2aYMvf63TN3sQwxy1X6U+Q5n/hSmBwe4lzeiVsE8+FGQRvODw7KetajTANGxwoFt3xV5CN/ka7RdHGrZth2sOAD+uaMLJCWan43dZ8ARBwPefTTTx8mkb92lZFcXZQxw8N+7ZIMeTjsJUvEOZ1NgsE/eGeAAwhwdTcHFM20YvYf0fGghQX6yFGV56IqrDhi4FHA4oeqtEOkBNXsd87BOo7wOkjIt8tnYpWedLmXrd+mRpV1QMtPNbNWjJeiLty4pkiU4kNpabhfA9G/X/kcycJZkWVEsiNff6HMmyvgx8HTRRTGUcEhoA7iad0h62RAlkzBlOLFwYGDItoixNx1BJGxQt09V75QgSQBcvEWh+uato+HsYQA2lm6HHct2HTPaUYRdnoEF5LdfnW67jjLOLG0KttfCDuRhBywG3bCzOKvIOEQq6HeBrzxChHBkxFf3IyO8R4r5iyJ57tdkqJwoPOh2aGWUMeHx7KhVoBwW2JNpwbDt6iBEbx3wS7q39tkoHwf0zsr4GbU6DZo5PzeSjQhCdbm/r0E4bFkdkmGVEK5Lw8UZ9wi/yAseKUQ5i7ZcuVoTcLWG3FUbWOX8FxLqpGliZ12cAtszxrO6+ay/m1iWGU8i1OXedLW7yn5G08zT9hWRrD+eSJJXBI3URZ1+zwSiCTvopyv295Xu+PR3Eff6KvRFJI2b533456+EgCrSI0pP5wozzNSk9BbaaL+UNXSLllGGmDQ1MoeQT2g3dJvEg+Ha5a6j4e1huCYFj2Wvcky9FbB4j9dI48xaUZC9DrJVQb+HA2fNn5rqQqBtn7MnYWQ8Z9Erf+07IkErx4orWDoCZmJuv2g79M5ej9/usKW36QcrULn8/TxxPxgk3F1GgBH4cRBgEvTjyHrtemrsKkNeyJ/i7jW/1jEJWpns3E+OXll1XDAjwAgwAmuFAJOgtRIHN8YVAQ0J77jnbVTu4qRun+17DF9EBDTkR2SpOipSC3lHvkQ0Ysn8OCPACDACtwEBJkG3QUrcRkaAEWAEGAFGgBFYOgJMgpYOKRfICDACjAAjwAgwArcBASZBt0FK3EZGgBFgBBgBRoARWDoCTIKWDikXyAgwAowAI8AIMAK3AQEmQbdBStxGRoARYAQYAUaAEVg6AmtOgtS9Ut6H7S0TkbE+oF5nQHo6R/mcvI0+VAUu7VQH+s19gFuoivkhRoARYAQYAUaAEZgTgfUmQTd4PswI96BkcA+KOuE99QKXM9ZDbsd2aWfQ3VRzyivwNb1Xp3ID9wfV2/LqgMBXlvLAqF2mSjtBZdyflJ/jrsGlNOIWFSLkVCzV6IPlvPlNXC3iOG7+FvWJm8oIMAKMwG1DYD1IkLriwO41uTESJC+ySzym97j8MI97ZQb6Du2kQ4pzjUiQeecLrqKJQuJCdtP7MXk/Gi6oOXj3lXBvH38kAu7XmJh4tROHVBEX0eJZrVPDpbUAMHZI73HpZp4RZAQYAUaAEVg5AmtBgtxvU0bfb4oEycvntMP3uN14julnjUgQjbrU6umUKRQpe4MeGb3fps4wQblSnsJyx5Vr9xpU4HUR4Xg8pnh89sa4QSVN90+uaPeP/6hfvkHhrQFO3ARGgBFgBL4FAkyCBOqL3nC7TiToW2gR1+mJQNjbmI0CBhVK3j8hfV4yznJgBBgBRoARiITAtyVBWoNymRoNxl/oC5JxYhsb5m3qOzUa9jAhWMjF/2oaFUpV+vBJPLhFB80udUo2n8N4SK1SkWqdSxKpFrGNLcpVm9Su5sh9Xa1TK5+mSn9MX8wG0IZoQLJE3WGDsqItWpfqpQrVe5+MNlIsRduFGrVbJcqohXwUEhRYXo/K6QK1k8ClX7F4VYZU38lSPW7/XvZhWKTOqEmZRo4ytREVOyPcDm7qQq+cpkI3j99x9USxQFXg8/k6Rpu7ZWp3IQMrOAJDPFPpiv7GaMMARH6yDTiaSq5YGnW001Qb9qgi4jsGdBUqlJt0YQqDtvIN6nZK/p6iUYuKwLc7vDLqT20XqNZuUWkCtii3TqVKnXqfvhg5XLHUNhVqbcg+Y+qPUbmpW1QbUCtRoVz5jK5ok552NeBiYtzNd2hQ7FC+eEIXn2O093JEPaPxYxpCvsVahy5V23FtR7NdncUKT45aRdTdpeEV2mLVjX6Z0oU2aV9kG6VuJ1DfSAnGPlQlCaJnH9H8nUgDmR9mBBgBRoARiI7AtyVBepeqpSb1B106RzpEai9PO2JCThap2SxOSZAgJ9dfKLF7QDtJjQZnF5jQYsg/0ZB/omZwTGzJB/Tq8ybtPatSCXPIoN2gkw948uAdci4KLpO3Tt1qiZr9AXXNBlBeNAD1N1B/WkduRvIRfbjGBH5QojJIRb/dodMLkbtxQO803IIuqg9LgkKWZ3oPtun43wFVJaEgdds32b4ntPEO2rj7B/2HiVdDSOUeQir7b79St2gqhFleilKpK7rSt2gvh4RvkJVzkAgkD9HfozqZKeAD5Krcp5OrFB0c16gArDu1Izq7AhnZhWwKFeqAULp9VB3P/h5RQxSGyuO/nhJtP6V6JUsJkL+GSNjuDc3f3T4gAWl4Qq4oRbtPywSaQu3OOV1+BtZfgTXe0RGuTCLp6RoE96BUxn1XfTxzCqIlRGKRs5SJnkrR+OqKEtt7kGefko0xdEZiht9S+E1L7SJ0OCI936MBkuF75SQ9ePWZNveeQT8NRaLGyQe6sspcoCXDVwCHnpbRui5CgucgmGjH17pGxSrIUf8M7d+k7YOsSf5ApjrAw+3TK6HeNzr0WrQx+mDmNxgBRoARYASiIfBtSZBsa2BOEAjP/usRdTFJGJ9eiZIP3tDnvdf0Ff8Wnz4mrl9eET3+U6OWZZ7uFOL08CxNx/8MqWrMQi4f13CYDo/BXfrtPIWFOSZ2y8J8iNvP7x1d0ubTv0jDrrJwJCh8eTrKvIudatbcEPWdaP328b80UOxIko0dmUfititNJUtT6hn9JTxchrsE7cmifxeb6J9m9k+V9RI5KRVJLnXc8H73N+oHhGjsJKhbjNOvp1l6/bVHpoSCPqINP9HzSzveOvUaXUpWipSRbTlHPz6OGjQVifCS3aOjS3h6/oKnR3AMRUzxzxQ8K6MZz4okQfgttv8WnqXilCCDSCZNRSJtVpEo/vCM0sf/0FAoEjxNOz89p0t7W/QeNbpJqhRNphcYDjNyuAbUbzbpFZicoz1BsPHvjAAjwAgwAnMjcDtIkIXsmD2FxyIJj0X8GbwYDXgx5N+EyVFMTlY44Dm4A8/B3uuvgju5f9xIECbcLCb/C+lhmQ2nKU+CrD+MJyhKeepZTNBfpTvHmEy1fdoffaAPGdPrI9rUKyXgPQDJk14jbxJkITsKBUzyd56cT71GBlZDmnhzjOfkzq/kH/Q/1DmbyjuF006CzHZos+TVT0198TFfdCOHkyKlnFPPcLSBcDUpmey+BFYVmxdQym/jMf2pt2ZuTx8gHAZn1JQYTiswPW5SF33bYulnEAma7OaDlzNfrlPDGtKbe1jzi4wAI8AIMAJhELgdJMhCBsxOyYkZpMckQWplb8thEY/KfKPJ5OiGihsJkt+NXfMz1JbwfXr7Fdvrw5CgKOWRBs/GT/BsyPIRFirGf4W3629qajvwsOTMeglelsQDepM+pn8HVWOrtTcJgodFhaoUBpI4TEJnPYSwHpxSGtvrh+qMJBmiCto55wiHIfRXSD+iM0TcYql9KtfrVCvueORmGQ2n9L0TcsdbSt0gVmMXgjJ9/0rpiu/OQhuJdZAWS37a5DeZNwbPj9A5xA292xKBBJkkNivlGWbI8jOMACPACDACy0Lg+yJBW4/ptWvOStx/y7gPCQJzMD0LM5/5SVCo8lCXhpDbT0dDOnw/pnYcycgPkBPzJ5KgNeGt6Znfp03iEFchmkVJkCBbiV/pFMRlEzk02YROfZHjEgMZQ05P0WfXtoMEGXhp1G9UQIBOkReDPzcO6O2o415OiB16nmFTgxebWCyHBG3R49dIgnYZZfFMgYo4e8C3LRFIkFlOhknQsiwal8MIMAKMQAQEvhMSJA87TCrPUAQELBPoDEGRZwddOUJx4gV1uKIMv4XyBFUxSf9OocqztElHbko/UcJEuWMmB8uw0RDfDzMVECV9xsOziCdI7Ej66XmcXrwvIvTUA4Uhiqex266OfByvOJiE2p0EKTlgt1UDidXPzwnszf0sJoWhSCr2yAoWuTj3fr9yD23KfKaE8tzN6Qkyc5mSTq+ZnQbLBPSgwyGDwmH6oIWcIOysq+T4fKWIw5YfZwQYAUZgUQTWiAS5hDk8JzJ7OMySdGwP+YRByNUL0cdus1/olb5HrzURdpoWpCOXJolcmkSkxOgI5RlVyT6OD+kwfUqnpPKAZELzSH6vzRK/RUhQp3AHSeS79PIfbHNPB7AeG67+JEg8LENQjtCmKkgSS3J6nbR+n8ZZ7K6SScs6iKmGBK+pSOAhyyXpyXnCmRjtWp93OEzH9vW7v50jmdrNA2jptNr9Zk+sFt4vHLmQzaaNh01coENeCeLGaelxSiQTnvlWYVSYn2EEGAFGgBGIjsBakCDMFEbycmzvmLqNLA1wlkuxatkiH5gThI6r7dWxbXraalENk6IIxwxaTaq1dKoOkaPihY9HKGayI2vzgI5bNXPbvfjv0dlsiCiMJwh1hy5PttPc8SbiSLM7wsxQ2aXx/WSHmnxnERKELWeUuf87fZrBCXlWqQzl7efw+JIgQeCy1M83qVkDYYQcepUCPTq9ou2X2NmmDhKylaE8PSTxLsQH1KzXcMyBChepHW3o98ExtWolJMHjHCD89+js8+zOqjk9QdNjAmLY3Q8vjdF+aBI8Ns1ai/TqkNqGIondhvcIjinZlgLFB02q106QuD5NaFfySB2+xfECRK1+mhpltUVe5X7xdSPRTRe/wQgwAozA4gisBwnCRFbN3Kff1ey7dUx/IxyVUSEpR4jE7gkygdBxwKJ58J0VmBht7Teo0y3Ls3BcQPPJRxm1CuZBe+pmVUE87BddurRTTej2cEmo8lQTpefjM87NmUlqnmz/tmwJVyRIhoys9ZoenhS9gJds5k5Ye2K0JJJjEIx6QR5HoA+o3cDEjsl+G7lHA49zBux1DOpZyh9d0FQUOGvosI0jd9zOa1IdxnZ43KVVOLkgpCWZHxxAeIDQ3PRgzBG1Cjkq456tqUg2afdZizoIualjlbCP3Qw/uobXEFa885DOZs5IsugFtrlX8kU6mVUknNG5T41Od3oxrfFcAc9NWovmHlCz16HJOZ6WBHGjhpn2KA9mzMzxmuPGlsVNAJfACDACjMCPi8CakCBTAOqyySRCAwt95IWsyGihhcuSDdE1DecIo8REkhLRIkWuXVl2eQvhZbwsiWX8mP4RBGKmQGwjv/OEzj1DWV61j0nXdBM3++W4vg3WSdOMt3zkN31mdaEkVUdA+5W+xZPkpbqGvOMJ/G5XHmCkIxy2oMovLn8ugRFgBBiBHw+BtSJBPx7869RjmZOD7fZ2EjRG/k0ah1PGg/Jk1qk73BZGgBFgBBgBRiAAASZBrCITBCbXQGxu0x4Se4VzQh/1qY/97debh/QeeVV59liwxjACjAAjwAh8JwgwCfpOBLmsbmj9BrbEd3Cf24BGeoLSuLQ1V676H3S4rMq5HEaAEWAEGAFG4AYRYBJ0g2BzVYwAI8AIMAKMACOwPggwCVofWXBLGAFGgBFgBBgBRuAGEWASdINgc1WMACPACDACjAAjsD4IMAlaH1lwSxgBRoARYAQYAUbgBhFgEnSDYHNVjAAjwAgwAowAI7A+CDAJWh9ZcEsYAUaAEWAEGAFG4AYRYBJ0g2BzVYwAI8AIMAKMACOwPggwCVofWXBLGAFGgBFgBBgBRuAGEWASdINgc1WMACPACDACjAAjsD4IMAlaH1lwSxgBRoARYAQYAUbgBhFgEnSDYHNVjAAjwAgwAowAI7A+CDAJWh9ZcEsYAUaAEWAEGAFG4AYRYBJ0g2BzVYwAI8AIMAKMACOwPggwCVofWXBLGAFGgBFgBBgBRuAGEWASdINgc1WMACPACDACjAAjsD4IMAlaH1lwSxgBRoARYAQYAUbgBhFgEnSDYHNVjAAjwAgwAowAI7A+CDAJWh9ZcEsYAUaAEWAEGAFG4AYRYBJ0g2BzVYwAI8AIMAKMACOwPggwCVofWXBLGAFGgBFgBBgBRuAGEWASdINgc1WMACPACDACjAAjsD4IMAlaH1lwSxgBRoARYAQYAUbgBhFgEnSDYHNVjAAjwAgwAowAI7A+CDAJWh9ZcEsYAUaAEWAEGAFG4AYRYBJ0g2BzVYwAI8AIMAKMACOwPgh8ZyToHyB7tT7ocksYAUaAEWAEGIHvGoH/E737v25tD78zEvT/hSD+f7dWGNxwRoARYAQYAUbgdiGwheYOb1eTLa1lEnRrRccNZwQYAUaAEWAEvjUCTIK+tQQs9bMnaI2EwU1hBBgBRoAR+O4RYBK0RiJmErRGwuCmMAKMACPACHz3CDAJWiMRRyNBukY0jhMlE2vUBW7Kd4/AWCfqdYj0NFE+R/TdqN+YSEPf4snvqE9RtRH914BDAhjAtBifUHbG5b2oVYd5PlRbwhTk88xN1LFgE5f3+g3JTTVYHxB18L807EYO9uOmPv4yZRK0XDlofWp3dcqW8hRZxuP/G0b4/wlujyQ++TtEH1JEf4+IMsFv8RNrjEC7TNQGm2jV13sCHjWha78RXUssUy+IRmjz9/AZVojunRDtvyXqFlffo28tc71HVG5gMoL8ytKAtPNEjz4QPfubqCG/C2Nn3N5bOoLIXU3fw/7ZfaKvXf/S3foWtj1h+hu2rHmeG7WJKvhfuYVFxopXGDciNwlCM0v028UUkRfQsfoNTVz+MmUSNI+euryjUbdSoOLJBX2hFIzIaGJEQlfQ/v/QnUf//8DHU88w8cB4fevBGtjQ2/iAXBmtxBvgVbYy7sDr3VeiwhrjVgQBP4Vhfo82Y76kAfq0E5ntf9sOeq0KV0WCNHhshVtlxmO7BjJXE6CVyH4vJMitb2G17lvb1QrG0wlOSjl4B6/JkoyBl87fGAkCaY3/igXeY+zDArkjeIP0HZDakEIR3mfd5qEM+arxGJOgKGjN8ex42KB89jmdf9mg1OaYrj4n5yNBBE+QZvEEYTXw03OiTSjOwLraZk/QHFIK94qaCK0r4XBvBj/lV3Yfsh6CXMCBuL4fOXFrhwjDor239WMYRBdvwkpIkMSM5MLFitk3l/kInscePHuYaLPS4/C9kCBy6VtYff3WJEjvg/xAb3Kl8CQhqG9eOn9TJGhYhZf1d6LD9/B4z2HjVDvfYpE4j5OWSVCQhiz4exsIl/Vn1O40KF1PGy71uTxBZMsJwkRz5xGR8vzYm/mtB+uCsK3l69+KBK0lGPZG+Uzot6L9spHrQoLWEbPvhgQtAO73aFe/OQmSoeZ5F5dMgrwVei3OCRqPxxSPm2mEQ/gyb5oEfcTKoQl23bpErkaMaBf5JV2Ey2bCyXAltrCyqCGh9QoJHbENrDTAztv4X2DYGa7IOuh3HavGL3h3AyHUKsqvWhi9BndnCYre+2Tmi8SQq1SomXWqBEuBTzmNtuG9EeotYgXa8WtziHoJoYY66lBtU/W28Z36aGhrBm2pYRLfaaEN+PcngQH60RTtRptEOTnEpwfASfRR4GO0Gy7bIfqdlL+T6BMAywFjcbb3U7zfzOF1/LeMPvVQh3p/gm9Q2RKXNtph1GXRd+E6LqLOISoTuLph30NbCqi/MwKukFMVMv6Mhzd3IV98nwsSsNINPHv1RQiPaAt9aqDuvGxMCzKrQM++yN83BDj4rYv+Zi3tnfxTlAl9qIPIfxLv4JPaNvXPwFt+IulDSB0WsigAkwshINEXtL2LekcCJ7TH6IPAEjIWnyJ+EzK0eoJqkFkJ8nToibWvAbrXQJk1uP1nMMP7Qg8rwE703U3mvTp+w/8EbmqcttAWq15Y8WvjhwFkY4GV6tDbOmRk/96QI+oXupKR40L1X5S5MAn6CJ2B3pSaUgchczHGCrbG2+2Fm2441ArtVjlB/6uhzBI8erA3QsYHqK+Dv9VHjXlr38RvYjwVoJcKW6ttagCTEsaKIkGh7KosU4zRS6VvkHsTejYZdwG2w95PYzzjfaUn4vdI48RSoCrLS+cn8obccsBQ5CH52o4Q9namP7DheShm32ZXk5AVAihwKQfMSz3IHPOEhrFgzCvSLidg50R+ovF+CDvDniDHaFrdFzdOgmAANoR2YEIXk7iYRMUAtyeslmGEXn0m2oNbvgQDOcAgO0ECZOwACoZJwHOeFEqMdz+gji08KyawDp4XE4xKbNNRVhIeq2so6AGUGzYAXjHzGXv5ShlT+E33a3OIeoXLO4s+i1y7Qxgh0c4uJo9TGEZr/9XklgIxu0K9u+iHIDVn4kXg9w7/xjijKtrex6R1jmdSe+A/AhSU2cRgS0oDrKOMMX5PwLin0cYkBnIHltSId+O7IsoAvNTG9x/w3PYxsIZR8y0bz7sN0gEG9314FZFiRk9RRhr9bUlS4ZbHYfQPbdoTAkB7z8UEESJxXuUgpECayqhnBEPYPsfkjdeVjLuYhJuYaLv4XpSZF50ENg1gA5VwfMQkfIQ27AKPctYkifVTlAm838NwYS42PqH1Ac+G0mHUI2RBkEUd+CUg2wZkkevhffyvit/7ZzD0m9BVtEt8BFmt4N9KT4ShvUbnXfVEDRTIIkj3XDFDfUVgVgR2bjJXk5IguyVgJ8ZmB3qa9EhAV88f/4u+KaKBPu/8hEkZdc18r/CGnP+DLDXgY08EX5QECWIp9EbooMBejbG3+HdRYqeS64XNqgF7MRbrkvT5JssqEiRtXgL92EGfB5Cn4B/WHBq30KYaTymM/5qYWIHtEd4VCyehzxX8jWabcglpVwXJePAKCw7YCzHGRa5LA2P2StkV0Wc/2yEMj+3jJ4NAu2krawhd89P5ib5Z5OZpO0LovKMzsEduti8JEtPE/wLHNLArQkeG0NdLzF/bkF3aGLQYF9DfqHbmb/QBU4btw4nRTi1c4JsbJ0FoqwiXCVZtrGqgdNm7IAYw8h+FMcRXfQzUXzBQH/+JSVSMcvkRSXcPYQSOcWVZ1dAs56cHRX2Aycu+Y0ZMlEO8LyazHOonfz0BAAAgAElEQVQ7hyH5CAUT9amPoaCwxE//gsLLCccwMCHaHFgvjItYvf+GSfmP/zCY1OSEssWOgyO05R0mW2FjlEEUhOc1vi/JyaJXQt/ewGC/hgcH/xYfz3CYMsCy7SIxffIB5n1gLSZF68foKybjf2EYRZV+oTbHhIhBn/wF4oRx1XoWkir6hL6egZSqfitDJsjJX2hn1lAEE3OxG+MZVnkNq2AsjVS6YcVA/DzGhJB4CDKA+v9T9UsM3PJbZnsOIoX2x1G/mpet2FrzAsLqQ1gdFru6foW+vkbugBSpvWnmJOeTExRGT8LqnpoA3TBzyBw4xx+guWibII0TlYbONoF9WTFHq+phkruL3Xq7f5jjXHx0+Z34t0HCMYkYH5QpCOKOfNaNKCxKguw6qIjH5lP0Ce0S9smwF5KIWfuY+Rl6g0lO6J7rxzIG9zFmu0rAwC0J3D5DV7/i31Zds9otI6kf40AQQFWvIUf87SDmKCTIrpIco4ScTa1laTHaH8fYSQN7kQujdEAQNa/UBmt/PWUQpk0e0AWFw8LYjtA679IGN9sXdkyL4rzCYZHsjOeCkEmQh9rM9/WNkyAL2VEtFkTnCciBSiITrnfhUFCkaNIzeBVEzpF9ArT2XLiHwRPoT2G8XCBRBtdqhO3lWwe+MRhDtDmoXlFHDmWdWwyfqncy4OTkr/529FOQk/swWJak1UASZDfePmpieFjwu1p9RCFBiqDZiaubgbe6tGfIDgzznSf+W779cFYeokkyYgQS5AqL1DfrxBRWH8Lq8GRit06StsYEkaAwehJW96KQID+Ze6qZWvRYSJ2hDyDl+yOMNRBzNemr8pV3aBUkyEG4VfvUYkDqpJvNMfQNJN9hpyYDW4bDXMa8oR8gOfaxZte1oS1BXWHwx/9AMuXiIaxOKoLntsgwylDtVOQtpO3wJEEh7KaXngSRIEcfXGxHaJ0PSYLCjmk/EhTJzjAJmo/URH3rxkmQi2DtrFmttlUOxKRPMDgif8VvdTIzmP2U283boAa/xUB7xWZd2+xi7CZNUGULt7U0XvZ+KQPouevHZVIPJEEuHgRV7wArbRE6w/xjfMTfVzDO85AghYerR0OSCSU3zx0eLqTDLkI/+TrKjUiCxpiERVhQ5J8YH/z3DJ5BBwlapg5j0i1gMj0T+TQoV+TW1OAdsjgKAz1BjnOC7P2OoHtRSJCvzH0MkfK4KrIqPB5ild2EIgqvmPreILzAxu6ZtPZ3UU+QW+KrUS/+J8YBVcwQ3CTnztKvscz78NwB5GJP1OteCw6HJwj9/xvlKKet8R5wcgvRqnGr6rDbKPW3W1+MHByl1z7tdhNrFBmETRgOJEGWc6GMNtltRxSdd+mUm12NMi/59XMRO2M2lT1BPuYl+k9rS4Ig59fKLW7rlnWLrL3HXoNHPee7m2pREuRDOCZxdhClRsldTmqL6cpJkGXiFXk1Ik9BfJZBglwnhGWTIA+cFyFBIgRzH1tiCavXvawkIZgEFyJBEXS4D/IlCJDIIyDkO7xF3SonJcgTFJYEiVBlkO7NQ4KibgPW0M+fjuT2YxCgBEJDBRH6xuQuPL1G+BGTvUgqjqsQDWBZiSfIPpmiHquXRpGgPeQ4lRQTsQ5fjB3PYyIWJEEqVKp0UmxFF/phl3fYhZoaH4/hdcy5mKA4+leE7k/CYX72zPL+OpOgUDofhQSFHNNeJGhRO8MkKDrHCXxjHUmQEQu3eCQCO2F5IGi7qDr/wTWkBk+IkTAMF7TYrSE+YQ1MUL3C3WIkf4YwLKsmQcq42kNXi4TDVL6Wm6tdTXoK80U8QQW47c9c3OxCVsrDMPFGhfUEKdnY3f9e4bAQnqB5dVjkyu08R2csZxstTIIi6N48JCjySbpSLjpyU/rwuAhPi3HopgxFDfH9EBOyIEpWT81NkSAjjCLDYSQJ21ynci9CgqTM4iBfReDSE+5a2EWxq6toI2NhbZQa94Hbvr8HT1AUnQ9JgqKMaVcStAQ7wyQoChsI+awvCcKxlxqOvYzjYp6EPYRjlL+cc4LsCqMS2gIHq0sf1URof3eMgT0EsdrBf10TeFGWyk1yJEaHmPQC64WxN3YWwKBZd564iWkuEmQP7/kYMq8whjUMIOysPVfJ2la74VW5Vm6hSpWrY0+Mdsg3RDhsohv2/iJfKo18qat5EqMlVmML+RV91UFI7oKQzBMOW0SH7aTHKwQYRU/C6p4iQXYs3BYEitw6ZD4GuQGmWST1en1UPs1hGgsePKTygIzk+BE4oPgek4Y1xLMKEjSTTCxk3jQTtyeJ0fC+GPbCnvwdxr4uQoKQrHwHycq7L0GAEJJzNb+yDWFJkN8YnenOupAgl/SCKAuo0DofkgRFGdOuNnYJdoZJUJiBF+IZHUe/doawVGKiw6EFvyMpee9Fw3T3widagE9U5CR0QX1/Pb2mTSzvNdftOqshQWLbpjGhIX/maQs5EjmzUwPxb/yvCmUqePRTh/FIil1C4l0YtAoMcQerObHduSRd32oX0iZ2drRq5g4x8V9j+6nN2IU2MCHqnWzNhyfjJSZ8Y0UHUtRFOxvoc7tnxv6jTG4qFh6DwRBnLYmQltiiqbbIu91bpHY5pLDiFlv0xdZgsZPnTIRirIRPkhJH2XjMDRexi+2N2BaKnTUNGG6xlVj89xXyaqwTZRRD5hAzMDJ21ij5ot1iZ1KlDC8b8sVmPFFhPUGQgbEDCGW+xKQntoOLE88L8FCI0xzmIUFhdViQgT760IT+oVpjwnsEXd3G5CcSWcVHkcjDt9B9/N3HO2IbfxQ9Cat7oj5DtsDiGLhmoZda0WOLvAirotFi55+SudgpVQF245J5VY7XR+mg+N26I0wRK/H9hIjIQpZOgqBLMbQ9Dg+gcawE/i6C9IphYN3BqfRV2Is2+paBcdShW00x3iCHnhCK22cREoTyqjAGv4tjIywfkc+Tgb60W/ivZEZhbZRVl4S8hM0TOqdBxkL/dPSjLQzrGpAgL52PYjui6LxdfK5pExHmpckxJ/DodoBrC3algXG0qJ0x28k5Qd6WJeQvHcQUxFZz988BXNMdg2T0QaV/wWE9Kfi7R643x9lIkFy9eCUuG6GMEF4V0S5xoWAeSnMhLJLlswWS0oFxtnmEZ54R2+Fz2GUktniqzy5W+dYDGVvoYBkYiEnO+gwO0Z7ZJh2lzWHqNZ7BhP3/svf/wGlk3Rsg/DiCrdoq4WBLTPAVvFVbJU0kOfnERMKRmUh4E+PIODKu2i3jaHBGJiYyqq+2BkdmNjFKdlA0OBoUDd7EKDJTGwwKtqZdXzDt6EWR97ndfaFpuqFbQgLbp6t+v3eMuu+f55x77nPPOfdedQDk+OGEs1OkMaUhVuRTh+xm7uIJmNSnjCXHh5VIqQ0ZDTfFOfPUaLxfqHOHnCfFwVrmpPac330YTvD1LZvf+OLC78s00LyObqpv6mA4dRikXs3q0NlMGCWEJ0gV7KcbKqnYOkjSrRhhSZAqkxjtkjyPdYZE9ZATXoN6tE3yoS8ojaIPYXRYka0cwz5uNVeyUOdiKV2w+sv/TjNXRuWuqkfrRVQ9CaN7qvxx3oJT3yEXD0oPfPtOXclnOa5dgy3UoZecFJSHRfV7yiOo9Za/uz2yqil+/fXTpSAZuQeB9R0ntT+JrdLZdxpckgxF/iocH+7Hz17EqCPFpn3wq+8zZwzOhJ45UaprGtxjXnvLlB4qsmLJhu1V56Wpc6X+VpMy/zOKTqpF18wYZRnqINY6x4B1Me0C2+HtaxQZhE2MDtL5qLYjrM57+xSUOxpmTFtlqQUChaM2PFiPY4evamfswoQEBYy4VfzsIUHX0QQqkzGyC05qSxCyHusSPr7LaF6gO9m6LHLBOyGrG78Wpl59wd7MRZVRK3Pe1+VFwsjBNs7Z1j/caRceuWyCbrDsy8gsSveXjaGqW8suEo6LGh1Ch3W98y7CVbq6SFaLmuKW51zdc2QY9mJeLYtltC9MH5b9Tli5j+W0YMxctX16EvY7E817pMhl69K2L6yML1vPVb67UZ2P0tAQY3psT7j6m7qM+Mp2RkhQFFFd87s3QIKuuQdSvCAgCAgC64aATmKeIUEkp8U0w86cWN0e23Vrv7TnOhEQEnSd6EYsW0hQRMDkdUFAEBAEFiOg80/45g7z/dIqNkrvQ49hRHVX1mVvN19csbyx/ggICVojGQkJWiNhSFMEAUHga0KA4c96lTmQJD79IUPW9ABlssxX4m/WPYHyfKMICAlaI8ELCVojYUhTBAFBQBAQBL56BIQEXUHE3PMLn61Cly7xH37p2b516bLkQ0Hga0Xgf2TH/uevtXPSL0FAELhRBP4/rO3/uNEal1nZrc98lllgtLL+V77+v0f7RN4WBASBKyLApA50r1iGfC4ICAKCwJePgJCgL1+G0gNBICICQoIiAiavCwKCwFeKgJCgr1Sw0i1BIBgBIUGiHYKAICAIKASEBIkeCALfHAJCgr45kUuHBQFBwBeBtSBB1qmnPqdY+rU4yrvXIfPIpxV7GrHq9l8HJl9lmc4JrPNO91bHf6uTqEOdcBumvGsGcnLarZCga4ZaihcEBIEvBIG1IEFBF+7NYBjxIr3rkEHYu2aC6g7d1+tovJQZGoHAixFdJQReGOpTS5jyQjfuMi9O3VsmJOgyEMo3goAg8PUhICQookzDkiDrHhwf79Y3S4L0vWC8N+1LOFctDGkREhRx8MjrgoAgIAisGQJCgiIKJBQJmnNb+LdKgoJuQY4I/429LiToxqCWigQBQUAQWBkCQoIiQi8kKCJgzutCgoCHb4FnH3j1wPblMLzSVxIOuxJ88rEgIAh8nQisFQl6zztpmnmg8Q64iPGiviLQaQCMoNhPUE4QE1SbfLfaAc4/8T1+u5XlZNMEcuOPnTIYpqrx3VoX+MSL/9S7O6yzxXe3Gb5yP706b0iuAn+xzBhPBq/xnST/rSazNzxisuCjE3XWW+Vlg5+cdmw4ZVbZ9jLboj1Bqq+NHNt9Zvd1r8S+sj53qMhgf0oVHmvHb1VbYxtAlv9u8f/0ewa/2WabVPm7bF9JtVe9y/Y2+L264XneU+LfO2zHkGUWiMMx26MwOSDubeKEYcDvulCFfZnYtGyc1JPaYXt4ELhVN/HOctLv8z3dBwuSXYqTMrDEo+XHb84X9ZPYJlhf6YTfbbLtLH87IgadGu87Yv8G58SexWwQK/XvCmWnn6ieoDr7kKcMNfZKV8qZxeUpGRfZn+5fdltiKZZDGSp9nlLHiDpecumWNY7YtswdVvCMIq1LTtDcQSF/FAQEgW8GgfUhQZx4N9QswAlJTZoGJ7t3nKRi9/jfnCisST+ABJU52R7x3dQeJ0ca+yEnoNYpJ11+8hNX3jW98mZeiiJFb1nP1gHf5aTX4+R9TNKlJv7fOKHmHXbR58R0R93qwUnpgBO2ybpPOVFt8D01mQeRoA7JRIMEp8P61bc5fqueAifZgiZBnr4qMqAIROontp0TtPWwz/Ef2W8SigInMVVMi5P9W/Zz55CkgvVYkLCd37OdKdZ1zr/tsV9J9uPEp09+Wq1JWYrfmg72fRIM/hMHqp4Xs7+7b4yusWEviM0e21jipK9kVTsmRuzj75y4c8S8wr/1KM9TJSPOv9Zli8SiQUwUCSrx/73ibSf7nKCLLK9PmRyRaMbYF4PESL3u7ae6ydokzop8bEfAoFMAfmT7dlh2kaQPbFed+Kn+Hv7NtlKX1BOFBClyekH5Wdizv11H9569Z9mO/P3KM9nP5EN+y+8PiFFW1cv+Wnrv6rtqz6V0nBhtEzxLnqwjxjYmhQT5DQP5TRAQBL5RBNaHBFEAKRroASd6vQLWhv/Jn5ww1arahwT1SHp+eMUJ9DUnH04k+hmpyfM+JxhOBP927Ym0wVnmKSco9+Sk3h+QeHzPyX7zCSddTszgRJa9zUmbxOL90CYg6hnyb9tP7RV7EAmyXnTaaa+6pzXLIh3evrK+DOt7R8/GexIYqz7+1uN/ZzSBc4qxvicx+oeTtyIQmhwoEveabS2qH/koLO7+OovLdGscz5TTnnFbFV53bRKpZOL9ffSAzhtO4BYmJCJxysap1u6+Q0rcZCkoHKbl9+gPej+yk9a1SVDuc/LWxGTcT74yIz+nvjAYmMTNIKZTXj/25RbJiJtcRiFB3nrNJvF4PK17M+UF6JhCwCKW9MhpvY+i477vsi5FLn9VJFRIkHcIyL8FAUHgG0ZgfUiQmwA4AjFJOm6TdIwnJx8SVCS74VyPP9Sk4hGkJlEWYdFEg96ifzlxK1LkfqYSljmJ3eIk5p4U9btqon5MInUlEuTT11DlshFWn/i/H4acyF2Ew0sClYcjyfBH3IeIzfTbpz0WHkG/u0iY79hxSMW9N3Ro0fOiniASpEKEqj9j8qcLdMrQ/dLf770kOSTpcT/6b5fFwI+0RiFBM/WycZZe0ktlecP4b295Wrf3fmF/SOSnHqfvmoCG1nGlHwpP6rqud1zulD5IOMxXb+VHQUAQ+OYQWB8SRK+LntjHUujaHomEnsh9SJA1WdOmf+a73mdq4uEf09/Tg8GyVB6N93ETpl0fT8Z4buaMNi8nyJ7x7boCPUE+fQ1KuO4zvKTCRnQKWY/69zknOi8JchOORW1w9z1ot1qU30dDO1TX5v9aD//3hJ6MMCRIe8Y2GK6ZekgeVNhRE4F529ED/xYkB5IElWumwpbWo/5NYmuHiuyfopCgGez5vfJcPmVIUpNlb3ljUugKmY3779Hz0DpOVuz1FHrLlJwgj57JPwUBQeCbRmC9SZDXmxFEgpg39JnkwPv4kSA/YqK+8yNB3hCNe3K8kicoDAnixJxPk0yoXCF6r3adeNO6kSCVm3TnZyJDr9E+J37LwxaVBDEX6TXL8Xu2GRbLsNBlkSCVh5Nm6EvlLO2R0FqwXgMJ8nr2AkmQ324xPxIURsc1CfLzdk4RQvEEfdNWXzovCAgCYwTWmwQ1PWEpHxKUpyfoxCdso3qocyteMxxW1N8GeI0KTEQ65mSrwjJJ5gh9xxwhvzDHdW2R95arE3i9RCwoHLYST5DKX/oOOPNOuhHCYRbuLs9W0NhcFgnScv6Dbc/qynw8Rlf1BHnDUjMkiKTve5JHPx0bJ8U7XsvQOs7+uPWYaUCTR0iQmH1BQBAQBGYQWB8SxKY9YwJ0nd4E/eiQwrzE6KBkZ5UTk2ZOzLkrMdrahcRV/2tOgCrPQj86kTWhE6O7dhhu5N6ZxpdHDJ9s/2DvJArjCfILvQWFmbwkSP/bInAusVn5Ify/tQiHOROrt58mQ0q3nweEwzzhn7H8FpyfsywS5BtacuQ9DrsS7ygkSO1gHNIT6TjrmJXO/6b+fHTp3kx51KUkdcnkO4aq3yVj7UXSeh9Fx/WY8Z5H1KTX6zEz8iUxWmYBQUAQEAQmCKwNCeoyPHHBHJA9EpEGc3K6XCk/5+4guL0MPp6g8YTD758wz6NMY6+2aZeZbHrG8tw7iXQyqgrdHDad7djqf+n1+cjv35AcFZzZSHuRth5xQqRnaFDlVm7uQhs57ZxLgthsa7Llu4dsS4aEzCi4tsiHCIfpXT4p1q/OtUmwberslxNuJVdb79eCBJFQWrvo2M+XnNTVEQB9tjXPTGe1g27KO+V4h2Kc9NV5SCqsV6CMk5qsKvlRFtWsrZx99d/8vwplzojY0sJhejv+o99tT6HSlRyT4C1YL5kTFFM6wb6/ZHuzimCTtSrdc3vx/EiVJiyb3A7fpH4pz4363xfU+6mjITSpCqHj2ouktt0ftm3s1BEFJ2xXjG2SLfJi/gUBQUAQWDMSpNz9fU5ALU4kORIStTVbPRskQB1OABmGTKxHkyBOGp9p4PVj8p0cScY7NZM5jzp0zjoskHkS7kedIZQlQVKH8ulnk/U0Wd7UwYqc4AuclY6V28d5DrgNXx2EqM4PWkSCxrkyzreH9HRU2BYrtBGCBKnPavSKvVDn/ThPilvTy2zXc+IwJkFOWOXgNyYmqxlPPz4hnmkk7H8FtSfs7yZx2+VRBGOYFMEkEWqQWGy7doepulT/f+ZZS9bDPKAPbKMSj5/8rFfoYWlThuqdQVA/5/3NDwPKL5OlrmglI7F4QIJmsg8DFwnSW/SnzpnyAKjb9Pof6ill5daVB5RHyyWPoPLU4aDq4EeXOmKP7WiTKI49SwEYBem4IqJZzzhSONZIWO0+Sk6Q31iQ3wQBQeDbQ2AtPEFe2IMuH10knhEJgjniWyRNSXd8wedDkytj61W+l9Aky+c9XWaCM9Kc1/ybxgoMtinObxc0J7hr/N5gOYvauQib6/67xjPpnrnn4On7ntNX9dmicq7aH93eS8k1oPKr6Iql83wWtSeKjgePIyFBV9Uf+V4QEAS+DgTWkgR9HdBKLwSBdUVASNC6SkbaJQgIAjeLgJCgm8VbahME1gABIUFrIARpgiAgCKwBAkKC1kAI0gRB4GYREBJ0s3hLbYKAILCuCAgJWlfJSLsEgWtDQEjQtUErBQsCgsAXhcCKSdD/TbD+ny8KMGmsIPDlI6DS9NWGfHkEAUFAEPi2EVgxCfq2wZfeCwKCgCAgCAgCgsDqEBAStDrspWZBQBAQBAQBQUAQWCECQoJWCL5ULQgIAoKAICAICAKrQ0BI0Oqwl5oFAUFAEBAEBAFBYIUICAlaIfhStSAgCAgCgoAgIAisDgEhQavDXmoWBAQBQUAQEAQEgRUiICRoheBL1YKAICAICAKCgCCwOgSEBK0Oe6lZEBAEBAFBQBAQBFaIgJCgFYIvVQsCgoAgIAgIAoLA6hAQErQ67KVmQUAQEAQEAUFAEFghAkKCVgi+VC0ICAKCgCAgCAgCq0NASNDqsJeaBQFBQBAQBAQBQWCFCAgJWiH4UrUgIAgIAoKAICAIrA4BIUGrw15qFgQEAUFAEBAEBIEVIiAkaIXgS9WCgCAgCAgCgoAgsDoEhAStDnupWRAQBAQBQUAQEARWiICQoBWCL1ULAoKAICAICAKCwOoQEBK0OuylZkFAEBAEBAFBQBBYIQJCglYIvlQtCAgCgoAgIAgIAqtDQEjQ6rCXmgUBQUAQEAQEAUFghQgICVoh+FK1ICAICAKCgCAgCKwOASFBq8NeahYEBAFBQBAQBASBFSIgJGiF4EvVgoAgIAgIAoKAILA6BIQErQ57qVkQEAQEAUFAEBAEVoiAkKAVgi9VCwKCgCAgCAgCgsDqEBAStDrspWZBQBAQBAQBQUAQWCECQoJWCL5ULQgIAoKAICAICAKrQ0BI0Oqwl5oFAUFAEBAEBAFBYIUIfNMkyDQMjOIJJBPxFYpAqv7WEBiZfXTbfZjpLHLZNBJfCwAjE4Y5QjyZ/Hr6FFU2pgFjFEcimYC2Kl+KnVl1O6PU7z+GRjD7XbT7JtLZHLLpr2ZkRdVCeT8CAutDgswhup0uhiO2Pp5GNpdFZB12jPDC/seTJD4t5G49xNvUM3wY1rG98CN5YX0RGKJVKqOVKKFZy631BDxsZLD99B0uHDBTP33AsPZ1aN+gnMb3R+e49+YzOoXr1pbVy9zs1lCq95GttVByRNjK3cLDtyk8+zBE3frtS7Ezq27nAOX09zjCxB774asQ9R9DcTQy23j6bjyy8BNl8JUMreseTN90+WtAgky0C7u4f3zuEcQGDt4M+bcIbL6Vw62HbxcKNPWMEw+Nl5CghVBFf8FaCZPHXoc3IKjsQRnp749wjgP89rmNfPRW39AXHRTiP+I48Qi/D5rIoY++uYvd9A1Vv5RquNo2TF8P6vWQIHqXbIXiwsXVgTWQuU14ADeRXTcSNOKYMT2eKX81WD8S5IcvEDCGBgXEfzxG4tHvGDRzQJ+e1t1drOvQCi+XpQxaKWQOAmtAgtTgK8F80kCjmkM6bqBXLSB/dMbV8j5++beLUmge5BhM3eFWAd89P8UmB0a/tjuBQTxB1zYo7IkQrpXw8qoKLttEr9XGIJFFMbeuZo84DCokaz/DePA7RiTsX+bjTJb33uCzx91zLSTIITtUKC5c3B6zNZD5sINm18R2voCMY6PWjQTZ7bmHN59JHuYq3PqRIPjgGzSGBhXanZ8NPPh9hC9haIWXy5dpJb6kVq8BCeLK0mQMfYromHRt3qZrE1dzrTueIdvz4w05rHrQf0lqEr6tqyFB4du30jcDJ/SVtipi5etCgiI2+4ZeFxJ0WaBnw2G+JQWMoeu0O5ft0bzvhARdB6qXK3MNSFCAc9ZxNV8pvyAkCXrfy6KRYz7J2UdcxDaxV2qhU89O55aMBmgWC6i2z3DOsHNsYwvZSgOtiuc9v+6YXdQKJdS6f+HTRQwbW1lU6k1Ucsnx20anhmK5hu5fn6x8kVhqB/lqi3VujxMsAXrF0nl0cm0MK0MU8hW057U5RL0wOqgVy07bdL1ttIoTj4pBLLarQHXQxm6zgFL1Lf5SGGwdoNFpw3rVqCPLl/qjT+yjwmfDbvduFYNuGUnn76j20UyUkS2dMHy1iScdA40sP2f/S8SzOzh3vnfhu6hsB5dW2qlrjOqIrvEiCtUOBucKV3/su6U08p0c2sMKhoU8KpTxR8ppc6+EVof9WuSJ1LrRGeDc7jy2shXUmxXYIjbRpIeq3Bvhk/P3DQVOsojOoI6Mn86oMstF1Fp9/KW+YdtTO3nqX8vG23oi6kNIHTY6ZeRLDbyzFR1buTo67SKGCqeWYfdBYWl1IoFCe2jJcOIJ+i+qRh7Fio+euPs6V/cM1LPbVBcPZtilHnZRTtp9n5W5iW6NOlrrWrjZ47SOZiWHyWibxq+VpN72GFIdt22A2m4Gtbj3d0eODL20hw1sW+OC49Dpv/r8siQoqg4utBfdEtL5FoxPjj1xxmOiQNuhhDXzTBaF73s5NPNFNN7Z9nCn2ECnkZ/Bb7oNfvrpp9jqNwPtUg7lprKlHGc7rKtTQjdzZyonyLY7Gt+AMeFArw8AACAASURBVPQ//X+x/f//vzDw2J1kkWO+rkaWtgFtnGl95thstCqucT0ZR33ikysc4d3HGPZfMk+1bGvN4r6GHIuR5RKEofy+LATWlAQZNELf4cWZO8HwEl0OQ4Jo5DcuPgFb+5zEaci7pzSe03F+a7JJ3sWrj5vYf1ZBkZG1fquOo7fniB38BqOdD07GNWlckkzAvuBkclDkBEYD0G5zgkmOE/dMtjPJ5IILGuyDYglZ9NBqH/MdTjVT5WtDlULq/BzmvDaHqJfWEJntp3iHLTyoqgnbQKdWwzEBcOc52JObiVRqhHO2e+9gl6SmjxO7gfjNUHk4HVRoLHv9Dk75c2o/h11FHpIFNBoFJJ0VnJlKYcS2J3b2kTZ7SNZHaMedeP7OAQrFPKe5Plr1IxBe7Bz+jX5pML/sgOTTPtt9h4m6SO3hSYmTwrCJZmtWvnriSqXOcW5uYd9WBJzaisDE+dqcxPk+EzppvK1qnqBEojBsNtE6JeFFypGxiU6Fhr7XR8cGBzkFDrGpE5vJ5Kt13NH/QQp71IdSJmkZ4doxy4w9wO8j6oH1agR9CKvDDHGp3ArsPEGtnEGCRKWukn+7A5S6BVRI9HonJImbOzjI2C3PVtrgq2MSpAjwxaeEv55oQrlQ95L+mHEqLjQaKCT9PLkmSUiS4Z8LLjQOUCRbNDjW2tTTZEACui37HRz+00dFsySjht3vXuAMnt813nu/4N9eCYZPIvhlSVAUHQxlLwbEqEIi0DvBGe3WzkHG1jMSgLYSVhAJmrKHCRj9E9sOMfxpUDcm4rMT/LH1AFVFMBWhrR3TdmqdD7LXbhkpm6vroB2OcQGVnCRGT4dXA8bQ7e/x3b8f8MFjd5KFOhqFNLqlJO6++ojN/We0IZbhRv3oLc613bI6ND2ODNqLTGIIM9dlGsX2OBF7fl9DjsXIcrnEvCefREJgPUmQTnq86s6tMCSIcKWe/WmtGizPhUlicJvEYPMZ3tMDoTKJehxIP7wCHv1hoJmd4NvOx3H/JI3DvzlJz85k1ovdQhx3Oafce0OC4UryHjYbGORLnMwayLK+U/b1PXepTTKX1Gr0exJBekv+pLfEslvOQAvR5oX1JhhyzDLkeLrHvKueK+9K7aj4D14MSW5GdpKxNka0hHjNOH3RmSy6/I+7v37E/uvP6BZtXALd0uNEVoX3e4YnXTla3DLeM7ZJyNxHFTh93TnEP/2KtQoNdnn7TIicpJIUmrn/GgYbN3bmqD4l7uPkYpJvphMw2TD8qTwztiI4IdlNPHtPr4Srue4RZuuGSQwMYjBxGY0UMb5/got9Tphc/Vl/iRAOG/Z6iGcyU6tvu//uvIfw+hBWhzvU1x+PM3j9uQtHpB6DsjgctlhPwuteMGY+MidJi9uDbWrCJitFY5BHKTfr0jM5sG5zMt/75V+Oc/vv+jf13zuH/6Cv2ZFDEHedd/1yoK5GgqyBPV8HaZ/C2wvtmYqQE+S1LVyQ2CTfZYd0GxwyOEZVLRb+8wJDLtyU/vs+vuOS3jsSlLu/qgVCEAlySosSDnPqouGGMW24EefYTHOBpXKJ3HbVS/bUfGDhvbCv4ceiZclD52r5wyi/Lg+BNSRBilB8j5/PY1dPcgtDglxkR8PazN7C41NtOGgEkrabVpOiMfxO+W4SMC0aTiSJu/gVj/CH2aSHZ/bxM8Le8ic5Tc5AW9jmxfUCbM+txzglSfisGczYzqjJdjSe/LWxn+lnn2GuO0eIu3KuFpKgvZdcRZdDbGOfzRGIQoIUIbn7qyKudKN7gPdOXrZB8iE7/PDW49M5eWnzcHbaf+6agCKQIN8h7ujbJEQcVh/C67AmWvdeD9HRbHeqMYtJ0GI9Ca97UUjQPJkHmky96HElelv6YNzDveFbvN22vT5qorfL56LH8RotnwQt1sFo9iLKZBusS7rOMSF0xsWs3XN0fuRjKx0B9BleukOv8mwCs6Oj8eWRILsubtKYWcQ4fR3bPuffGz52OnRfw45FGwghQcsjMVctae1IkA5hzHgLLtPTMCTIx9s0raCa4escCFdDnDi0f+K1per2NnwfoqFLsQ3phHBMdVN7T8YGOjiZ27fNc+rVk8u5cn97z4p0+qUn28BdPz6T+kIS5LOryO6ziX6HOwQbPWYM6H+f4nzGPe6382wWFxuPfX+PhkcvZlfvjhRmSIdXCefLd6bciCRoNOwyLNhg/ok6PIvPsIcT5oDNkKBl6jDDqPn0Q5wwEhhL3WNuTQ1VHmEx8aEsJkEzeXzefmu9DqF7UUjQXJkH2g8detdk1d6C3St9QMPYpVcs6+yscghv2uuZnD4X6WqeIJ/wv0cHo9mLKJPtnI0iypPKFUXCWexoezDO+5syiSoHKdjz5Bt+tL4PWvR4zp2K4AnSHt7Zdjp5ZuNxE9z38H0Na5uFBF1mKr/Ob9aKBPUr27jz818z8edLA7BMErT1CK+ZBD37xKe2yE7/PXjCmCZBAVvKr0qCAgmHsjn22Trm/k+oM/l69kkiW+SRBdarAYfgLYsEjSdeJlfuMZfISSbud65KggKM8bJJUADOVyFBeiwwaxT7zL2xSMhVSVBoHeYxFfUyCdAx80lY78YB3gzbsKO5yyNBYXQvOgkKE/qZ1naDx2d892JgeyfiasJnyFR5EA117ljX/j1tj5f4OITiPy5uhgSFtRdLIkEej6/OEdz/qQ5/0xF8VIWNjzcEf50kaAuPXjMJ2s9yb+dRsM42WESCGO5e2FchQZeep1f84dqQILVjYfvpKcAcioHKoF8GMEshQc7hXC6PRPim6YERnFxrn29xPpVXMy7fyUFIMIfGsJJSwg60xfVCJ3/OI0pOQ66bBNl5KAlPztXVwmHt/C3ma/nn89iT3tkY88t7gjhZ3mJ+kU94Uu2AsZP7Xd6osJ4gLRtvHkJQOGyhJ+iyOsydNXWSUp61RSbgnG20BBIUQfeik6BFibk+o1cvCJg70ksU6ZndtQ/ddEJlA/4+2C5TZ8yp86+WHw4L4QmKZC+WRIKckJAOh+nxc5mdu3qsz4aolu8JsutKhjizLNiuhu9rWNts65+Ew8LPotf95lqQIL3bgVmI3F1UcSUHe7qv7yZK8G6iMNd9LYUE6STOy+xUC97lNhr0MEhmsDsISOBV26qzSeYmJWYToxdOeiHqTTAZOvkDXplcOXNnx7yDuaOTIJ/w3oxXayJb/zCGE35IeHME/EKHswbIJKm+TVI9G1bViZ7exOjFE9DsYHTpxntek+BOnubqOc2EhPPLJEY7WI3G5Neu2WTy/u3n7y4RDruKDntJT3AIMLyehNc9TYK8WPgtCPSENROe5tEAvUESGWu7ot+jc1ke4EH6GMfQeUBOcvzQ+d2YvmJnFSSIcTr/hH9fe6En24Cw8BQUOuzPcfDnAHV7d4DSuvEGgfEGDd0GbwJ6iNlK5xd5ZWTwlOf0Y+6QXWJi9MQG+J0T527snFBg6L5ehgSFkUsIUOWVKyGwehLknKJ7jg3s3ON9YR5yE8+U0XDO4rGZ/QU2PZNDIAJLIUEsXU9osR084fbnKsmJWun3ucOr2jRRGTCPIqARJndJJNUuIfVto47yLreE13guz/EIxQ/qfqHJwZCbB4doVovWFnH1vy9OPnpCg+EH2uJ6ad701vzNA7xs1VDgdlWYA54JUke9n0GrW7G2hoef3KwljnV1SWz/kGctZZjnY3Cr7mSL/LmP58neufQRKZ7s3aGXRm3LLuUeg92f2i0SWLavh4wkisca/MrzPnZ4Gnm9bG/jrZdLeHV2MUWOLu8JYvuYL5FkvsRHLV9u0TZ4tlC59ApnF5xQ3OQorCdI70iJ7eNlr8Xt4MyX4tk39inq7gNEw+tDOB1WZCCDXk6d3p7lzjTueCvn8ZBX2uy85C4p68wUnfCdwoM3bVSYYN9L17mNP5qehNW9MdkhFofENcOt0Eah4r9F3qT3Jql2/mmZ73KXUg1lhvVGxfkTodZBNYzdO8I0sVK/bz75E4a9TdN6VkKCxqSE7VloLyZtTD14g3aF2yF6adSVsGYeW5e6sRguLuLYUyf4U95djt3naiBOeSUn29w3D16iRd20TUcHjXod/UyL3wXdh+d4JXlkyP5hGzx+yDoK4fmJgVjsAheBW+THoFthSe8J4v65iHrBo/SBx2NYOk3L3eduwWoTZmWAlmW455Ag4q2PXZjf1whj0aU7i+VypfldPg6BwOpJEEnCLZKE4GdyH9R4sgx76aRTtn/ishPK8DkHxs9VafLAP/sQLXdLY9i6V0ebB33NuwJz2Mwj+1gdDqgfHsj4zH0g45CHk2VROjkfX6xJE8d3mmgzHDE55C1amxfXyzQT1TZ1cKG+d1A10TogrYluw76MVIfsDn77jKmdr76TOs9b2b4DpnbZz9YhPpDobmuyy+2zn2e2z/ZRy2Tx4h2zca2HuUEPWiib9/F84F59B5SNAFx4WGQ5V8CRW2ixFA4aHR4GOTmE0g6d+YRRFiZG2631041YSh0kyYMN3dv+w5IgVWa7gN37xxOd2dzDYS2DxuMjbI8vKI2mD2F0uM86ci/eYaLmtiz6nC20H8Xkf6cfnvAcJPvRehFNT8Lpnip/nB9lKxQOP3AH6XZA37kdPp8lgXZdRbi592zxoZfOip9UfDp8Mj7awX1Uhd1vv/7O6lKwjBz4rP+JpoNh7YVSpEmiuyMsn/FntcAK7fZ5XEgrSVtHHdDy3djjgoYLorFzyCrIrw3KdOyg2Ozy8Nkgr5sSaA2Z7AuMh/vGHp61O8jUbuOha7z76lOExGhncM7aAP4htnUPddZpX3y7SEZh+hptLIaXi1tL5L+vA4HVk6Dr6NV1lulc4skbHZGcutFxUaXOxZP8LsHv/KN5+u6zee8sqsf79zD18lxV66JFfhtP8KLKMLHG+e3QFwRGwkhfkLog3Bm5bCeMGl1m0bCeYOi57DNaMa63J7KLhOOi+hbqsK533kW4tq7Gw4am57QplO7pUHjIi3l1mcto3yI4V/f38PbCNAzfS2+D2x5wce3MBy5diagLVpsi29HLoj25V/Lylztfvq9BrY4ul8v2X74LQkBIkOiGICAICAKCgCAgCHyTCAgJ+ibFLp0WBAQBQUAQEAQEASFBogOCgCAgCAgCgoAg8E0iICTomxS7dFoQEAQEAUFAEBAEhASJDggCgoAgIAgIAoLAN4mAkKBvUuzSaUFAEBAEBAFBQBAQEiQ6IAgIAoKAICAICALfJAJCgr5JsUunBQFBQBAQBAQBQWAtSJAcGLVkRYx4sNzVaucBYv0u2n0T6WwO2fSck2KvVtEX+fWXpNtfTludQ+viyzqU8otUrS+00Tchu5uoY33h/3LG8XpguAYkaN69LesB0pfWisC7vpbekSEvV9zG03f6zo1L3OC99DatU4GzN2OvU+um2/IFjcM5l/GuCt8R781qDdMo5CbXsdht4b1vnTaMdAE59xUqERtqdmso1fvI1lrOVQ8RC1iX1yPIbtgqodxKoNSsYd4tHDNdi1DHusCyvHZ8QeN4eZ2+UklfLQnSVysEX1FxJdzW4uOgPt4YCeoUEP/xGAlefDrgLdDo92Hu7iIdEp2vX0brSIKCrkNYQ+Opr1HxXpWxhpOc332DigDpyzd3Dv/mHWhhR8bsALLL533CYe9NDBqDQZiGHLNXfi207PRFvZO76ULXHbqOgBJXjVHojvq9uIbj+Er9uf6Pv1oS5G+Urh/Qm6whqI83RYLsCw4NPPh9pC54j/x8/TJaQxIUeInr+hlP/5vBqWZXneQia+riD/x0uV9O487ROWL33sDgguFKgeJhB82uie18AZkrFBSI6eIuLueNCLIzey20Bwlki7nQCyurkRHq8OvUyjG6EtLrN46v1J0b+FhI0A2AfF1VrJwE0ch/f4TpW7cjdFZIUASwlvWqkKBlITlVjleXTa4KknTdXKSe4f2wjt1rqTV6oSuf4K9IUEL1+Ip1rByjUJ0MeklIUFT41ooEve/l0MwX0Xj3ERexTewUG+g08khO9WrE0EsRhWobZ+fMRYltYCtbQaNVQVatkLolpPMtGJ8+QWWqxDY2rBvbE4U2ertVbFeGyLeGUNEb/ZjtAnaLPWQ9v6NXxnauiWRtwGLtVhidGorlGrp/qfJjSO3kUW23UEx7oDc6qBXLqHX/wifVzNQO8mxzy/Vit5RGvpNDe1jBsJBHpX2GjxcxbO6V0OrU7f74PXP6OGxkuRBS5OQc9978F1Ujj2LlLf5Sbdg6QIP5CZdp61QzzCZy6TJ6o0923xyMk8UOBvUMX728jFT7YbDv21WMKj30KtuuqgeoZTKoxasYdMuOXhjolPMoNd7BVoct5OodtGc6OSlmNGiiXKyh1bdlQ+FgJ19Fu1WcrDidNqA6QHu3iUKpirc2iDho+JVvoF3Kodw8Yzsowx3qcaeEbuYOjvAMHzgRunsyaU0XpXQenVwbQ+pmIV/B8dnH6XqGrN/vd7dQRgM0iwVUOwOc20KxxkW9WUHOUl0D9ew2qv0RPjl/31ADg9NzddBFOTkxnu97WTRyJTTZDjUO90otdOpZjydjgYytKm05slI0E2VkSyc4xyaedAwoMQc+znd9j36B49eSu2uS+2/VQL5YmS8bjQ3Hl9aRbKWBVsXbp+kWWeOzX0KvV8SQOlakjqnxubGVQ90zjqZIkEkskw/xFvfwhnag4B7Hqi3lImqtPv6ylS/YhriaYxD/7Sr1o808PI2dKot2o9zRNmaP+TMdytnHcCzCVNW1UIcmDZq2g9q+taiD3pwoj5QjyM7Cv5V29NMpZ6rPlIWtxPaTqWPYKSIRoY6p1i0ZI7+yx/akSHtCZYxtUmYtW2Yq76vg87suJ5Tdgh8JYlg2v4tSN87/ow21GHmI8es7QGlvayVUGl0Mzu05cGMry3+3UAmcsOaM9TX40/qQIBrtjYtPwNY+DWcCRv8E7845uDyuZEVG7r76iM39Z6gUKc1+C/WjtziPHeA3o4280UChwsm4d4KzjyRSBxl7YuOE0M61kKbrwnjwO0au+E2nEMePxxSn53ebTJh49IeJJg3PsJHB9tN3bOMDVCtc6SmiUzumMfMkBA8byGw/xTts4UFVTUJKcWo4JnFyx/Rtw5lCKnWOc3ML+5ykaOVxyvf4IifOmv/EOZjTx3JmTIIUObn4lMDewS7b2seJBaiDk7aTIds6patmh9g30Ot3cMoiU/s57LK8ZKGORiFtEcZLy4jt1+5supgwrE+ToHL6+ylSYcsO2HlSQ5lxAoPksd7PojsIIB1GDbvfvcAgtYdiqYSMSzZT8ncMqZlKYXR+juTeAXb5bv+EZIsD/+A3kp68BnGS+7Expb/U6RiJYnIeCdJGi3rAekzr+9GknsMS+i+OZn6fDkH2UU6TbClZ7D1BiZPHsNlE65STI7RumuhUSMx6fXRsoSGnhEYqWWhQnzQJmhqHSh1Pqd+zuSgLZayK9mCY2NlH2uwhWR8RuznWL0C/qGBoNAoTEuS0NTFXNiSZybt4RVuw/6wC22TUcfSWUjz4DQYbErTWsMZnfx/34qd4a6Swl3OPo2mCMyFBNfQsWaTw7P0Q9SkXkMEJ6Du8GLCsYgmlTNJaVNWOKafYA/w+oi4EwDIb4h6yrP/gxdkmDg5ryCeZgM1+NeI1jLiom3kWYYowOmSXOvZyccFxwH5k0UOrfWzb6wWYjkNVIWSn7eOzD8TRMgO6jSn2uco+cwxWX+DknERyjzYoX0abxDZKHWHs2ljvImA0g7+fPYlzcW2N0R08O0yi8eKtbWdcvx/+3YeVShbWbs2QIEWA0nh4Qkvw7D3tqa2Qocavjy7a9jbBebWAIonVeP5lH8ZtXQNiE6UJ60OC2OrUsz8tT4LN7bXCc+X4J1eOysHQKyH5wyuQlcBQrEQ/NGTx+ydIM/lQ5amoxz/U0kUxcRe/4hH+oDfDLsH5jYaeLMhliByDNXTeNRvI3n6K071f8C/bMTaciqj85wWGHPwjy7KbXKndxtPTPfzybw+lyYuobdNoDUlCRiRr4zZaHcefnLQzVsf5fYbfv9ukEeXqfY4ffVE4jAwSr5lLUHRcaV3+x91fP2L/9Wd0i05dIdvqp1S+buMry4g1BYZsvDk2XGXHf8Rx5jU+2x0K8Qy5so8jwwlo8jjlGi7569UkCc+910N0JiAiefdXfNx31en02eRvBtthi9wkxrvEWxGOECTIUoOJkVICSrAepZZ+v49chL1H0vnDK5NyNfjZZEpX+pjguLjYp87Se2j9ZVE4zKrPNQ6p9xnq/btNhnW4UrbUMayMxxh6+hBCSnZTA8KtEWRjY6NMhmEtZPTTzsdx/yRNwz2wJxmfRycjT49PLoa4lP7PizNsPvkThmWYtL3Zw717fbxlAvO9N1z4TLmA7AqGvR7i9GZOaZ/Vz/m5dTMkyJkUDeqMMc9IePoVhGloHdJ2cCbMpzwM31ukbGyv/UCNILsZEuRsxNh9+S+d9I6eO+3puRewEerwb6K/3oXGaFG/Xbphcr67/ZwLa2VnfH7fOfyHCfVKW0LaLQ8JGjl5aVM2JOz49emH2e/B2KYzwOWAUwmhtxj6nbQ15ABfk9fWhwS5jawDjkkDc5ueFw1uv5xkoiFzUGbIgbOadk1MQQRBTRJ3f01M8lisAdPA9r1dGq/B2OsDx/j39eCiBb31+NRFILQEnQl0pCcJkqtbj3HqniSdV20DNBq3326jD9lx6rr35jMNabCmLCJBE7LjlNFnKIEAxscelvBtDWssliGj8CRIk5dpsneZsTWDpTakM3IkOU9ypR+fEBu7z6ZPgvjsu7Ntc3R3Rv8X/L5ziH/6FU6mfsTeo5vn9Fp8JmFUPy8iQT7jsJm9hcenkzJCy1hjuPeSC4dy5MTghSRooWwc/BmOHBM4DY1juGfGiEtAgeNTE8OxDGZJkJeQztVJpy3zxvusJ2gS9pgsoBZrvj+m4XUo59jkvV9IRCYrPLtipx+pGQ+uq10RxtUMCbLKH3hyEB0bkPwF/+Xkbs3NEeoIa9fGi+WpBfScceYtOKhNC373Ri28xc7OARO9eF2iF5RkPeleXLGA0ON3sTrZbwTalLAFrPa99SFBfqtlZzWccAaVXpnpHJQJdE6eg6uMwKRbZzWRdMo0uKr77kUSb/7OokaPjun8bhOw/nhi00Zotm5GV638I2eS0Eqt3L1utqwa6+Q4aGM36+51ehTCKNo2R5Eo1wTnfB64O8yrrBHaGtZYLEVGoT1ByjWfR/rhCT0mdInfKzE8WUXBCvPMe0YYdhlGbTAPZ2S/N7TCp7Nk4Zzh2M9TTHR2x5fdZ7qD/6HreiqBLczusKBExrC/zy4A3D2f0bFFJMhnHHr1LLSMrytBNbBcL94ONipvwTsYnbE4b8IOHJ+aeCYmRHiCEUMyyjt54RcOsyUzGnbRqjeYCzhWPpww/yoaCeJkxny5Oz//xRIZ9n/A/C/mamTTXqMzPQ78SVB4HSo1phdyU6WHkXdo2Wn7Rhx1OKzLIznuHiPNYwIGNSdMzoVdmgu7KbIQoY6wdo2tQe4W87x8FrcTW+xqq7fgoDZF+j2E3dLt1PXvvORiSedP2j+GHr9BJtRkSJ0h9EbPsN9Q/2aIXc+pC4zv2v15vUmQx3NhC28Lj14zCdoHyvh2HgVn/2jwziMnhLKtVtIltFXoCSrElUVV5Zsk7BV2V9XVnYSudH7Q/k91MPdv9klmUcylJ3kQ+z+h7v/ieMvnupAgM0RbwxqLpcgoAgmy2mX0UC+TAB0zsZz/3Dh4gyHzIvypEInK9h2ouWOTOSoZ54Trq5Mgb/hTNewGSdAMWXMbPJdxXhoJCjEOw0yKc0ziQk/QQoLqTFxbj/Ba5YrMPPG5W86DSdCsh2/K3jgT87nPzrAxcdncwX4mbevosHcpEqQ+HQ2YkFrmxhDmOKk0662f3pMgBMfQ55KgEDpkk6CAHaFh5B2BoMzir5LMSTAZI7bGbsJE75RjnmH/qQT0CHWEtWtjEhQCo6k0Rl1BJLKjTIeKUBxhsggLabdc4bDX+TYeM1FwKhTGoqPYaC8+40UnN5NYOXJCgpZB6uZs6XPCQjocZidlJUNtyQ4mQRPX9S//ctV2+yEGzgFkdqhsm7k8VXSTHGzZiRfA9hidzV2t2ROynXh7FjBY3IitnARFaGtYY7EUGTkGwGTul+lO5FhEKrhzpM6B+fwUgWcXaTl63fmB4bCFEy0YsrSTBWfDtDdBgphfdus+TnzCWGpHmJWIe7aP158Z8rB4mW1cZ5POg8ehF5vQMg4zKV4rCXIWPHMT04MbEEyCnDDyTDjMHTL0OSNIjzdvXmEIz+/Cs7+4SaOY+RG/nvt5JCd99CdB4XUoY50Ndu6TFsA69OGp8/KUIhAUL/4q9+m753H89HuB2QpdajcQ50nc1VphOkclQh1h7RoQHiNrnHmfK5Kg0HZrKieIGyGsJP3pfKPQ43emE854SjBP1tA5tfNsyjL4wfWXsT6eIO5iefYnJzE7O5jPJEFYJ9qZ3Bt6++kpma1319AsUPYAchn/afZhJXLtPzhA/7iLvLP7Syej7lq/nyDjzsnRya8LDz5jMnTyB7wyfbbHepq5HBI028fQ4TDu6gjb1rDGYjkyciaZrUP8PaiMt60bPNcg/dg+eyVwy/mCCcWbl6V1rU6P4PN3lwuH6dw1r16Gaq/vllbVqrDhMJ2I7xN+0R4Jn8To0cxEFZ4EhZZx4GQUdGr1tJb5y2pidBeHKl3YjHcYhTeqOmwwvWGDlsnJi5lNjHaHprX9AsaE28HDi71Ojo0aDpudZxef2xWk//ZmjhA65LsJwLbXzWySuWOJcInRIRYXXvvYzt9iMvseXv7NIx3mhf2WQoImuZvj+SgsRtdAgkLbLa/d8DmuIfT4nelHQEjQk7YSfoStx5trQ4K6sRguLuLYe8JYIxNN4vn06gAAIABJREFUu5UCnp8wuDG1atI7xmLcEt1Es5q13HFGv4lGtQmzMuB2QBtYTQRSD95w2yTQ7KVRL9k7OVTSs7XTS/331I4wh+laV2Ht0yPExLJxTGWyDXrz4CVaavXBv5m8M6hRr6OfabHNdpxsvIV08wAvWzz7wX6RcVS1fTuDVrdibX2/KgkK6mN4EhS+rWFJ0GRX31VkpCcv7ip68BpNrj771SL1wZzecq6MXaaHHOPTVRpgbs1COf8Qx1wNv2R+DtVo5tEGILb/Er0Wt1sznl3jWStHZ0rolyNBXALbu9QuNrB/2AaPtrK2oz8/MRCLXeAi1BZ5L7ELS4LYbBoha8dabAdPqGNlHgykjgool17hbCY3xSk3to9DvpPhMQdGoTLZIh8iJyi0jIMmI4eo8pwBfJ63V955L7Z/yHOKMryDy+DxF64t8iEmUmaBWjkj5wobHhtg6Ql9CP0mdaZposJwUtBufU2ClBJt8OiBRoO5FRy7hecnDLtOhz99Pc96AtIySDt2h9i/5GnIBbWtnXYkf3RmhbIikSCFTSWOl7xXS9kXk2dflXIvaNMe4A9utc8GzS9BmIbWoQm52zw4pA0ucscgz4Hi/76gvV54OnYEgjJjH5mmsH3nZ6gsqMnDfK/UNnJV1xlFEerwhenKGPmUekVPUGi75bN4mj24M/w8Ot0TZ9H8MYVHv/N4GOZeGjwLLfdYjQe1A3SxcyJILVf5+xqQINvN2Oe23FayjNyLd9a2YNvw0PjR6IydQxbD4ESXK+CIBypODYWte6i3O5PLBWmA8umH4PEI9jNlcCeTLC3PVOLr2PC5V8/jinjIYj6L0okdf9dPjPH9YrPLA+YmWSjDZt4+HG76RR4A2US3kbNyAeyVjc+loyHc41bdAX20r7M4Z5c/T5/HEhAKCdNWPyUNzNlYhozMNhOc75PQjJUBzyjfTO02Hg40YSCByeTwwq0LjFU/4EF0rfEZPt6Wm2gXdnF/XDDzC6hntUyD8fNt1y4qeqC+/xnnMxN1QIirX0Mm+wLvJsrr014/FB03+8y5UNF+N3mIYK5whGko1OGYPMjTc3HnJKFWtWcLhx+4TXw7qL6ABPwwMlZePD8MHf12e1L8jeAkD8L6Oz2DH1jmdlC5AeFSP2zUluSte3W0acT9D7GcLFKevOZZTeVp2R52uqi4DFNg+N0JEV048k2qg1nvH/OsKefhYXmHtQwaj4+wPWc36MyYtsZHgePDZWBUWZ0eKnOO1VAEVufETWFqmdawOuRnB3mo5rMm2nWen+YvTPvXCLKbsY8OoR2RfNXyTi1cxLTqRzx4kGeF6fvZItQRSe8iYeQpOahNoX8Pabd02M5jT/QVLpvaAxxm/PqB47Vzlr0tw7z/HAMhQfM0P8rfwrnKlfvVMOzdFXHvBYuu6kzDwCieQDIxf9dElBaq0zZNw+T/Z92JJOYVbV8Sar245DZMWrysPi6/rVeXkdU3bnxNJufs+BqxHhvk+e+5hay/iScpl2jSn/d2qPYur7qZkiYyXNAvp//zxk64ZoaTsUtbnUtFdz3naAXXpi/anasDYRrrXIwZVk+8nojlyVbbjwj6GtQ/3aeI9mUepqF1aGyD47j+i6qdxUd8OkRuw+KEz0PkYYZRE/3OcjCKUmOId5dut6KOX7uNeixcv9xDYHLFV9bAE3TFHsjngoAg8OUg4BwumvA7Z2bNehGcGL1mDf0mmuOEnNOzJGjEUF6a4eDJ+WffBCDSySUhICRoSUBKMYKAILAYAWtnCk+eHp9gvfiTlb0hJGhl0PtWrEM63B8/Pl7A5PECPXXH3SZPe2d+lysjYb0aL61ZWwSEBK2taKRhgoAgsEoEekyuKbR3eSgcLwxeYsh0lX360us2enVuiedl2P0+hmYC6d0Mcy8rqDLPT0T0pUt3Ne0XErQa3KVWQUAQEAQEAUFAEFgxAkKCViwAqV4QEAQEAUFAEBAEVoOAkKDV4C61CgKCgCAgCAgCgsCKERAStGIBSPWCgCAgCAgCgoAgsBoEhAStBnepVRAQBAQBQUAQEARWjICQoBULQKoXBAQBQUAQEAQEgdUgsNYkKNJJseYQXR5lP0zsIp/ldsnxPawBv68Gb6lVEBAEBAFBQBAQBNYEgbUmQTP38fC+k1qJl5Vma2iVXDf+dEu8QPKVdYmb9ej7noJ+XxPwpRmCgCAgCAgCgoAgsDoEviwSpG+fnroczuBttt/hxdkeXv7Ny1WTvCF6mMDu9ijgdzlSa3XqJjULAoKAICAICALrg8CXRYIwRIe3tZvbeRQymsw4t1/vHOKffsV1g3HQ7+sDvrREEBAEBAFBQBAQBFaHwBdGgvyA4n0xtx7i7cwNwkG/rw5sqVkQEAQEAUFAEBAE1geBNSFBI/TqeRSrXfz16QKxrXuoNdtIVv8HPHx7D28+8wZhhRkvXsxuVzEstDFsZNErbyPXHOITvwFi2NhQ2dAZ/G8Ph/j/vZn9vT7soEgHktGpoViuofvXJ7A2pHbyqLZbKKa1YLoopfPo5Nros65c4QjvPsaw/5JJ1uWk9dLiMoBuKY18J4f2sMI251Fpn+HjRQybeyW0OuyLJzI3bBaQr3YwOGe7Yins5KtoNYvY1kneGGHAfxeqbZyds8+xDWxlK2i0KjNlrY+KSUsEAUFAEBAEBIH1RGAtSND4duDUHg52kzAHXZz+BWzEPuHThYsEDcpIf3+Ec8frM2gUUOkM0DshueDNwgcZxWIy+F9yffyfPr+X2xWkGxlsP30HbD1AtZJD0uigVjsm+Urhpw9D1Kx8a8eLlEohdX4Og+3KJIYwc130+cIwVBksJXeLJI5lpM5xbm5hP8vCrb59AqbymgA3Bk9KeaDTQvuU/dJJ3mxVt5TE3Vcfsbn/DJXiLj9qoX70FuexA/xmMPwn6U7rOcqkVYKAICAICAJricDqSZDZQPb2U5ymnuH9sA5O7dajPD3bT0/pqQkmQfabEcJhuq69X/BvrzS5dXhYw/Z/XmBIwjFqk4DoMvlfMRIuo1OYvBu6DE2CWAj79uegjozl0THRyNzG03ebePbeQF11mB6u3e+e48yDAbgbrt5JolwgeWJ7kz+8Ah79AaOZnSgT2xu/f4L04d8YVBQJlEcQEAQEAUFAEBAEwiCwehLECf3W41PsHP6DfsUONemnmb2Fx6dLJEFOXfuvP6NbdNc0QDn9PY5GJGKKkGgStPEIf5hNuCgHELoMTYJcZGfSMavP9958BvkVTHqWbtM7tffLv+Q6/u6cPsNwd44wIU7j5jskcP81Pk93Koz85R1BQBAQBAQBQeCbRWDlJGhQTuP7IwMPfh8xfDQth5lzgjzhMPvt8J4gu65zptJsYJxm41Q5+qTygzTh0uGwZ/hA75TrRCKEL2MSDnvGMFvdXYiz1V+TILvMkQ/BmeBhY6HSgLxtH9k5UfQiedv6zWq1dFwQEAQEAUFAEAiBwJqQIJNRHlM5Waae6yFBJvZ/qqPoJiW61mQWxVx6Qqx8iIVNWMKUEZUE0cvjJUsuNGwstvDoNZOgfQQbnzo2IITk5RVBQBAQBAQBQeAbR2DlJMio7eK7F2eYDVFpErG8cJiuS3tggmUf7AkKX0ZUEnTOg64/w0pJ8nk6hTh+PE7OJUrfuC5L9wUBQUAQEAQEgUgIrJwEqeScxN1fMfIkII96ZWz/wJ1gy0yMdpKLTW+y8wxkwSRIJygvLiM8CVKJQfEfj8EkoekkbBjo9UbIcNebyUTx20wUTz37gOFUbC2SvOVlQUAQEAQEAUFAEHAQWD0J4inQtd3/8NoL7lp/9AYtbkEfVEsovXqHUSyGi4vs5JygK+YEqZ1ZrVySYaULbB68ZF0FbDMP2Rx00KjzTrJMC92KipPNIUGhy4hAgjBAhYnZP5+D7TpEs8odX/0GatUjvN1+g88qexp9Jm/fwdF5DDtPmnwna52ObfSbaFSbMCsDtAK8SKLtgoAgIAgIAoKAIDCLwBqQIDbKbKOwex/HJAH2k8LB6y6q/Sx3RG27SBDP+fn+Z5y7zs6Jkhhtlz1EM59F6eScidCTJ8Zzhoq8kqORU7uznCs3PGf5TN4OUwZLyd/C/RP3+UNOCZ7EaOtXbocv5/I4esczhJwnljpAo9ueHOJovVPgO+OrYq031eGS9XYH7jtlRdkFAUFAEBAEBAFBYD4C60GCnDaOTAPmKI5EMjGze2v5ghzBNEyewQzEE0kkvNvFQlW4jDI8FREDw2pUEoQh4DFhWC+p19j2UG2VlwQBQUAQEAQEAUHAjcBakSARjSAgCAgCgoAgIAgIAjeFgJCgm0Ja6hEEBAFBQBAQBASBtUJASNBaiUMaIwgIAoKAICAICAI3hYCQoJtCWuoRBAQBQUAQEAQEgbVCQEjQWolDGiMICAKCgCAgCAgCN4WAkKCbQlrqEQQEAUFAEBAEBIG1QkBI0FqJQxojCAgCgoAgIAgIAjeFgJCgm0Ja6hEEBAFBQBAQBASBtUJASNBaiUMaIwgIAoKAICAICAI3hYCQoJtCWuoRBAQBQUAQEAQEgbVCQEjQWolDGiMICAKCgCAgCAgCN4WAkKCbQlrqEQQEAUFAEBAEBIG1QkBI0FqJQxojCAgCgoAgIAgIAjeFgJCgm0Ja6hEEBAFBQBAQBASBtUJASNBaiUMaIwgIAoKAICAICAI3hYCQoJtCWuoRBAQBQUAQEAQEgbVCQEjQWolDGiMICAKCgCAgCAgCN4WAkKCbQlrqEQQEAUFAEBAEBIG1QkBI0FqJQxojCAgCgoAgIAgIAjeFgJCgm0Ja6hEEBAFBQBAQBASBtUJASNBaiUMaIwgIAoKAICAICAI3hYCQoJtCWuoRBAQBQUAQEAQEgbVCQEjQWolDGiMICAKCgCAgCAgCN4WAkKCbQlrqEQQEAUFAEBAEBIG1QkBI0FqJQxojCAgCgoAgIAgIAjeFgJCgm0Ja6hEEBAFBQBAQBASBtUJASNBaiUMaIwgIAoKAICAICAI3hYCQoJtCWuoRBAQBQUAQEAQEgbVCQEjQWolDGiMICAKCgCAgCAgCN4WAkKCbQlrqEQQEAUFAEBAEBIG1QkBI0FqJQxojCAgCgoAgIAgIAjeFgJCgm0Ja6hEEBAFBQBAQBASBtUJASNBaiUMaIwgIAoKAICAICAI3hcA3TYJMw8AonkAyEb8pvKUeQQAjs49uuw8znUUum0bia8FkZMIwR4gnk19Pn6LKxjRgjOJIJBPQViWUnfH5LmrVi98fwTRM2rwkbd7ity/7Rqj+XrbwdfvuRuS2bp3+utqzPiTIHKLb6WI4UgAnsZvPYTfqQHWM8EIRWUaghdyth3ibeoYPwzq2F34kL6wvAkO0SmW0EiU0a7m1noCHjQy2n77DhQNm6qcPGNa+Du0blNP4/ugc9958Rqdw3dqyepmb3RpK9T6ytRZKjghbuVt4+DaFZx+GqFu/hbMzs99dA36DMtLfH+H83ht8XiAgv76Fa1G4/oYr63JvDVsllFsJlJo15KLOIRGrvBG5RWyTvB4NgTUgQSbahV3cPz73tHwDB2+G/FsELW7lcOvh24UIpJ5x4qHxEhK0EKroL1grI1yPNyCobG3ccYDfPreRj97qG/qig0L8RxwnHuH3QRM59NE3d7GbvqHql1KN9ibMelCvhwTRu2Qr1LT3Yg1kbk+AgJvIfi0kyK9v4dRn1SRogHL6e5CL4+C3z2gvxRgE67yQoHBasc5vrQEJUoOmgvjLJuqlLNLxEYadErI//opz7OOXf7soheZBjsHUiLcK+O75KTYf/Y5+bXciB/EEXZtO2hMhXCvh5VUVXLaJXquNQSKLYm6NGcWgwpX4zzAe/I4RCfuX+TiTnI834VpIkEN2qFBcuLg9Zmsg82EHza6J7XwBGcdGfS0kiEZ4pm/h9HXVJAgwey20BwlkizksxxoE67yQoHBasc5vrQEJ8oenmb2Fx6ebePbeQN3FXyKB6XiGbM+PN+Sw+sEaqS9fyMurIUFfDDhWOGJ2Qv9C2m81c11I0Hpi9tWQoEvD+zXaVSFBl1aHL+DDNSdB7tj6JdAMSYLe97Jo5JhPcvYRF7FN7JVa6NSz07klowGaxQKq7TOcM6EjtrGFbKWBVsXznl8zzS5qhRJq3b/w6SKGja0sKvUmKrnk+G2jU0OxXEP3r09WvkgstYN8tcU6t8cJlgC9Yuk8Ork2hpUhCvkK2vPaHKJeGB3UimWnbbreNlrFyRrKIBbbVaA6aGO3WUCp+hZ/KQy2DtDotGG9atSR5Uv90Sf2UeGzYbd7t4pBt4yk83dU+2gmysiWTujp28STjoFGlp+z/yXi2R2cO9+78F1UtoNLK+3UNUZ1hEGziEK1g8G5wtUf+24pjXwnh/awgmEhjwpl/JFy2twrodVhvxZ5IrVudAY4tzuPrWwF9WYFtohNNOmhKvdG+OT8fUOBkyyiM6gj46czqsxyEbVWH3+pb9j21E6e+tey8baeiPoQUoeNThn5UgPvbEXHVq6OTruIocKpZdh9UFhanUig0B5aMpx4gv6LqpFHseKjJ+6+ztU9Ln6y21QXD2bYpR52UU7afZ+VuYlujTpa61q42eO0jmYlx0xD7+OUkaTe9pgvM/7zALXdDGpx7++OHAcF6koD29a44Dh0+q8+vzIJet9DrknsGu9sHdwpcow1kPc0ftpe+OmGj1K5coL+WzWQL1bw1h7IOGh00J4Z89N9A9R4KiBf7jjYOmPcqiqDOr1HRVeuZSi7apWpxmgbZ1rfOHYarcpk3C2wHTNStfQ07ejJJcaJq0DLNszR+bG8KbdsI8c8pAW2I4S99TMH8tv1IbCeJKhPg3SHCXybT/Cn0fCfJMJgEoYE0chvXHwCtvY5idOQd085wKfj/NZkk7yLVx83sf+sgiI9U/1WHUdvzxE7+A0GA8+B86TJVUSSCdgXnEwOipzADLTbbU4wSfzE5EmVE2uynUkmF1zQYB8UGQpED632Md+hfZoqX6+yUkidn8Oc1+YQ9YKGPLP9FO+whQdVNWEb6NRqOCYA7jwHe3IzkUqNcM527x3sktT0cWI3EL8ZKg+ng0qxgV6/g1P+nNp3EtuTBTQaBSQdA2ymUhix7YmdfaTNHpL1EdrxAuI/HvO3AxSKeU5zfbTqRyC82Dn8G/3SYH7ZAcmnfbb7jkoOSO3hSamE9LCJZmtWvtqQpVLnODe3sG8rAk5tRWDifG1O4nyfOQh3rByE1N4TlGg0h80mWqckvEg5MjbRqXAy6/XRscFBTmX9E5s6sZlMvlqpDU7C3+HFIIU96kMpk7RIYu2YZcYe4PcR9cB6NYI+hNVhJswqWWDnCWrlDBI02nWV/NsdoNQtoEKi1zuhod/cwUHGbnm20gZfHZMgRYAvPiX89UQPlIW6l/THjFSm0GigkPTzOJgkIUnm6VxwoXGAIid1g2OtTT1NBiSg27LfweE/fVQ00TBq2P3uBc7g+V3jvfcL/u2VYPgkgl+NBClieUG9sXUwMR5j9/CGctDpkTq5HlsPUFXkTk2stWPaLa1vAcZRkyDH5iX2DrDLMd8/eccFSYw5NLRNeVtAfqFNPZ5SB4eokpUZ7SpenPBLjq/cbh7lNomLxiiUXaVlLSVx99VHbO4/4xi3DCvqR29xru2Kas482+GT8xMsgxB20wPdgONzns7bdU3LLdB2LNT5r2ODRJipeZ3eWRMS5Oz0MAiNOUBXTSCpA7zuOl6GyyIWhgSx7NSzPzGoZ2zPhUlicJvEYPMZ3nMFoiJxPQ7UH14Bj/4w0MxOGtPOx3H/JI3DvzlJz85k1ovdQhx3Oafce0OC4UryHjYbGORLnMwayLK+U+5Se89dapPIn1qNfo8XZ/SW/ElvieUucAx/iDYvrDdhcvV+G09P95h31XPlXSli9h+8GJLcjOwkY20QEbuH12q150wWXf7H3V8/Yv/1Z3SLNi6B4bBxIqvC+z3Dk64YJ7eM94xtEjL3UQVOX3cO8U+/Yq3ig0NtPhMiJ6kkhWbuv4bBxo1JqupT4j5OLib5ZjoJlA3Dn8ozYysCMSc+7+aHZG3dMImBQQwmVHikiPH9E1zsc8Lsluz6A/NbZhV82OshnslMeS/s/ht48PuIk300fQirwx3q64/HGbz+3IUjUk/jFofDFutJeN0LxsxH5iRpcXuwkTQWJjIn+W0M8ij5bBUyObBuc7fe3i//cpzb8tO/qf/eOfwHfc2OHIK467zrRxSuRoKsge3SQXICh8hvPvkThjICtE+WvXCI2FjjFFH/zwsMuWhSuuf7jMdgDPdeD9GZDGQk7/6Kjxwrn52BPNs3J6l/9yUJYNnB1pFjz4eYh7BRBNwaozSsMKYNK+IcO2kugAbKsM6zHT4dDZRBmDb5ArcoHOaVm5/tiKDz/tKTX68JgfUgQWaTA/sxTl2djG3u0bXYRt0VMoqMQRgS5CI7unw7H4mrr88c+PRKlJNc6WNCisbtcMp3k4DpNnIiSdzFr3iEP1QffTrgZ4S95U9ympzBuLDNi+sF2J5bxNxl+HS9tgEcjfOxtEGc6Sc9dkl67OKunKuFJGjPbUTnSdTZ5UHc9REGUUiQIiS067SvDGF4gPcaeNto+pAdfnjr8emcLd/zcNa7VLQesa8RSJC/LbZ3P062oIfVh/A6rInW1CQ51ZjFJGixnoTXvSgkaJ7MAzVNL3pcid6WPhj3cG/4Fm+3ba+PIht2+Vz0OF6j5ZMgHx3U7dOLAUcnZ22Oo28jHzs1Gdj2FvmZMe/oR9w71tzHHdhyH3jyK20Mkvjlv1xIWYuHsDqpCF6SnlqmyM3kfTpl6HZqEhTSdgSSoIV2M0hLFpGgMLYjgs5Hnujkg6sgsB4kaKoH3I7YZww88xynjIm7XbSROxqGBPmcE2QPIj15ae+LzoFwtcLJf/FPvHYZBB+iEUQ4pvo4c65HcNKhb5vn1DteXSm3tfesSKdferIN3PXjM6kvJEGBZ5SY6DP3odHoQTkElSem3znFefJyJMjGY9/fo+HRi8AdHs57wefeeIy1R0Fnyo1IgkbDLsOCDeafWIdnAcMeTpgDNkOClqnDDKPm0w9xwkhgLHWPuTU1VHmExcTHtZgEzeDl7bc7LLNA96KQoLkyDzQeTujxTI932+PRK31Aw9ilVyzrLIYcwpv2eianz0W6mifILwfSqTdhjwPGXq2zmMY5d1PmSOW9uUi3t8+B5wQFLTjcfesSl7s4TjM8PNDhYScUbPiFaGfPX5u2UTp/ypU/OG6vkwem9TrC+UaW1Y1wVpO3Tf5qsogE+cjNazui6HzkiU4+uAoCa0iCnO7QpatcoheucEjkji6TBG09wmsmQc8+8aktstN/Dx480yQoYEv5VUnQvEPRdJx9/yfUmXw9+yTHW0yvnQSNJ14meO4xl8hJJr46CQqYEJZNggJwvgoJ6le2cefnv8DMWOwz98YiIVclQaF12ECvXiYBOgY5F7BxgDfDtpOTsjwSZIbQvegkaA4JCDAgBo/P+O7FwA4zxhk6vcuQqfIgGsrz1rV/T9sHDcZ1iIZlLd8T5EeCpr00Ngli+PWnOvyH7ZxjIq5EgmCF8388Jju2dDLBrein1A+G1qZC/WEXapqsbOHRa5VL5GNZt/MoqLMHviISFErnI0908sFVEFhfEqQV/yonOi+FBDmxcJdHIjzg2iAEJ9eqmPf3P/NEJFdezbh8JwchwRwaw8qhCWtgFtcLnfwZ4vTY6yZBdh5KwpNzdbVwWDt/i/la/vk89qR3Nsb88p4gTpa3mF/k42bnfjc7ufnM5Y0K6wnSsvHmfcx4psLqw2V1mDt36iSlPGuLTMA522gJJCiC7kUnQQuSg/0Gr14QMDellyiSZOzah246oagBfx9sl6kz5tT5VzdDgpwwirMYpFJZunupU7mvQoJUfuR3zxH/6XcUiEtXuWvjae7qqqHgl8u30DupSJUa98nFZ4p9DSQois6Hn2DkzSUgsHoSxKsuTK5zvdd3jZMT3ZO0vpsowbuJwlz3tRQSpBPaLrNdX0+Es9+OBj0MkhnsDgISeNW26mySuUmJ2cTohQYmRL0JxvCTP+CVOb3zxH+OCLgOITAcNsknGpc3x5D5hzGmwwDKV+XNVZq0dZYMmNyzffvp6WwStsrxsnZzeROjQ7i0Z8Bx6cZ7XpPgPs9K73C8TGK0g9VoTH7tik0m799+/u4S4bCr6LCX9ASHAMOT5fC6p0mQFwu/BYEmtzPhaR4N0BskkQm8h0fn0zzAg/QxjqHzgJwE16HzuzEd4lk+CfJs0lAydxK3x4nROuHfm/wdZjK4CgmiZ/4WPfN7L/9Gl96oYPMblpirvukx6neOm6tD60KCfNILwi+gIuh8GFnKO0tDYOUkyPaEAHtPeN8Lz2jJJrhTrFFF9dU7a4vxM9fkYq8cLrDpmRwC0VgKCWLpekKL7eAJtz9XSU7USr/PHV7VponKgHkUAY0waTySKqynvm3UUd7llvAaz+U5HqHILfL1bb2TgF5mbj1tVovWFnH1vy9OPnKjjXunSwQDs7Be19b8zQO8bKkVHV3P3J3XYTvr/Qxa3Yq1NTz85KacVXbybmz/kGctZZjXY6BQmWyR97u3yN659BEpnuzd4UpXbcsu5R6D3bd2y4zvdgsq29dDRhLFYw1+pbt+50kD9bK9lbheLuHV2cUUOQpvyHyEzN001s4aLV8m8hs8W6hceoWzi2n9DZ0YrXcAxfbxkqffFpLMj+LZN/mjM+sMqeg5QWF1WJGBDHo55mZVs9yZxh1v5Twe8kqbnZfcJcVEVmqDcy1BCg/etFFhgn0vXec2/mh6Mj4WYoHujckOsTgkrhkewWAUKv5b5E16b5Jq55+W+S53StVQZlhvVJw/0WodVBJ27wjTxEr9PiYijhosnQR1Y4hdXCDOoxYaDW464PgrPD/BR7h3cE6OAdg8eIkW9cIeth3Ni9stAAAS1klEQVQ06nX0My10GUr1fa5CgmiTKtt3oCK07ie2kcJ2rooWz/qxHULhbRQNq7MgUfLi8RWWztGy9rmbr9qEWRmgZW9PDX3nmdWCpecEBet8FNsRXueXNr9LQSEQWDkJAg/0K+d4lsw7HlToarBKyqzxKoSyvV/ZesaTZdhLJ53Vi3/ishPK8DkHxi9ZzuSBf7nCEdhMdyuxda+ONq/5mHfCw5CHn2Ufq8MB9cMDGZ+5D2QcopnPosQzNyYYqHeaaDMcMTknLVqbF9fLNBPVNnVw4RT4m9gpNtHl4V/WMR1OyG7mLh7f8I7HWG4dMpGSZMq5MuKcW3g/z2zh7aOWyeLFO+YbWA9zgx60UDbv4/nAvfoOKBsBuDi6deQWWixlHQzXch1CaYfOfMIoCxOj7db66UaMRzw0OjzY0B0qCBsOU2W2C9i9fzzRGe6WPKxl0Hh8hO3xBaXR9CGMDvdZR+4FD+ob66otiz5nI50cbfK/0w9PuEixH60X0fQknO6p8sf5UVZtWzj8wCMptgP6zu3w+SwJtOsqws29Z4sPvXQ8LKTi0+GZ8fZs91EVdr/9+jurS8EyclsS67s+t8e3krSHLzAeChuUOy+WrrjsIJHzsRccNczVKTa7PPh1ksburoMNtq5tmR2DPqHnmTHvEJbRAfWQCztb88fnpZE54m8eZZEOGot82zcJ2W+MKguwdQ/1NhdD1iosqN1TvRv/I4oMwiVGqwWjv85HtR1h7K1/r+TX60Jg9SRo3DPnkjr+Ox423HVdqMwr17nEk61EMhlgbHy/1/2LI8Hv/N3J+u6zee9E7XSYenkWLPtlqk1I8dmLMaPWqN63y4uIkb4gdYH8I5fthFGjyyxazycYei77jFaM6+2J7KLp2oIKF+qwaywmGXr2Lc7W1WWM1VC6p0Phge2ZbqQucxntu7T4rvChaRg8S3nR+Lk5m2l7veK+Z6JNHyly2U5P7n2Mh5TxZWu6/Hc3rPOXb6h8GQGBNSJBEVotrwoCgoAgIAjcGAJ2KoLPwbAjhp3TDDu7zhi6sUZJRYLAEhAQErQEEKUIQUAQEAS+agR0XiTv+9vZzyCt3IPmEL2euitrk5sHmb8TFIb7qoGRzn3pCAgJ+tIlKO0XBAQBQeAmEDB6qHNLfJt34PWH3NOb3kUmW0Klyvy1KJkBN9FWqUMQCImAkKCQQMlrgoAgIAgIAoKAIPB1ISAk6OuSp/RGEBAEBAFBQBAQBEIiICQoJFDymiAgCAgCgoAgIAh8XQgICfq65Cm9EQQEAUFAEBAEBIGQCAgJCgmUvCYICAKCgCAgCAgCXxcCQoLWWZ7WoXYLDk6McohcmPKuFY+rHjbmHA4XX9ZhhNfY2RvFmrj0u2j3TaSzOWSt/cs381iH+i06YPOb0tGbwV1qEQQEgeUgICRoOTheSymB99K4agu818unRWHKu5aO6EIjXBvh246Idwhda18WFH5zWA/RyGzj6Tt978klblG/NFDB90S5i/ymdPTSWMqHgoAgsAoEvikSpK9bCL62YhUiCK4zzET6NU4wgXJaOxKkPVOzV42Ekd1StK1TQPzHYyR4+eygmeNFW32Yu7u8wyncc7UxISQoHMryliAgCKwrAt8UCQp7Wd66CCvMRPo1kqBAOa0dCXJIwL03+Ewy4n7CyG4ZemZf4mnwxN4RT+yNXuLVxoSQoOiIyxeCgCCwTggICVonaXjaEmYiFRK0SgGuAQmyLrbE9M3nESAREuQB66oh2wjYy6uCgCCwegTWgAR1UUrn0cm1MawMUchXcHz2EYht4aDRQbtIx/6w6f+7xm80QLNcRK3Vx1+fVG5EDKmdPKrtFi/34z+7JaTzLRifPsH668aGdYt7osA6G1m7FFVGscBvznDOl2IbW8hWGmhVsuNbtI16FttVoNpvIlHOonRyDmw+QcdoIGvUkbX+OEB7l+0tVfH2L1WQqx9jeRvo1HjcfKOLwblqUwwbW1n+u4VKdpLUGo0E/Rf1UQH50gnsau+h1myjnJncVx9UntGpoViuofuXg09qB/lqi3hse267HzHkUkSh2plud72JSi45rc1GG6VcGc2zc1zEeN9QsYFOqYvMHWvGxrC+Pav9i+Tk8gT9t2ogX6xcEeNZ3WtT91R790otdCjvoBTjbimNfMvAJ0ffNjYsjUKhzRwdqtQY6/c9ZBs5lJrqjqUYNvdKaHWoK56Cp2Xg0V8/O2E2kUuX0Rt9gmqC1ulkkbKpZ5RCO7Jq48xWaGxlK2i0Knbdi7BeNKasNkX1BN2Ajupx3Bng3AbG6ne9WYFXRXEZHV29zZYWCAKCwBIRWAMSpA1pCqnzc5hb+yQTI/RP3uGc5ODgsIT+i6OZ3yfufwO13e/wYpDCXrGEUiYJNaHUjv/Cp9gD/D5i+YMGChVODr0TnH3khHzACwAViDSO7bKaMDgZJu/iFf+2/6yC4i5TK1p1HL1lCw5+o63MW5Oh7XUxkUqNcH6e4EWCaZi9JMlHG3lngjZTKYzYj+TeAXaTxqQfvxlo5+2Zz76Rmd8fFFDMW5WhfvSW/d3B4d99MMJhTzG5W3j4NjV3la89QWoSvPiUwN7BLpLmAN1T9h/89v0QdVYRVJ7JGEry4VtckPQdEL8semi1j/GO/M7dd/V9n/2/c8Q/pPbwpERiSXLabJ2SePKnn0hsag6xMYl58iHeXnAC2idxTDg4sI0xEtFkEAlaJCdNgjixbVx8QuLKGPvpHuXc9emTZ9ANGgVUONH2TkhuNndwkLGFlq0o4qllR3K7cUE5bGE/S2wGXZzaYOHDsAZNA4eNDLafvgO2HqBaoTyMDmq1Y+I6J8nZ7KBCYtnrd3CqRLKfs+5vShbqaBTS5DhJ3H31EZv7z/ieS8diB/iNk3+exD14TKQXj6lLkKDr19E+yuk7sFX0CUokqsNmEy1nLPz0YQitorisji7R+EpRgoAgsHoE1ocEEYvUs/f0EDgzdreIxN1fOYH4/z568DtGThLEsNdDPJOB2xdhk4PpXIkg13+PE8YPr4BHfxhoZidCaefjuH+SJjEZWMREEw62aIpcWF/oCZrE7d7rITpFpzXsR5L9+Lj/Gp/53+ox+z0Y25z4Jk4aNWviFsnIzuE/6Ffsb6OQIMTu4fWwA12tyY4kH5/iYv8X/MtVv6JfM+WZ9GDdforT1DO8H9bhIK86w0nwe7w428STPw3uPuJPvRKSBMlkPwwlGw2TIoCJ+zi52Mcv/5JM8g82nib2XxvoFp03zS7J5V38qiaoIBLklLkwJ2hpGDskyNKxPy0PiiUS4pIhLu82iQs9fBNcvAN2UTjMKhh/DuqwHXImsbzNnVyb1B/DJqdaBnuUEzEe46pI0n9eYEgSPiIJD3psnfSEwxxZUaFhTCs04vdPkD78GyqXaKJj9/DmcwfurKZwYyqaJ+i6ddRX79hJhV+C/XaPhavqaKBA5A+CgCDwRSGwPiRoZsJxDGzQ7zuH+KdfmSI+U8g7pOLem8/0vNh/8Z9cuXpMcvUInwnPKWP/9WdO5hMStPfyX/TKnniGJkEusmPX6pQff8bVf328+p/REp9chCgkSLdxUi5JR4KkY+R4w8b9n3iWTLKb2/RA7P3C/ij24n6cvmvCosgMuRznVXOKKKpPpvOSnP6ak3rHxfbLSDIcFr8qCVoaxkE6BvbxFh6fzpIDD0jI3aLHKzAx2kV29IckJbdITsd66fx7Vn4DejW+x9FoPhHzI0H9cpIeOxIjTbTGjXb668IvUk7QzJiKRoKuV0cNW9/xCH8wVJidEpSD5bmW59V19Iuy8tJYQUAQCERgfUgQV8zTJCHIwPr/Php20ao30B6O7M4OezhhfsdiEqS9ASp04XbNsAwn30ITgblJyIE7lxwDTJI11T+zj06jgUbPsNur/s24hjtUFIUEufvpFOh4HSYTubc8uz8jn8nSYjZI08Vw7kzw9rf7eP2Z5MqrTlOEqW8TAz+SGjLpdKEnaIZ0XBbj4Ek8HDlY5AnyCWV6iIQ7nOnRPqqfytGaT8T8SJDd9kme0ERcIzuHyTXW5vVz8ZiKRoKuV0dh690MQbZ7P637TruvoKMypwgCgsDXgcBXQYL6lW3c+fkvJinvYJ+5GZZPIyoJ2nqE10yCnn3i2M4XkGGhyyJBZiuP9MMT5iwxjynHHJ5rIUGz3gx/EhSws8iXBAVMyH4kyBveUX28QRIUDuN1IUEMHf5UB/PQZ59kFsVcOtDaBJOgLTx6zSRoP43ezqOgFHpMDmblGm5MXZUELVNHHRLk45ULJEFX0NGvw/xLLwQBQeDLJ0FGDbvfvcCZ16CFDocxFyL+I46TC8JV1hyuPCfnU96lsQqF9gQ59SXotjdcbvsrhsNmV9mzLv8ZEmSdMXPO3B073Df16EP4mKdlMHmlnb/F/Cif8A4/Mmq7+O7FmVOO7p9PGOfGSFBYjFdPgjR2s/ILZ5z8SJCdeJ8MtW3e1xMUekxdlQQtU0eHyN9ibppvHpezeeJMezKvrqPhpCNvCQKCwLoj8OWTIGdiHTmTtQbcZJLr7efvfMJh3pAOk1WzTFY9nb8Ly3ZkLIMEzeZlWG12EsETrnyZKOGw2L3XGHaYhK0BGCdkz0mMDkp2ZgJvM5tkTkxinBhtct/37aen08nrVl16R45OjNbJv148mXROj8bjtxchE6N9Qm+hiWZYjJdEgnxCMIGy85JzLQN6MAwSz6i3fvmRoImsAo4icFkl3zBn6DEVjQRdr466xrFrR6StogztMknqfLxJ4Oo6uu6GXdonCAgC4RD48kmQ3l0T28fLXguFpIl+jeflHJ1ZZwK5V9iaxKQevEG7Qld8L416iVuftJGM7eAJt9RWSQDo30C/2UC1aaIyaEHtz1kOCepxO/4P3I6fwqPfuRWa+5qNTgm5xyfg6UhTBCE8CTIQi13gInmAl82adWZRsfgKZxebUzveZsvTkwEjiQeHaFaL3AnVt/73xclHbuZxT8zMBeIxAr9+jGHnSQP1sr2Vu14u4dWZIjaunX2OF+liYx+H7QaxU9u5n+PEiCF2cRG8Rd7R2UA5hSZBYTG+KgnSCbcpPHjTRgVN9NJ1HtMwZ2ffjIfSZL5Kkjk8F5TBS7Sou9tkQuagg0a9jn6mhS7DvUGP7+6wMTFVsuIxBlXuFFQazfOtGtUmzMoAjMhajy/Whb69a3DhmIpCgm5ARzXxV+O4UUeZuBo8k6lcUmPBs6PzijoazrzKW4KAILDuCKwBCeIWa+XG9pydAoT/3WwXsHv/mOfsOM/mHg5rGTQeH2HbtTtMnQ2STz/Eidp3rx5uP/78/7Z3h1ptBFEYgMeBK3Vxle0bEIlrHKBKXSWO1JU3oC44XJFUFYnE4pDIohoZiWsn2SQNsBuWwnDu6fmQnO3N3e9O4C/ZnZ3efjw676fezmG6GCeR+ddKevt+kE5zSBn/GqoeUXCd/9nv/PHQndFefckXEn9N1ws1p79mqrt8Fi+MvjxI3Y39dDHrI18b9OGkn0bbn9PVwl+Cqo+glj8Qs+rpXfr2azeddbfT9zlCrvkj7/mz9XfjgPp6P9PxVrXx4+wRnDkSpfW943Q6yEFn8TTzbe793k46XETKvY83tTy5s7HiZfbf2L+YbHEw/nq1vpcdu+ng9cdb51j7Bmma07MbN62xpjsJ73c7v/ZovqSqtdE4u5qPafMFbDUzyBc252vcPh2fp6Ne89+H6kNQbqZuVvnb4000B6dnaXeWqxqs272nmv0WpV5yjda9j1febKajs7xx6q09KfL/fZ6yRqP/ZNcfAQKtBAKEoFZ9tjho+jDLvNNLp7P8Q4XRcJhuVu8/9HLyIqNhGk5uMHu4Toumlh4y6SO/znM+0PXfH4g5SsPJibfo5yYfO6qOXW49rbnaSQ+MpD4LLZtTS/wSxjVRaGK3utZJa3dv8WrZZ3XYbA1n2SfXmr3wbK65Zif319BP/Xui/XvqMaf5Emu0eo3xEn1o7T1tjT7mvB1LgEA8gf8oBMXD1REBAgQIECAQV0AIijsbnREgQIAAAQIFBYSggrhKEyBAgAABAnEFhKC4s9EZAQIECBAgUFBACCqIqzQBAgQIECAQV0AIijsbnREgQIAAAQIFBYSggrhKEyBAgAABAnEFhKC4s9EZAQIECBAgUFBACCqIqzQBAgQIECAQV0AIijsbnREgQIAAAQIFBYSggrhKEyBAgAABAnEFhKC4s9EZAQIECBAgUFBACCqIqzQBAgQIECAQV0AIijsbnREgQIAAAQIFBYSggrhKEyBAgAABAnEFhKC4s9EZAQIECBAgUFBACCqIqzQBAgQIECAQV0AIijsbnREgQIAAAQIFBYSggrhKEyBAgAABAnEFhKC4s9EZAQIECBAgUFBACCqIqzQBAgQIECAQV0AIijsbnREgQIAAAQIFBYSggrhKEyBAgAABAnEF/gC6v2NQbb9D9AAAAABJRU5ErkJggg==;" vertex="1" parent="1">
          <mxGeometry x="740" y="871.9300000000001" width="427" height="286.39" as="geometry" />
        </mxCell>
        <mxCell id="8J9FziU4pGV4N6TT8qJt-37" style="edgeStyle=none;curved=1;rounded=0;orthogonalLoop=1;jettySize=auto;html=1;fontSize=12;startSize=8;endSize=8;" edge="1" parent="1" source="8J9FziU4pGV4N6TT8qJt-36" target="8J9FziU4pGV4N6TT8qJt-2">
          <mxGeometry relative="1" as="geometry" />
        </mxCell>
        <mxCell id="8J9FziU4pGV4N6TT8qJt-36" value="drugs can be moved by carrier" style="rounded=0;whiteSpace=wrap;html=1;" vertex="1" parent="1">
          <mxGeometry x="80" y="230" width="120" height="60" as="geometry" />
        </mxCell>
        <mxCell id="8J9FziU4pGV4N6TT8qJt-38" value="Include active transport" style="rounded=0;whiteSpace=wrap;html=1;" vertex="1" parent="1">
          <mxGeometry x="70" y="100" width="120" height="60" as="geometry" />
        </mxCell>
        <mxCell id="8J9FziU4pGV4N6TT8qJt-39" style="edgeStyle=none;curved=1;rounded=0;orthogonalLoop=1;jettySize=auto;html=1;entryX=0.421;entryY=-0.006;entryDx=0;entryDy=0;entryPerimeter=0;fontSize=12;startSize=8;endSize=8;" edge="1" parent="1" source="8J9FziU4pGV4N6TT8qJt-38" target="8J9FziU4pGV4N6TT8qJt-36">
          <mxGeometry relative="1" as="geometry" />
        </mxCell>
        <mxCell id="8J9FziU4pGV4N6TT8qJt-41" style="edgeStyle=none;curved=1;rounded=0;orthogonalLoop=1;jettySize=auto;html=1;entryX=0;entryY=0.5;entryDx=0;entryDy=0;fontSize=12;startSize=8;endSize=8;" edge="1" parent="1" source="8J9FziU4pGV4N6TT8qJt-40" target="8J9FziU4pGV4N6TT8qJt-36">
          <mxGeometry relative="1" as="geometry" />
        </mxCell>
        <mxCell id="8J9FziU4pGV4N6TT8qJt-40" value="Facilitated diffusion" style="rounded=0;whiteSpace=wrap;html=1;" vertex="1" parent="1">
          <mxGeometry x="-120" y="240" width="120" height="60" as="geometry" />
        </mxCell>
        <mxCell id="8J9FziU4pGV4N6TT8qJt-42" value="GLUT" style="rounded=0;whiteSpace=wrap;html=1;" vertex="1" parent="1">
          <mxGeometry x="-130" y="360" width="120" height="60" as="geometry" />
        </mxCell>
        <mxCell id="8J9FziU4pGV4N6TT8qJt-43" style="edgeStyle=none;curved=1;rounded=0;orthogonalLoop=1;jettySize=auto;html=1;entryX=0.581;entryY=1.022;entryDx=0;entryDy=0;entryPerimeter=0;fontSize=12;startSize=8;endSize=8;" edge="1" parent="1" source="8J9FziU4pGV4N6TT8qJt-42" target="8J9FziU4pGV4N6TT8qJt-40">
          <mxGeometry relative="1" as="geometry" />
        </mxCell>
        <mxCell id="8J9FziU4pGV4N6TT8qJt-45" style="edgeStyle=none;curved=1;rounded=0;orthogonalLoop=1;jettySize=auto;html=1;fontSize=12;startSize=8;endSize=8;" edge="1" parent="1" source="8J9FziU4pGV4N6TT8qJt-44" target="8J9FziU4pGV4N6TT8qJt-38">
          <mxGeometry relative="1" as="geometry" />
        </mxCell>
        <mxCell id="8J9FziU4pGV4N6TT8qJt-46" value="&lt;div&gt;allow for pushing lipophilic cells&lt;/div&gt;" style="edgeLabel;html=1;align=center;verticalAlign=middle;resizable=0;points=[];fontSize=12;" vertex="1" connectable="0" parent="8J9FziU4pGV4N6TT8qJt-45">
          <mxGeometry x="-0.0593" y="-2" relative="1" as="geometry">
            <mxPoint as="offset" />
          </mxGeometry>
        </mxCell>
        <mxCell id="8J9FziU4pGV4N6TT8qJt-44" value="ABC family of protiens" style="rounded=0;whiteSpace=wrap;html=1;" vertex="1" parent="1">
          <mxGeometry x="70" y="-50" width="120" height="60" as="geometry" />
        </mxCell>
        <mxCell id="8J9FziU4pGV4N6TT8qJt-47" value="Secondary active transport" style="rounded=0;whiteSpace=wrap;html=1;" vertex="1" parent="1">
          <mxGeometry x="-100" y="110" width="120" height="60" as="geometry" />
        </mxCell>
        <mxCell id="8J9FziU4pGV4N6TT8qJt-48" style="edgeStyle=none;curved=1;rounded=0;orthogonalLoop=1;jettySize=auto;html=1;entryX=0.101;entryY=0.036;entryDx=0;entryDy=0;entryPerimeter=0;fontSize=12;startSize=8;endSize=8;" edge="1" parent="1" source="8J9FziU4pGV4N6TT8qJt-47" target="8J9FziU4pGV4N6TT8qJt-36">
          <mxGeometry relative="1" as="geometry" />
        </mxCell>
        <mxCell id="8J9FziU4pGV4N6TT8qJt-50" style="edgeStyle=none;curved=1;rounded=0;orthogonalLoop=1;jettySize=auto;html=1;fontSize=12;startSize=8;endSize=8;" edge="1" parent="1" source="8J9FziU4pGV4N6TT8qJt-49" target="8J9FziU4pGV4N6TT8qJt-6">
          <mxGeometry relative="1" as="geometry" />
        </mxCell>
        <mxCell id="8J9FziU4pGV4N6TT8qJt-49" value="the ratio of concentration between two solvents" style="rounded=0;whiteSpace=wrap;html=1;" vertex="1" parent="1">
          <mxGeometry x="50" y="540" width="120" height="60" as="geometry" />
        </mxCell>
      </root>
    </mxGraphModel>
  </diagram>
</mxfile>
